<?xml version="1.0" encoding="UTF-8" standalone="no"?>
<!-- Generator: Adobe Illustrator 16.0.3, SVG Export Plug-In . SVG Version: 6.00 Build 0)  -->

<svg
   xmlns:dc="http://purl.org/dc/elements/1.1/"
   xmlns:cc="http://creativecommons.org/ns#"
   xmlns:rdf="http://www.w3.org/1999/02/22-rdf-syntax-ns#"
   xmlns:svg="http://www.w3.org/2000/svg"
   xmlns="http://www.w3.org/2000/svg"
   xmlns:sodipodi="http://sodipodi.sourceforge.net/DTD/sodipodi-0.dtd"
   xmlns:inkscape="http://www.inkscape.org/namespaces/inkscape"
   version="1.1"
   id="Layer_1"
   x="0px"
   y="0px"
   width="214.2099"
   height="210"
   viewBox="-62.535 -0.002 214.20991 210"
   enable-background="new -62.535 -0.002 671.521 673.208"
   xml:space="preserve"
   sodipodi:docname="ChordMatrix.svg"
   inkscape:version="0.92.4 (5da689c313, 2019-01-14)"><metadata
   id="metadata461"><rdf:RDF><cc:Work
       rdf:about=""><dc:format>image/svg+xml</dc:format><dc:type
         rdf:resource="http://purl.org/dc/dcmitype/StillImage" /><dc:title /></cc:Work></rdf:RDF></metadata><defs
   id="defs459">
	

	

		
		
		
		
		
		
		
		
		
		
		
		
		
		
		
		
		
		
		
		
		
		
		
		
		
		
		
		
		
		
		
		
		
		
		
		
		
		
		
		
		
		
		
		
		
		
		
		
		
		
		
		
		
		
		
		
		
		
		
		
		
		
		
		
		
		
		
		
		
		
		
		
		
		
		
		
		
		
		
		
		
		
		
		
		
		
		
		
		
		
		
		
		
		
		
		
		
		
		
		
		
		
		
		
		
		
		
		
		
		
		
		
		
		
		
		
		
		
		
		
		
		
		
		
		
		
		
		
		
		
		
		
		
		
		
		
		
		
		
		
		
		
		
	</defs><sodipodi:namedview
   pagecolor="#ffffff"
   bordercolor="#666666"
   borderopacity="1"
   objecttolerance="10"
   gridtolerance="10"
   guidetolerance="10"
   inkscape:pageopacity="0"
   inkscape:pageshadow="2"
   inkscape:window-width="1747"
   inkscape:window-height="956"
   id="namedview457"
   showgrid="false"
   inkscape:zoom="2.8044824"
   inkscape:cx="154.72963"
   inkscape:cy="80.123834"
   inkscape:window-x="102"
   inkscape:window-y="41"
   inkscape:window-maximized="0"
   inkscape:current-layer="g2755"
   showguides="false" />

<g
   id="g2755"
   transform="matrix(0.65109228,0,0,0.65109228,-124.6031,-128.93767)"><rect
     height="320.20807"
     width="46.667706"
     y="199.19322"
     x="96.492615"
     style="fill:#ffffff;stroke:#000000;stroke-width:2.32685781"
     id="C" /><rect
     height="320.20807"
     width="46.667706"
     y="199.19322"
     x="143.16032"
     style="fill:#ffffff;stroke:#000000;stroke-width:2.32685781"
     id="D" /><rect
     height="320.20807"
     width="46.667706"
     y="199.19322"
     x="189.82803"
     style="fill:#ffffff;stroke:#000000;stroke-width:2.32685781"
     id="E" /><rect
     height="320.20807"
     width="46.667706"
     y="199.19322"
     x="236.49574"
     style="fill:#ffffff;stroke:#000000;stroke-width:2.32685781"
     id="F" /><rect
     height="320.20807"
     width="46.667706"
     y="199.19322"
     x="283.16345"
     style="fill:#ffffff;stroke:#000000;stroke-width:2.32685781"
     id="G" /><rect
     height="320.20807"
     width="46.667706"
     y="199.19322"
     x="329.83118"
     style="fill:#ffffff;stroke:#000000;stroke-width:2.32685781"
     id="A" /><rect
     height="320.20807"
     width="46.667706"
     y="199.19322"
     x="376.49887"
     style="fill:#ffffff;stroke:#000000;stroke-width:2.32685781"
     id="B" /><rect
     height="303.68478"
     width="26.340982"
     y="199.41649"
     x="125.76083"
     style="fill:#000000;stroke:#000000;stroke-width:2.7733891"
     id="Db"
     inkscape:label="" /><rect
     height="303.68478"
     width="26.340982"
     y="199.41649"
     x="181.14442"
     style="fill:#000000;stroke:#000000;stroke-width:2.7733891"
     id="Eb"
     inkscape:label="" /><rect
     height="303.68478"
     width="26.340982"
     y="199.41649"
     x="263.37555"
     style="fill:#000000;stroke:#000000;stroke-width:2.7733891"
     id="Gb"
     inkscape:label="" /><rect
     height="303.68478"
     width="26.340982"
     y="199.41649"
     x="316.05753"
     style="fill:#000000;stroke:#000000;stroke-width:2.7733891"
     id="Ab"
     inkscape:label="" /><rect
     height="303.68478"
     width="26.340982"
     y="199.41649"
     x="369.75262"
     style="fill:#000000;stroke:#000000;stroke-width:2.7733891"
     id="Bb"
     inkscape:label="" /></g><path
   style="fill:#969696;fill-opacity:1;stroke:#000000;stroke-width:0.65109223;stroke-opacity:1"
   d="m -52.246657,178.90944 c -6.297186,0.0484 -7.872511,9.59526 -2.250843,11.86463 3.717473,1.77196 9.239738,-1.06192 8.049636,-5.63602 -0.311682,-2.94954 -2.389579,-6.55319 -5.798793,-6.22861 z"
   id="C11"
   inkscape:connector-curvature="0" /><path
   style="fill:#969696;fill-opacity:1;stroke:#000000;stroke-width:0.65109223;stroke-opacity:1"
   d="m -52.198336,161.33377 c -6.092635,0.11124 -7.936215,9.02338 -2.810377,11.81122 3.727122,2.42016 9.601053,-0.45663 8.591362,-5.22273 -0.202198,-3.06212 -2.235408,-6.88224 -5.780985,-6.58849 z"
   id="C10"
   inkscape:connector-curvature="0" /><path
   style="fill:#969696;fill-opacity:1;stroke:#000000;stroke-width:0.65109223;stroke-opacity:1"
   d="m -52.194514,143.72884 c -6.42495,0.0723 -7.926891,9.93316 -2.177091,12.15457 3.837782,1.82717 9.106451,-1.30784 7.931375,-5.81532 -0.306621,-2.95239 -2.317445,-6.62415 -5.754284,-6.33925 z"
   id="C09"
   inkscape:connector-curvature="0" /><path
   style="fill:#969696;fill-opacity:1;stroke:#000000;stroke-width:0.65109223;stroke-opacity:1"
   d="m -52.232671,126.15697 c -6.27816,0.18771 -7.943229,9.81449 -2.26738,12.12279 3.762213,1.77213 9.336169,-1.11215 8.061091,-5.74284 -0.331758,-2.97203 -2.32974,-6.67526 -5.793711,-6.37995 z"
   id="C08"
   inkscape:connector-curvature="0" /><path
   style="fill:#969696;fill-opacity:1;stroke:#000000;stroke-width:0.65109223;stroke-opacity:1"
   d="m -52.237753,108.80511 c -5.648065,0.16155 -7.870548,8.11321 -3.285975,11.21354 3.581361,2.76252 10.1094,0.21698 9.078405,-4.78273 -0.23352,-3.03052 -2.300035,-6.75546 -5.79243,-6.43081 z"
   id="C07"
   inkscape:connector-curvature="0" /><path
   style="fill:#969696;fill-opacity:1;stroke:#000000;stroke-width:0.65109223;stroke-opacity:1"
   d="m -52.193243,90.939492 c -6.691251,0.145404 -7.922901,10.677718 -1.740911,12.555148 3.849825,1.49792 8.654888,-1.76589 7.505369,-6.08238 -0.306611,-2.988616 -2.265963,-6.753811 -5.764458,-6.472768 z"
   id="C06"
   inkscape:connector-curvature="0" /><path
   style="fill:#969696;fill-opacity:1;stroke:#000000;stroke-width:0.65109223;stroke-opacity:1"
   d="m -52.217404,73.616876 c -6.09861,0.152239 -7.993545,9.434848 -2.413624,11.789599 3.802911,1.881737 9.66651,-1.094803 8.120857,-5.844562 -0.434784,-2.817465 -2.429059,-6.235814 -5.707233,-5.945037 z"
   id="C05"
   inkscape:connector-curvature="0" /><path
   style="fill:#969696;fill-opacity:1;stroke:#000000;stroke-width:0.65109223;stroke-opacity:1"
   d="m -52.183069,55.964895 c -6.198601,0.07854 -7.964029,9.25659 -2.651428,11.900238 3.91167,2.382093 9.669828,-0.930195 8.38027,-5.708493 -0.323064,-2.920932 -2.345007,-6.485692 -5.728842,-6.191745 z"
   id="C04"
   inkscape:connector-curvature="0" /><path
   style="fill:#969696;fill-opacity:1;stroke:#000000;stroke-width:0.65109223;stroke-opacity:1"
   d="m -52.219945,38.657546 c -5.687619,0.127228 -7.874128,8.118222 -3.308875,11.227524 3.714595,2.863917 10.370325,0.02898 9.051703,-5.115905 -0.332031,-2.923284 -2.379048,-6.423438 -5.742828,-6.111619 z"
   id="C03"
   inkscape:connector-curvature="0" /><path
   style="fill:#969696;fill-opacity:1;stroke:#000000;stroke-width:0.65109223;stroke-opacity:1"
   d="m -52.18688,20.797014 c -6.457773,0.178689 -7.943954,10.103541 -2.170739,12.399996 3.86735,1.799532 9.144587,-1.376067 7.928834,-5.928499 -0.308501,-2.991072 -2.262089,-6.740864 -5.758095,-6.471497 z"
   id="C02"
   inkscape:connector-curvature="0" /><path
   style="fill:#969696;fill-opacity:1;stroke:#000000;stroke-width:0.65109223;stroke-opacity:1"
   d="m -52.223767,3.4896654 c -6.062007,0.144039 -7.924035,9.2473706 -2.468298,11.6827826 3.705818,1.965967 9.453833,-0.834614 8.202233,-5.4935996 -0.345093,-2.9090355 -2.359781,-6.491163 -5.733935,-6.189183 z"
   id="C01"
   inkscape:connector-curvature="0" /><path
   style="fill:#969696;fill-opacity:1;stroke:#000000;stroke-width:0.65109223;stroke-opacity:1"
   d="m -34.684966,178.90944 c -6.140862,0.0587 -7.913251,9.26829 -2.49501,11.75654 3.711509,1.96547 9.503214,-0.84077 8.295074,-5.52284 -0.314318,-2.96367 -2.388708,-6.55326 -5.800064,-6.2337 z"
   id="Db11"
   inkscape:connector-curvature="0"
   inkscape:label="" /><path
   style="fill:#969696;fill-opacity:1;stroke:#000000;stroke-width:0.65109223;stroke-opacity:1"
   d="m -34.630282,161.33377 c -6.212976,0.081 -7.935627,9.3023 -2.612001,11.93838 3.898524,2.29198 9.595908,-0.96712 8.357381,-5.70088 -0.320114,-2.9464 -2.332712,-6.5325 -5.74538,-6.2375 z"
   id="Db10"
   inkscape:connector-curvature="0"
   inkscape:label="" /><path
   style="fill:#969696;fill-opacity:1;stroke:#000000;stroke-width:0.65109223;stroke-opacity:1"
   d="m -34.637915,143.72884 c -6.319163,0.0824 -7.936331,9.64856 -2.375468,12.07318 3.839577,1.99147 9.346166,-1.12556 8.134833,-5.73521 -0.314454,-2.96975 -2.318116,-6.6228 -5.759365,-6.33797 z"
   id="Db09"
   inkscape:connector-curvature="0"
   inkscape:label="" /><path
   style="fill:#969696;fill-opacity:1;stroke:#000000;stroke-width:0.65109223;stroke-opacity:1"
   d="m -34.679884,126.15825 c -6.505096,0.17127 -7.895286,10.39147 -1.83246,12.27919 3.728267,1.44768 8.843226,-1.47212 7.637606,-5.87509 -0.32339,-2.97953 -2.328144,-6.71375 -5.805146,-6.4041 z"
   id="Db08"
   inkscape:connector-curvature="0"
   inkscape:label="" /><path
   style="fill:#969696;fill-opacity:1;stroke:#000000;stroke-width:0.65109223;stroke-opacity:1"
   d="m -34.679884,108.80638 c -5.890458,0.093 -7.865676,8.62849 -2.917194,11.44372 3.629084,2.42157 9.727295,-0.1999 8.713446,-5.018 -0.227608,-3.02851 -2.311092,-6.75683 -5.796252,-6.42572 z"
   id="Db07"
   inkscape:connector-curvature="0"
   inkscape:label="" /><path
   style="fill:#969696;fill-opacity:1;stroke:#000000;stroke-width:0.65109223;stroke-opacity:1"
   d="m -34.631552,90.939492 c -6.589023,0.149688 -7.920833,10.396618 -1.954554,12.487748 3.855978,1.63542 8.908819,-1.57584 7.720282,-6.016251 -0.305781,-2.994369 -2.269417,-6.742974 -5.765728,-6.471497 z"
   id="Db06"
   inkscape:connector-curvature="0"
   inkscape:label="" /><path
   style="fill:#969696;fill-opacity:1;stroke:#000000;stroke-width:0.65109223;stroke-opacity:1"
   d="m -34.663346,73.616876 c -6.288818,0.135156 -7.97831,9.897478 -2.052467,11.920576 3.855978,1.731639 9.174102,-1.465831 7.767323,-5.966646 -0.434112,-2.838937 -2.427779,-6.240538 -5.714856,-5.95393 z"
   id="Db05"
   inkscape:connector-curvature="0"
   inkscape:label="" /><path
   style="fill:#969696;fill-opacity:1;stroke:#000000;stroke-width:0.65109223;stroke-opacity:1"
   d="m -34.635374,55.966166 c -6.214541,0.07266 -7.92518,9.291292 -2.610731,11.923128 3.712653,2.158453 9.374211,-0.673533 8.394267,-5.315552 -0.195237,-3.052182 -2.22957,-6.909073 -5.783536,-6.607576 z"
   id="Db04"
   inkscape:connector-curvature="0"
   inkscape:label="" /><path
   style="fill:#969696;fill-opacity:1;stroke:#000000;stroke-width:0.65109223;stroke-opacity:1"
   d="m -34.678613,38.658816 c -5.920908,0.103425 -7.85505,8.662332 -2.895575,11.483126 3.583577,2.288706 9.672002,-0.176946 8.698179,-4.974743 -0.206409,-3.038206 -2.278185,-6.842839 -5.802604,-6.508383 z"
   id="Db03"
   inkscape:connector-curvature="0"
   inkscape:label="" /><path
   style="fill:#969696;fill-opacity:1;stroke:#000000;stroke-width:0.65109223;stroke-opacity:1"
   d="m -34.636645,20.798285 c -6.54193,0.180537 -7.933831,10.33852 -1.99143,12.444505 3.761657,1.711101 8.7465,-1.32237 7.78386,-5.681791 -0.212026,-3.077225 -2.183433,-7.042592 -5.79243,-6.762714 z"
   id="Db02"
   inkscape:connector-curvature="0"
   inkscape:label="" /><path
   style="fill:#969696;fill-opacity:1;stroke:#000000;stroke-width:0.65109223;stroke-opacity:1"
   d="m -34.67225,3.4896654 c -6.064139,0.1424325 -7.890467,9.2576706 -2.458124,11.6878646 3.691401,1.958061 9.433778,-0.824912 8.206044,-5.4643466 -0.329206,-2.923368 -2.35537,-6.525918 -5.74792,-6.223518 z"
   id="Db01"
   inkscape:connector-curvature="0"
   inkscape:label="" /><path
   style="fill:#969696;fill-opacity:1;stroke:#000000;stroke-width:0.65109223;stroke-opacity:1"
   d="m -17.122015,178.90944 c -6.189088,0.0638 -7.862778,9.31589 -2.461935,11.77434 3.712338,1.94517 9.457707,-0.86975 8.26328,-5.52792 -0.304584,-2.95038 -2.384865,-6.57421 -5.801345,-6.24642 z"
   id="D11"
   inkscape:connector-curvature="0"
   inkscape:label="" /><path
   style="fill:#969696;fill-opacity:1;stroke:#000000;stroke-width:0.65109223;stroke-opacity:1"
   d="m -17.058427,161.33249 c -6.203295,0.0783 -7.969279,9.261 -2.646325,11.90533 3.771894,2.30266 9.418836,-0.70702 8.410783,-5.36516 -0.222516,-3.03229 -2.243556,-6.82768 -5.764458,-6.54017 z"
   id="D10"
   inkscape:connector-curvature="0"
   inkscape:label="" /><path
   style="fill:#969696;fill-opacity:1;stroke:#000000;stroke-width:0.65109223;stroke-opacity:1"
   d="m -17.078776,143.72884 c -6.442506,0.0716 -7.926429,9.96506 -2.136393,12.1711 3.813926,1.79044 9.069102,-1.33207 7.902122,-5.81405 -0.306338,-2.9705 -2.315996,-6.64481 -5.765729,-6.35705 z"
   id="D09"
   inkscape:connector-curvature="0"
   inkscape:label="" /><path
   style="fill:#969696;fill-opacity:1;stroke:#000000;stroke-width:0.65109223;stroke-opacity:1"
   d="m -17.127097,126.15825 c -6.479823,0.16364 -7.868448,10.32877 -1.871887,12.27156 3.933657,1.63182 9.061678,-1.74727 7.643979,-6.21589 -0.421922,-2.87134 -2.423768,-6.37565 -5.772092,-6.05567 z"
   id="D08"
   inkscape:connector-curvature="0"
   inkscape:label="" /><path
   style="fill:#969696;fill-opacity:1;stroke:#000000;stroke-width:0.65109223;stroke-opacity:1"
   d="m -17.106748,108.80511 c -5.718993,0.12133 -7.870432,8.22201 -3.223668,11.26949 3.542333,2.57761 10.010763,0.19193 9.016098,-4.76747 -0.203668,-3.03328 -2.282941,-6.83444 -5.79243,-6.50202 z"
   id="D07"
   inkscape:connector-curvature="0"
   inkscape:label="" /><path
   style="fill:#969696;fill-opacity:1;stroke:#000000;stroke-width:0.65109223;stroke-opacity:1"
   d="m -17.072413,90.939492 c -6.578397,0.150371 -7.929348,10.396008 -1.950732,12.485208 3.859716,1.65197 8.914868,-1.56828 7.720272,-6.01244 -0.302883,-2.990191 -2.27893,-6.760961 -5.76954,-6.472768 z"
   id="D06"
   inkscape:connector-curvature="0"
   inkscape:label="" /><path
   style="fill:#969696;fill-opacity:1;stroke:#000000;stroke-width:0.65109223;stroke-opacity:1"
   d="m -17.101655,73.616876 c -6.210603,0.146863 -7.933632,9.654676 -2.236868,11.863362 3.805547,1.756776 9.480954,-1.267424 7.952994,-5.922147 -0.429807,-2.804445 -2.443812,-6.249506 -5.716126,-5.941215 z"
   id="D05"
   inkscape:connector-curvature="0"
   inkscape:label="" /><path
   style="fill:#969696;fill-opacity:1;stroke:#000000;stroke-width:0.65109223;stroke-opacity:1"
   d="m -17.064779,55.966166 c -6.18806,0.07151 -7.960995,9.244168 -2.65524,11.890063 3.771211,2.313948 9.441537,-0.70309 8.42478,-5.360061 -0.221235,-3.037377 -2.251106,-6.822501 -5.76954,-6.530002 z"
   id="D04"
   inkscape:connector-curvature="0"
   inkscape:label="" /><path
   style="fill:#969696;fill-opacity:1;stroke:#000000;stroke-width:0.65109223;stroke-opacity:1"
   d="m -17.104207,38.657546 c -5.799706,0.118996 -7.90146,8.421409 -3.079965,11.369946 3.614594,2.558209 9.885719,-0.0463 8.864772,-4.934055 -0.225288,-3.015443 -2.299678,-6.76052 -5.784807,-6.435891 z"
   id="D03"
   inkscape:connector-curvature="0"
   inkscape:label="" /><path
   style="fill:#969696;fill-opacity:1;stroke:#000000;stroke-width:0.65109223;stroke-opacity:1"
   d="m -17.071142,20.798285 c -6.599166,0.142422 -7.926261,10.443867 -1.913856,12.496648 3.85686,1.624728 8.857422,-1.61007 7.682125,-6.018789 -0.300762,-2.993697 -2.273323,-6.759354 -5.768269,-6.477859 z"
   id="D02"
   inkscape:connector-curvature="0"
   inkscape:label="" /><path
   style="fill:#969696;fill-opacity:1;stroke:#000000;stroke-width:0.65109223;stroke-opacity:1"
   d="m -17.109289,3.4896654 c -6.209962,0.1202145 -7.881835,9.5526366 -2.235586,11.7806946 3.859968,1.889507 9.371554,-1.281241 7.938997,-5.8878111 -0.420756,-2.815071 -2.438541,-6.2015415 -5.703411,-5.8928835 z"
   id="D01"
   inkscape:connector-curvature="0"
   inkscape:label="" /><path
   style="fill:#969696;fill-opacity:1;stroke:#000000;stroke-width:0.65109223;stroke-opacity:1"
   d="m 1.7431361,178.90944 c -6.0326491,0.0784 -7.8843131,8.99902 -2.69465696,11.6599 3.70622696,2.13632 9.71196446,-0.6291 8.49599096,-5.41348 -0.3032085,-2.95783 -2.393244,-6.57501 -5.801334,-6.24642 z"
   id="Eb11"
   inkscape:connector-curvature="0"
   inkscape:label="" /><path
   style="fill:#969696;fill-opacity:1;stroke:#000000;stroke-width:0.65109223;stroke-opacity:1"
   d="m 1.7990906,161.33377 c -5.9936731,0.0866 -7.9038436,8.72679 -3.0418185,11.68277 3.7338525,2.65508 9.874746,-0.26499 8.8113585,-5.14769 -0.2143995,-3.03611 -2.252481,-6.82605 -5.76954,-6.53508 z"
   id="Eb10"
   inkscape:connector-curvature="0"
   inkscape:label="" /><path
   style="fill:#969696;fill-opacity:1;stroke:#000000;stroke-width:0.65109223;stroke-opacity:1"
   d="m 1.7838236,143.72884 c -6.3185326,0.0824 -7.9236986,9.65328 -2.36910446,12.07445 3.82825796,1.97254 9.35207696,-1.11242 8.13483296,-5.73648 -0.3151785,-2.97367 -2.3205315,-6.62644 -5.7657285,-6.33797 z"
   id="Eb09"
   inkscape:connector-curvature="0"
   inkscape:label="" /><path
   style="fill:#969696;fill-opacity:1;stroke:#000000;stroke-width:0.65109223;stroke-opacity:1"
   d="m 1.7405951,126.15825 c -6.4526596,0.17484 -7.8975961,10.27829 -1.90114046,12.26266 3.93098996,1.63188 9.08631146,-1.71943 7.67068046,-6.20318 -0.425859,-2.88039 -2.414412,-6.37186 -5.76954,-6.05948 z"
   id="Eb08"
   inkscape:connector-curvature="0"
   inkscape:label="" /><path
   style="fill:#969696;fill-opacity:1;stroke:#000000;stroke-width:0.65109223;stroke-opacity:1"
   d="m 1.7469476,108.80638 c -5.8245181,0.10311 -7.8656756,8.48395 -3.025281,11.3903 3.576405,2.40564 9.80511,-0.0341 8.8291665,-4.88955 -0.202734,-3.03502 -2.2878135,-6.84179 -5.8038855,-6.50075 z"
   id="Eb07"
   inkscape:connector-curvature="0"
   inkscape:label="" /><path
   style="fill:#969696;fill-opacity:1;stroke:#000000;stroke-width:0.65109223;stroke-opacity:1"
   d="M 1.7965496,90.939492 C -4.900497,91.083815 -6.122855,101.61855 0.05818014,103.49591 3.8951216,104.9739 8.7229586,101.75921 7.5622676,97.419893 7.2563921,94.429997 5.2961471,90.656643 1.7965496,90.939492 Z"
   id="Eb06"
   inkscape:connector-curvature="0"
   inkscape:label="" /><path
   style="fill:#969696;fill-opacity:1;stroke:#000000;stroke-width:0.65109223;stroke-opacity:1"
   d="M 1.7647556,73.616876 C -4.1997275,73.779195 -6.164372,82.690545 -0.91209336,85.283132 2.8906811,87.424943 9.0632636,84.420063 7.4783411,79.547916 7.0430006,76.744994 5.0354006,73.311914 1.7647556,73.616876 Z"
   id="Eb05"
   inkscape:connector-curvature="0"
   inkscape:label="" /><path
   style="fill:#969696;fill-opacity:1;stroke:#000000;stroke-width:0.65109223;stroke-opacity:1"
   d="M 1.7914571,55.966166 C -4.418621,56.043026 -6.144107,65.258435 -0.81799236,67.891845 2.8806851,70.055276 8.5560926,67.222554 7.5775346,62.588999 7.3819826,59.528522 5.3514401,55.664742 1.7914571,55.966166 Z"
   id="Eb04"
   inkscape:connector-curvature="0"
   inkscape:label="" /><path
   style="fill:#969696;fill-opacity:1;stroke:#000000;stroke-width:0.65109223;stroke-opacity:1"
   d="m 1.7698376,38.657546 c -5.8941646,0.10122 -7.9251586,8.633121 -2.933721,11.460235 3.6235185,2.390304 9.6991125,-0.188265 8.710905,-4.997643 -0.2210985,-3.02862 -2.279907,-6.775324 -5.777184,-6.462592 z"
   id="Eb03"
   inkscape:connector-curvature="0"
   inkscape:label="" /><path
   style="fill:#969696;fill-opacity:1;stroke:#000000;stroke-width:0.65109223;stroke-opacity:1"
   d="M 1.7914571,20.798285 C -4.90455,20.937609 -6.107609,31.483442 0.05690964,33.348347 3.9107036,34.857039 8.7069986,31.586184 7.5609971,27.26724 7.2551321,24.28481 5.2881146,20.505219 1.7914571,20.798285 Z"
   id="Eb02"
   inkscape:connector-curvature="0"
   inkscape:label="" /><path
   style="fill:#969696;fill-opacity:1;stroke:#000000;stroke-width:0.65109223;stroke-opacity:1"
   d="M 1.7558516,3.4896654 C -4.2046625,3.6422199 -6.155888,12.523823 -0.86632386,15.096144 2.8182416,17.20193 8.7491981,14.426664 7.5037721,9.7157349 7.1730641,6.7994229 5.1489581,3.1788339 1.7558516,3.4896654 Z"
   id="Eb01"
   inkscape:connector-curvature="0"
   inkscape:label="" /><path
   style="fill:#969696;fill-opacity:1;stroke:#000000;stroke-width:0.65109223;stroke-opacity:1"
   d="m 19.315001,178.90944 c -6.178693,0.0589 -7.891915,9.29861 -2.478472,11.76798 3.718134,1.95727 9.477426,-0.86279 8.269632,-5.53428 -0.30765,-2.95484 -2.392551,-6.55131 -5.79116,-6.2337 z"
   id="E11"
   inkscape:connector-curvature="0"
   inkscape:label="" /><path
   style="fill:#969696;fill-opacity:1;stroke:#000000;stroke-width:0.65109223;stroke-opacity:1"
   d="m 19.364593,161.33377 c -6.112554,0.0891 -7.941318,9.04223 -2.801484,11.83792 3.697092,2.30701 9.564775,-0.47781 8.578657,-5.21383 -0.195909,-3.0591 -2.223102,-6.912 -5.777173,-6.62409 z"
   id="E10"
   inkscape:connector-curvature="0"
   inkscape:label="" /><path
   style="fill:#969696;fill-opacity:1;stroke:#000000;stroke-width:0.65109223;stroke-opacity:1"
   d="m 19.354418,143.72884 c -6.42181,0.0755 -7.943491,9.95093 -2.15293,12.16601 5.683503,2.6748 10.31246,-4.21349 6.981439,-8.97795 -0.878472,-1.8194 -2.68128,-3.42991 -4.828509,-3.18806 z"
   id="E09"
   inkscape:connector-curvature="0"
   inkscape:label="" /><path
   style="fill:#969696;fill-opacity:1;stroke:#000000;stroke-width:0.65109223;stroke-opacity:1"
   d="m 19.303556,126.15825 c -6.586691,0.17098 -7.863197,10.60124 -1.660795,12.33642 3.917298,1.4843 8.806161,-1.92479 7.430335,-6.27694 -0.421354,-2.87207 -2.420071,-6.37951 -5.76954,-6.05948 z"
   id="E08"
   inkscape:connector-curvature="0"
   inkscape:label="" /><path
   style="fill:#969696;fill-opacity:1;stroke:#000000;stroke-width:0.65109223;stroke-opacity:1"
   d="m 19.322624,108.80511 c -5.799643,0.10626 -7.892156,8.40731 -3.086328,11.35088 3.616988,2.55807 9.88953,-0.012 8.871135,-4.92389 -0.233037,-3.02677 -2.295657,-6.74451 -5.784807,-6.42699 z"
   id="E07"
   inkscape:connector-curvature="0"
   inkscape:label="" /><path
   style="fill:#969696;fill-opacity:1;stroke:#000000;stroke-width:0.65109223;stroke-opacity:1"
   d="m 19.364593,90.938211 c -6.579111,0.15896 -7.948731,10.391339 -1.959636,12.486489 3.861522,1.65379 8.917419,-1.5728 7.720272,-6.013711 -0.305918,-2.993477 -2.266551,-6.737577 -5.760636,-6.472778 z"
   id="E06"
   inkscape:connector-curvature="0"
   inkscape:label="" /><path
   style="fill:#969696;fill-opacity:1;stroke:#000000;stroke-width:0.65109223;stroke-opacity:1"
   d="m 19.325176,73.616876 c -5.963401,0.165648 -7.929106,9.07096 -2.674319,11.668786 3.798344,2.123699 9.97584,-0.85806 8.391716,-5.728842 -0.434343,-2.813884 -2.439098,-6.238837 -5.717397,-5.939944 z"
   id="E05"
   inkscape:connector-curvature="0"
   inkscape:label="" /><path
   style="fill:#969696;fill-opacity:1;stroke:#000000;stroke-width:0.65109223;stroke-opacity:1"
   d="m 19.362052,55.966166 c -6.198769,0.06437 -7.940436,9.238876 -2.665415,11.884981 3.751787,2.313297 9.424475,-0.661479 8.437506,-5.315551 -0.204571,-3.051101 -2.235723,-6.859125 -5.772091,-6.56943 z"
   id="E04"
   inkscape:connector-curvature="0"
   inkscape:label="" /><path
   style="fill:#969696;fill-opacity:1;stroke:#000000;stroke-width:0.65109223;stroke-opacity:1"
   d="m 19.322624,38.657546 c -5.801869,0.117411 -7.900745,8.418196 -3.081246,11.367405 3.614867,2.551867 9.887934,-0.0336 8.867324,-4.931514 -0.22974,-3.030353 -2.301096,-6.754293 -5.786078,-6.435891 z"
   id="E03"
   inkscape:connector-curvature="0"
   inkscape:label="" /><path
   style="fill:#969696;fill-opacity:1;stroke:#000000;stroke-width:0.65109223;stroke-opacity:1"
   d="m 19.355699,20.798285 c -6.600478,0.143745 -7.921084,10.450093 -1.910044,12.497919 3.852744,1.611624 8.84458,-1.597733 7.679574,-6.011156 -0.298032,-2.996248 -2.268483,-6.767113 -5.76953,-6.486763 z"
   id="E02"
   inkscape:connector-curvature="0"
   inkscape:label="" /><path
   style="fill:#969696;fill-opacity:1;stroke:#000000;stroke-width:0.65109223;stroke-opacity:1"
   d="M 19.318813,3.4896654 C 13.24555,3.6270474 11.410969,12.758351 16.870864,15.174978 20.566402,17.133197 26.28592,14.34488 25.066733,9.7144539 24.740288,6.7957899 22.7092,3.1833594 19.318813,3.4896654 Z"
   id="E01"
   inkscape:connector-curvature="0"
   inkscape:label="" /><path
   style="fill:#969696;fill-opacity:1;stroke:#000000;stroke-width:0.65109223;stroke-opacity:1"
   d="m 38.169967,178.90944 c -6.075184,0.0601 -7.872469,9.07816 -2.638702,11.68533 3.713881,2.09699 9.647977,-0.69027 8.441307,-5.43891 -0.312176,-2.96737 -2.385968,-6.5685 -5.802605,-6.24642 z"
   id="F11"
   inkscape:connector-curvature="0"
   inkscape:label="" /><path
   style="fill:#969696;fill-opacity:1;stroke:#000000;stroke-width:0.65109223;stroke-opacity:1"
   d="m 38.233555,161.33249 c -6.136357,0.0778 -7.950138,9.11999 -2.768419,11.85318 3.685363,2.23153 9.520087,-0.48011 8.5405,-5.22145 -0.196917,-3.05676 -2.216109,-6.92375 -5.772081,-6.63173 z"
   id="F10"
   inkscape:connector-curvature="0"
   inkscape:label="" /><path
   style="fill:#969696;fill-opacity:1;stroke:#000000;stroke-width:0.65109223;stroke-opacity:1"
   d="m 38.213206,143.72884 c -6.433864,0.076 -7.92792,9.98392 -2.122407,12.16983 3.824846,1.79898 9.047787,-1.33858 7.888136,-5.81278 -0.308501,-2.97075 -2.31104,-6.644 -5.765729,-6.35705 z"
   id="F09"
   inkscape:connector-curvature="0"
   inkscape:label="" /><path
   style="fill:#969696;fill-opacity:1;stroke:#000000;stroke-width:0.65109223;stroke-opacity:1"
   d="m 38.186505,126.15697 c -6.395687,0.17628 -7.931259,10.08879 -2.069004,12.20163 3.764817,1.62384 9.10119,-1.31082 7.861434,-5.82676 -0.334583,-2.95508 -2.331347,-6.68171 -5.79243,-6.37487 z"
   id="F08"
   inkscape:connector-curvature="0"
   inkscape:label="" /><path
   style="fill:#969696;fill-opacity:1;stroke:#000000;stroke-width:0.65109223;stroke-opacity:1"
   d="m 38.196679,108.80511 c -5.662618,0.13022 -7.88109,8.11758 -3.301252,11.21736 3.573979,2.74334 10.118839,0.23224 9.077145,-4.78528 -0.232155,-3.01109 -2.289767,-6.75269 -5.775893,-6.43208 z"
   id="F07"
   inkscape:connector-curvature="0"
   inkscape:label="" /><path
   style="fill:#969696;fill-opacity:1;stroke:#000000;stroke-width:0.65109223;stroke-opacity:1"
   d="m 38.228463,90.938211 c -6.469134,0.15939 -7.93716,10.104379 -2.178362,12.406369 3.862646,1.80664 9.172832,-1.37558 7.939008,-5.933591 -0.30555,-2.986137 -2.264304,-6.74457 -5.760646,-6.472778 z"
   id="F06"
   inkscape:connector-curvature="0"
   inkscape:label="" /><path
   style="fill:#969696;fill-opacity:1;stroke:#000000;stroke-width:0.65109223;stroke-opacity:1"
   d="m 38.196679,73.616876 c -5.909526,0.195657 -8.008822,9.022723 -2.707383,11.645907 3.701019,2.096472 9.734739,-0.600516 8.459115,-5.396948 -0.349114,-2.919556 -2.359444,-6.538224 -5.751732,-6.248959 z"
   id="F05"
   inkscape:connector-curvature="0"
   inkscape:label="" /><path
   style="fill:#969696;fill-opacity:1;stroke:#000000;stroke-width:0.65109223;stroke-opacity:1"
   d="m 38.218299,55.966166 c -6.120587,0.110964 -7.943481,9.128143 -2.735355,11.849376 3.689773,2.240206 9.489427,-0.5061 8.522692,-5.22018 -0.196098,-3.059396 -2.224015,-6.937046 -5.787337,-6.629196 z"
   id="F04"
   inkscape:connector-curvature="0"
   inkscape:label="" /><path
   style="fill:#969696;fill-opacity:1;stroke:#000000;stroke-width:0.65109223;stroke-opacity:1"
   d="m 38.180142,38.657546 c -5.66853,0.156975 -7.852919,8.122359 -3.287246,11.228794 3.570504,2.74763 10.101305,0.252263 9.083498,-4.767472 -0.226034,-3.036044 -2.29047,-6.782832 -5.796252,-6.461322 z"
   id="F03"
   inkscape:connector-curvature="0"
   inkscape:label="" /><path
   style="fill:#969696;fill-opacity:1;stroke:#000000;stroke-width:0.65109223;stroke-opacity:1"
   d="m 38.214477,20.798285 c -6.454266,0.197001 -7.935764,10.119648 -2.144027,12.407629 3.867434,1.781493 9.140072,-1.383574 7.918659,-5.936122 -0.307303,-2.984552 -2.271045,-6.763344 -5.774632,-6.471507 z"
   id="F02"
   inkscape:connector-curvature="0"
   inkscape:label="" /><path
   style="fill:#969696;fill-opacity:1;stroke:#000000;stroke-width:0.65109223;stroke-opacity:1"
   d="M 38.182683,3.4896654 C 32.096526,3.6252729 30.301834,12.77073 35.739816,15.181341 39.44199,17.13453 45.188703,14.320562 43.926802,9.6737664 43.582749,6.7608144 41.557078,3.1796319 38.182683,3.4896654 Z"
   id="F01"
   inkscape:connector-curvature="0"
   inkscape:label="" /><path
   style="fill:#969696;fill-opacity:1;stroke:#000000;stroke-width:0.65109223;stroke-opacity:1"
   d="m 54.43201,178.90944 c -6.286665,0.0476 -7.874464,9.5916 -2.257195,11.85954 3.717819,1.77607 9.235726,-1.06512 8.055988,-5.62966 -0.3171,-2.95208 -2.380108,-6.55143 -5.798793,-6.22988 z"
   id="Gb11"
   inkscape:connector-curvature="0"
   inkscape:label="" /><path
   style="fill:#969696;fill-opacity:1;stroke:#000000;stroke-width:0.65109223;stroke-opacity:1"
   d="m 54.495598,161.33249 c -6.117268,0.0797 -7.944394,9.03858 -2.81673,11.81758 3.751934,2.41974 9.620594,-0.50346 8.578647,-5.27868 -0.213675,-3.02665 -2.246359,-6.82538 -5.761917,-6.5389 z"
   id="Gb10"
   inkscape:connector-curvature="0"
   inkscape:label="" /><path
   style="fill:#969696;fill-opacity:1;stroke:#000000;stroke-width:0.65109223;stroke-opacity:1"
   d="m 54.475249,143.72884 c -6.411447,0.0752 -7.929621,9.93739 -2.165635,12.15584 3.834526,1.82842 9.096003,-1.30682 7.930093,-5.79879 -0.303975,-2.96826 -2.31189,-6.64053 -5.764458,-6.35705 z"
   id="Gb09"
   inkscape:connector-curvature="0"
   inkscape:label="" /><path
   style="fill:#969696;fill-opacity:1;stroke:#000000;stroke-width:0.65109223;stroke-opacity:1"
   d="m 54.437103,126.15825 c -6.346106,0.18487 -7.917441,10.01938 -2.10588,12.18891 3.794857,1.73717 9.1434,-1.32728 7.908484,-5.81532 -0.339118,-2.9726 -2.334465,-6.68385 -5.802604,-6.37359 z"
   id="Gb08"
   inkscape:connector-curvature="0"
   inkscape:label="" /><path
   style="fill:#969696;fill-opacity:1;stroke:#000000;stroke-width:0.65109223;stroke-opacity:1"
   d="m 54.448548,108.80511 c -5.893041,0.0979 -7.894824,8.64261 -2.918475,11.45515 3.774267,2.50724 9.935793,-0.43539 8.670217,-5.34734 -0.3274,-2.9249 -2.394336,-6.4294 -5.751742,-6.10781 z"
   id="Gb07"
   inkscape:connector-curvature="0"
   inkscape:label="" /><path
   style="fill:#969696;fill-opacity:1;stroke:#000000;stroke-width:0.65109223;stroke-opacity:1"
   d="m 54.490516,90.938211 c -6.703231,0.147368 -7.915729,10.678839 -1.747273,12.560239 3.843084,1.47946 8.66502,-1.7446 7.505368,-6.087461 -0.302736,-2.988269 -2.266918,-6.747846 -5.758095,-6.472778 z"
   id="Gb06"
   inkscape:connector-curvature="0"
   inkscape:label="" /><path
   style="fill:#969696;fill-opacity:1;stroke:#000000;stroke-width:0.65109223;stroke-opacity:1"
   d="m 54.437103,73.618146 c -6.061766,0.179529 -7.945308,9.366882 -2.435234,11.774343 3.826022,1.946543 9.704982,-1.114953 8.162816,-5.858559 -0.449327,-2.820573 -2.44523,-6.224505 -5.727582,-5.915784 z"
   id="Gb05"
   inkscape:connector-curvature="0"
   inkscape:label="" /><path
   style="fill:#969696;fill-opacity:1;stroke:#000000;stroke-width:0.65109223;stroke-opacity:1"
   d="m 54.760104,55.940735 c -7.15617,-0.583517 -8.113697,11.1697 -1.508189,12.530983 5.104691,1.754057 9.092024,-4.899226 6.194276,-9.098754 -0.843035,-1.792392 -2.545914,-3.557788 -4.686087,-3.432229 z"
   id="Gb04"
   inkscape:connector-curvature="0"
   inkscape:label="" /><path
   style="fill:#969696;fill-opacity:1;stroke:#000000;stroke-width:0.65109223;stroke-opacity:1"
   d="m 54.451089,38.657546 c -5.690717,0.127249 -7.857623,8.119188 -3.301232,11.227524 3.58007,2.748847 10.125759,0.233079 9.084768,-4.792904 -0.234066,-3.032032 -2.294344,-6.74646 -5.783536,-6.43462 z"
   id="Gb03"
   inkscape:connector-curvature="0"
   inkscape:label="" /><path
   style="fill:#969696;fill-opacity:1;stroke:#000000;stroke-width:0.65109223;stroke-opacity:1"
   d="m 54.489235,20.797014 c -6.560788,0.1682 -7.9485,10.38744 -1.957084,12.478841 3.858781,1.657404 8.916138,-1.574916 7.717731,-6.009885 -0.304878,-2.986442 -2.266404,-6.739331 -5.760647,-6.468956 z"
   id="Gb02"
   inkscape:connector-curvature="0"
   inkscape:label="" /><path
   style="fill:#969696;fill-opacity:1;stroke:#000000;stroke-width:0.65109223;stroke-opacity:1"
   d="m 54.444726,3.4896654 c -5.954792,0.154035 -7.921589,9.0158876 -2.63361,11.6026566 3.707445,2.112296 9.649804,-0.660114 8.377729,-5.4109326 -0.342478,-2.917761 -2.368159,-6.5002665 -5.744119,-6.191724 z"
   id="Gb01"
   inkscape:connector-curvature="0"
   inkscape:label="" /><path
   style="fill:#969696;fill-opacity:1;stroke:#000000;stroke-width:0.65109223;stroke-opacity:1"
   d="m 72.003876,178.90944 c -6.048431,0.0708 -7.898573,8.99482 -2.703561,11.6599 3.705156,2.14548 9.725866,-0.63641 8.494731,-5.4262 -0.309309,-2.94655 -2.385222,-6.55345 -5.79117,-6.2337 z"
   id="G11"
   inkscape:connector-curvature="0"
   inkscape:label="" /><path
   style="fill:#969696;fill-opacity:1;stroke:#000000;stroke-width:0.65109223;stroke-opacity:1"
   d="m 72.049656,161.33377 c -6.120587,0.0861 -7.925022,9.06139 -2.790029,11.84428 3.695895,2.32118 9.545802,-0.50108 8.571014,-5.20748 -0.194754,-3.06252 -2.217852,-6.93415 -5.780985,-6.6368 z"
   id="G10"
   inkscape:connector-curvature="0"
   inkscape:label="" /><path
   style="fill:#969696;fill-opacity:1;stroke:#000000;stroke-width:0.65109223;stroke-opacity:1"
   d="m 72.03694,143.72884 c -6.442275,0.0709 -7.933012,9.99016 -2.121136,12.17618 3.824656,1.78418 9.039219,-1.34656 7.888135,-5.81913 -0.308101,-2.97113 -2.313486,-6.64556 -5.766999,-6.35705 z"
   id="G09"
   inkscape:connector-curvature="0"
   inkscape:label="" /><path
   style="fill:#969696;fill-opacity:1;stroke:#000000;stroke-width:0.65109223;stroke-opacity:1"
   d="m 71.98989,126.15825 c -6.391623,0.17348 -7.895223,10.10769 -2.038481,12.2067 3.741087,1.60373 9.087036,-1.29347 7.853801,-5.8026 -0.323264,-2.98328 -2.33352,-6.7205 -5.81532,-6.4041 z"
   id="G08"
   inkscape:connector-curvature="0"
   inkscape:label="" /><path
   style="fill:#969696;fill-opacity:1;stroke:#000000;stroke-width:0.65109223;stroke-opacity:1"
   d="m 72.025495,108.80384 c -5.843407,0.0793 -7.911666,8.50479 -3.032925,11.40302 3.572163,2.38402 9.793781,-0.0446 8.810099,-4.89973 -0.210284,-3.04335 -2.270741,-6.81553 -5.777174,-6.50329 z"
   id="G07"
   inkscape:connector-curvature="0"
   inkscape:label="" /><path
   style="fill:#969696;fill-opacity:1;stroke:#000000;stroke-width:0.65109223;stroke-opacity:1"
   d="m 72.053478,90.938211 c -6.589149,0.160671 -7.928445,10.404459 -1.952013,12.491569 3.880989,1.65773 8.917387,-1.61447 7.708837,-6.051855 -0.313015,-2.971795 -2.277607,-6.717491 -5.756824,-6.439714 z"
   id="G06"
   inkscape:connector-curvature="0"
   inkscape:label="" /><path
   style="fill:#969696;fill-opacity:1;stroke:#000000;stroke-width:0.65109223;stroke-opacity:1"
   d="m 72.011509,73.616876 c -6.204324,0.137445 -7.925505,9.643882 -2.248302,11.855728 3.804581,1.771466 9.500369,-1.255852 7.968251,-5.914513 -0.431214,-2.808488 -2.444159,-6.249684 -5.719949,-5.941215 z"
   id="G05"
   inkscape:connector-curvature="0"
   inkscape:label="" /><path
   style="fill:#969696;fill-opacity:1;stroke:#000000;stroke-width:0.65109223;stroke-opacity:1"
   d="m 72.052197,55.966166 c -6.116838,0.08505 -7.9235,9.04344 -2.798933,11.826486 3.694257,2.324689 9.554433,-0.477677 8.577377,-5.201102 -0.198293,-3.066808 -2.222,-6.918817 -5.778444,-6.625384 z"
   id="G04"
   inkscape:connector-curvature="0"
   inkscape:label="" /><path
   style="fill:#969696;fill-opacity:1;stroke:#000000;stroke-width:0.65109223;stroke-opacity:1"
   d="m 72.021684,38.657546 c -5.88504,0.10143 -7.932624,8.611785 -2.946447,11.451342 3.643626,2.467542 9.719619,-0.229908 8.722339,-5.015451 -0.22995,-3.026562 -2.295594,-6.747647 -5.775892,-6.435891 z"
   id="G03"
   inkscape:connector-curvature="0"
   inkscape:label="" /><path
   style="fill:#969696;fill-opacity:1;stroke:#000000;stroke-width:0.65109223;stroke-opacity:1"
   d="m 72.047115,20.798285 c -6.566658,0.155515 -7.908296,10.317888 -2.001605,12.473758 3.898293,1.723428 8.962706,-1.58572 7.764792,-6.028963 -0.314233,-2.98599 -2.277639,-6.727907 -5.763187,-6.444795 z"
   id="G02"
   inkscape:connector-curvature="0"
   inkscape:label="" /><path
   style="fill:#969696;fill-opacity:1;stroke:#000000;stroke-width:0.65109223;stroke-opacity:1"
   d="m 72.007687,3.4896654 c -6.087753,0.1331925 -7.873236,9.2816106 -2.444127,11.6942276 3.716948,1.955541 9.444908,-0.860192 8.186976,-5.5203011 -0.3465,-2.90346 -2.365912,-6.4814715 -5.742849,-6.1739265 z"
   id="G01"
   inkscape:connector-curvature="0"
   inkscape:label="" /><path
   style="fill:#969696;fill-opacity:1;stroke:#000000;stroke-width:0.65109223;stroke-opacity:1"
   d="m 89.582094,178.90689 c -6.028722,0.0447 -7.947954,8.97158 -2.742978,11.63446 3.753928,2.23955 9.740944,-0.61345 8.513799,-5.42873 -0.315588,-2.93633 -2.381222,-6.50614 -5.770821,-6.20573 z"
   id="Ab11"
   inkscape:connector-curvature="0"
   inkscape:label="" /><path
   style="fill:#969696;fill-opacity:1;stroke:#000000;stroke-width:0.65109223;stroke-opacity:1"
   d="m 89.603713,161.33377 c -6.009328,0.11788 -7.923321,8.83567 -2.951529,11.73364 3.66723,2.4341 9.749145,-0.24861 8.741418,-5.10192 -0.194124,-3.05884 -2.22684,-6.9403 -5.789889,-6.63172 z"
   id="Ab10"
   inkscape:connector-curvature="0"
   inkscape:label="" /><path
   style="fill:#969696;fill-opacity:1;stroke:#000000;stroke-width:0.65109223;stroke-opacity:1"
   d="m 89.592279,143.73011 c -6.530475,0.076 -7.896515,10.22396 -1.935476,12.23214 3.813212,1.65986 8.84982,-1.49161 7.710098,-5.87891 -0.307787,-2.97243 -2.320154,-6.65059 -5.774622,-6.35323 z"
   id="Ab09"
   inkscape:connector-curvature="0"
   inkscape:label="" /><path
   style="fill:#969696;fill-opacity:1;stroke:#000000;stroke-width:0.65109223;stroke-opacity:1"
   d="m 89.574471,126.15825 c -6.374246,0.17103 -7.94808,10.07297 -2.080449,12.19526 3.891142,1.70774 9.302338,-1.49541 7.834722,-6.11162 -0.414057,-2.87169 -2.404784,-6.39002 -5.754273,-6.08364 z"
   id="Ab08"
   inkscape:connector-curvature="0"
   inkscape:label="" /><path
   style="fill:#969696;fill-opacity:1;stroke:#000000;stroke-width:0.65109223;stroke-opacity:1"
   d="m 89.566837,108.80511 c -5.858349,0.13942 -7.89852,8.61657 -2.919735,11.44371 3.777333,2.53349 9.954872,-0.42015 8.679111,-5.33972 -0.327663,-2.91992 -2.394787,-6.43113 -5.759376,-6.10399 z"
   id="Ab07"
   inkscape:connector-curvature="0"
   inkscape:label="" /><path
   style="fill:#969696;fill-opacity:1;stroke:#000000;stroke-width:0.65109223;stroke-opacity:1"
   d="m 89.610076,90.939492 c -6.57595,0.154151 -7.931238,10.395828 -1.952013,12.485208 3.857385,1.64412 8.90421,-1.58203 7.719012,-6.01244 -0.307314,-2.987387 -2.267989,-6.758515 -5.766999,-6.472768 z"
   id="Ab06"
   inkscape:connector-curvature="0"
   inkscape:label="" /><path
   style="fill:#969696;fill-opacity:1;stroke:#000000;stroke-width:0.65109223;stroke-opacity:1"
   d="m 89.583364,73.616876 c -5.967958,0.194995 -8.014429,9.165324 -2.598004,11.701861 3.800538,2.04854 9.879807,-0.918351 8.31033,-5.755564 -0.430731,-2.808761 -2.437449,-6.246513 -5.712326,-5.946297 z"
   id="Ab05"
   inkscape:connector-curvature="0"
   inkscape:label="" /><path
   style="fill:#969696;fill-opacity:1;stroke:#000000;stroke-width:0.65109223;stroke-opacity:1"
   d="m 89.607525,55.966166 c -6.17147,0.105346 -7.953603,9.225384 -2.659041,11.887522 3.757866,2.315702 9.424086,-0.680442 8.437485,-5.321914 -0.206976,-3.0494 -2.244554,-6.866129 -5.778444,-6.565608 z"
   id="Ab04"
   inkscape:connector-curvature="0"
   inkscape:label="" /><path
   style="fill:#969696;fill-opacity:1;stroke:#000000;stroke-width:0.65109223;stroke-opacity:1"
   d="m 89.587186,38.657546 c -5.682768,0.126388 -7.889574,8.116447 -3.308875,11.227524 3.581917,2.745928 10.122567,0.236848 9.083497,-4.794174 -0.232501,-3.021333 -2.296224,-6.74435 -5.774622,-6.43335 z"
   id="Ab03"
   inkscape:connector-curvature="0"
   inkscape:label="" /><path
   style="fill:#969696;fill-opacity:1;stroke:#000000;stroke-width:0.65109223;stroke-opacity:1"
   d="m 89.606265,20.798285 c -6.430358,0.201894 -7.931837,10.057866 -2.194899,12.389832 3.713745,1.732962 8.999697,-1.110848 7.992411,-5.595324 -0.214484,-3.093437 -2.168534,-7.068296 -5.797512,-6.794508 z"
   id="Ab02"
   inkscape:connector-curvature="0"
   inkscape:label="" /><path
   style="fill:#969696;fill-opacity:1;stroke:#000000;stroke-width:0.65109223;stroke-opacity:1"
   d="m 89.570649,3.4896654 c -5.837003,0.160251 -7.878843,8.7105576 -2.866332,11.4780326 3.67878,2.305338 9.919654,-0.411842 8.611711,-5.2875791 C 94.972206,6.7577484 92.947302,3.1839894 89.570649,3.4896654 Z"
   id="Ab01"
   inkscape:connector-curvature="0"
   inkscape:label="" /><path
   style="fill:#969696;fill-opacity:1;stroke:#000000;stroke-width:0.65109223;stroke-opacity:1"
   d="m 107.12853,178.91071 c -6.15293,0.0536 -7.916382,9.26445 -2.5039,11.75527 3.71382,1.96061 9.50016,-0.83758 8.29506,-5.5203 -0.31203,-2.94971 -2.38082,-6.55618 -5.79116,-6.23497 z"
   id="A11"
   inkscape:connector-curvature="0"
   inkscape:label="" /><path
   style="fill:#969696;fill-opacity:1;stroke:#000000;stroke-width:0.65109223;stroke-opacity:1"
   d="m 107.17812,161.33377 c -5.95955,0.11764 -7.945361,8.6974 -3.05963,11.65734 3.77865,2.74332 9.89209,-0.27741 8.82155,-5.17567 -0.23236,-3.02597 -2.26345,-6.76808 -5.76192,-6.48167 z"
   id="A10"
   inkscape:connector-curvature="0"
   inkscape:label="" /><path
   style="fill:#969696;fill-opacity:1;stroke:#000000;stroke-width:0.65109223;stroke-opacity:1"
   d="m 107.15142,143.73011 c -6.42218,0.0758 -7.914597,9.94053 -2.14531,12.15457 3.82925,1.8252 9.08591,-1.31182 7.92121,-5.80642 -0.31071,-2.9768 -2.32144,-6.64268 -5.7759,-6.34815 z"
   id="A09"
   inkscape:connector-curvature="0"
   inkscape:label="" /><path
   style="fill:#969696;fill-opacity:1;stroke:#000000;stroke-width:0.65109223;stroke-opacity:1"
   d="m 107.12089,126.15825 c -6.24377,0.21149 -7.926529,9.79099 -2.27627,12.11768 3.75908,1.78191 9.33989,-1.08661 8.08524,-5.71358 -0.32261,-2.98248 -2.33336,-6.71854 -5.80897,-6.4041 z"
   id="A08"
   inkscape:connector-curvature="0"
   inkscape:label="" /><path
   style="fill:#969696;fill-opacity:1;stroke:#000000;stroke-width:0.65109223;stroke-opacity:1"
   d="m 107.13107,108.80511 c -5.6873,0.13281 -7.880282,8.17941 -3.24656,11.2288 3.41739,2.50428 9.77078,0.50139 9.05807,-4.39996 -0.0944,-3.14475 -2.1658,-7.15037 -5.81151,-6.82884 z"
   id="A07"
   inkscape:connector-curvature="0"
   inkscape:label="" /><path
   style="fill:#969696;fill-opacity:1;stroke:#000000;stroke-width:0.65109223;stroke-opacity:1"
   d="m 107.17176,90.939492 c -6.57608,0.15666 -7.934265,10.394028 -1.95074,12.485208 3.86057,1.6453 8.90187,-1.58009 7.71775,-6.013711 -0.30484,-2.98074 -2.27179,-6.759207 -5.76701,-6.471497 z"
   id="A06"
   inkscape:connector-curvature="0"
   inkscape:label="" /><path
   style="fill:#969696;fill-opacity:1;stroke:#000000;stroke-width:0.65109223;stroke-opacity:1"
   d="m 107.13361,73.618146 c -5.95084,0.19236 -7.928823,9.071234 -2.66286,11.668797 3.80154,2.123762 9.96449,-0.864265 8.38535,-5.728852 -0.43531,-2.816174 -2.44318,-6.248939 -5.72249,-5.939945 z"
   id="A05"
   inkscape:connector-curvature="0"
   inkscape:label="" /><path
   style="fill:#969696;fill-opacity:1;stroke:#000000;stroke-width:0.65109223;stroke-opacity:1"
   d="m 107.16032,55.966166 c -6.0818,0.112612 -7.914709,9.012948 -2.80529,11.793421 3.75935,2.450543 9.6216,-0.506562 8.59136,-5.260878 -0.22435,-3.049977 -2.25253,-6.831552 -5.78607,-6.532543 z"
   id="A04"
   inkscape:connector-curvature="0"
   inkscape:label="" /><path
   style="fill:#969696;fill-opacity:1;stroke:#000000;stroke-width:0.65109223;stroke-opacity:1"
   d="m 107.13107,38.658816 c -5.66169,0.154182 -7.862506,8.110473 -3.29743,11.219891 3.57952,2.74134 10.12931,0.250131 9.08859,-4.786541 -0.22857,-3.018613 -2.2987,-6.762808 -5.79116,-6.43335 z"
   id="A03"
   inkscape:connector-curvature="0"
   inkscape:label="" /><path
   style="fill:#969696;fill-opacity:1;stroke:#000000;stroke-width:0.65109223;stroke-opacity:1"
   d="m 107.17812,20.797014 c -6.47026,0.160398 -7.93947,10.111563 -2.17201,12.402548 3.86655,1.806871 9.13782,-1.385307 7.93266,-5.924688 -0.30405,-2.992112 -2.26804,-6.75087 -5.76065,-6.47786 z"
   id="A02"
   inkscape:connector-curvature="0"
   inkscape:label="" /><path
   style="fill:#969696;fill-opacity:1;stroke:#000000;stroke-width:0.65109223;stroke-opacity:1"
   d="m 107.13234,3.4896654 c -6.19576,0.137823 -7.878497,9.5512616 -2.23432,11.7819656 3.69749,1.786711 9.205,-1.028738 7.98097,-5.5762451 -0.33545,-2.911293 -2.36552,-6.51945 -5.74665,-6.2057205 z"
   id="A01"
   inkscape:connector-curvature="0"
   inkscape:label="" /><path
   style="fill:#969696;fill-opacity:1;stroke:#000000;stroke-width:0.65109223;stroke-opacity:1"
   d="m 124.68259,178.90944 c -6.0769,0.0676 -7.87647,9.06698 -2.6438,11.68279 3.70875,2.09236 9.66155,-0.66684 8.44386,-5.43765 -0.30776,-2.96056 -2.38296,-6.56564 -5.80006,-6.24514 z"
   id="Bb11"
   inkscape:connector-curvature="0"
   inkscape:label="" /><path
   style="fill:#969696;fill-opacity:1;stroke:#000000;stroke-width:0.65109223;stroke-opacity:1"
   d="m 124.73091,161.33377 c -5.9813,0.12124 -7.90834,8.72989 -3.02783,11.68786 3.73388,2.64322 9.86027,-0.27054 8.80627,-5.1477 -0.2229,-3.04055 -2.24877,-6.83859 -5.77844,-6.54016 z"
   id="Bb10"
   inkscape:connector-curvature="0"
   inkscape:label="" /><path
   style="fill:#969696;fill-opacity:1;stroke:#000000;stroke-width:0.65109223;stroke-opacity:1"
   d="m 124.72582,143.72884 c -6.31683,0.0788 -7.92507,9.65194 -2.37292,12.07191 3.83018,1.9743 9.34366,-1.10244 8.13739,-5.72503 -0.307,-2.97045 -2.32353,-6.63053 -5.76447,-6.34688 z"
   id="Bb09"
   inkscape:connector-curvature="0"
   inkscape:label="" /><path
   style="fill:#969696;fill-opacity:1;stroke:#000000;stroke-width:0.65109223;stroke-opacity:1"
   d="m 124.70548,126.15697 c -6.36725,0.1799 -7.96175,10.08717 -2.07155,12.20163 3.74532,1.61608 9.09038,-1.27678 7.8589,-5.79497 -0.3262,-2.97781 -2.31455,-6.69707 -5.78735,-6.40666 z"
   id="Bb08"
   inkscape:connector-curvature="0"
   inkscape:label="" /><path
   style="fill:#969696;fill-opacity:1;stroke:#000000;stroke-width:0.65109223;stroke-opacity:1"
   d="m 124.6953,108.80511 c -5.65248,0.15145 -7.87149,8.10575 -3.29743,11.20973 3.57113,2.76658 10.08826,0.23663 9.08732,-4.7484 -0.2175,-3.03601 -2.2915,-6.78256 -5.78989,-6.46133 z"
   id="Bb07"
   inkscape:connector-curvature="0"
   inkscape:label="" /><path
   style="fill:#969696;fill-opacity:1;stroke:#000000;stroke-width:0.65109223;stroke-opacity:1"
   d="m 124.7271,90.939492 c -6.67679,0.14175 -7.89061,10.609258 -1.78288,12.552608 3.87675,1.57093 8.7012,-1.75939 7.55623,-6.07984 -0.30489,-2.98765 -2.27031,-6.761518 -5.77335,-6.472768 z"
   id="Bb06"
   inkscape:connector-curvature="0"
   inkscape:label="" /><path
   style="fill:#969696;fill-opacity:1;stroke:#000000;stroke-width:0.65109223;stroke-opacity:1"
   d="m 124.6953,73.618146 c -6.18819,0.176505 -7.97966,9.68709 -2.20125,11.870985 3.81236,1.732511 9.45219,-1.280223 7.92374,-5.941215 -0.4407,-2.812897 -2.44302,-6.238911 -5.72249,-5.92977 z"
   id="Bb05"
   inkscape:connector-curvature="0"
   inkscape:label="" /><path
   style="fill:#969696;fill-opacity:1;stroke:#000000;stroke-width:0.65109223;stroke-opacity:1"
   d="m 124.72329,55.966166 c -6.16936,0.106302 -7.94973,9.228712 -2.64762,11.888793 3.75956,2.314189 9.43475,-0.681513 8.43495,-5.337171 -0.21731,-3.044034 -2.25121,-6.855146 -5.78733,-6.551622 z"
   id="Bb04"
   inkscape:connector-curvature="0"
   inkscape:label="" /><path
   style="fill:#969696;fill-opacity:1;stroke:#000000;stroke-width:0.65109223;stroke-opacity:1"
   d="m 124.69149,38.657546 c -5.90096,0.130126 -7.87952,8.644503 -2.91338,11.464057 3.6397,2.412218 9.71308,-0.223009 8.70708,-5.026896 -0.23343,-3.030163 -2.29562,-6.758314 -5.7937,-6.437161 z"
   id="Bb03"
   inkscape:connector-curvature="0"
   inkscape:label="" /><path
   style="fill:#969696;fill-opacity:1;stroke:#000000;stroke-width:0.65109223;stroke-opacity:1"
   d="m 124.73981,20.797014 c -6.59183,0.158225 -7.92232,10.424621 -1.93166,12.490286 3.85733,1.627132 8.86941,-1.595433 7.6923,-6.012426 -0.30657,-2.987807 -2.26286,-6.757643 -5.76064,-6.47786 z"
   id="Bb02"
   inkscape:connector-curvature="0"
   inkscape:label="" /><path
   style="fill:#969696;fill-opacity:1;stroke:#000000;stroke-width:0.65109223;stroke-opacity:1"
   d="m 124.6953,3.4896654 c -5.97392,0.1516305 -7.90609,9.0315746 -2.62089,11.6064786 3.70762,2.11574 9.63172,-0.683361 8.365,-5.4172956 -0.34622,-2.917152 -2.36423,-6.494586 -5.74411,-6.189183 z"
   id="Bb01"
   inkscape:connector-curvature="0"
   inkscape:label="" /><path
   style="fill:#969696;fill-opacity:1;stroke:#000000;stroke-width:0.65109223;stroke-opacity:1"
   d="m 142.24555,178.90944 c -6.16619,0.049 -7.8792,9.29108 -2.48611,11.76036 3.71854,1.94545 9.49568,-0.82847 8.2849,-5.53048 -0.3171,-2.95208 -2.38012,-6.55143 -5.79879,-6.22988 z"
   id="B11"
   inkscape:connector-curvature="0"
   inkscape:label="" /><path
   style="fill:#969696;fill-opacity:1;stroke:#000000;stroke-width:0.65109223;stroke-opacity:1"
   d="m 142.30913,161.33249 c -5.986,0.0986 -7.92746,8.71736 -3.05073,11.68405 3.72494,2.64104 9.87581,-0.25444 8.81264,-5.14515 -0.21367,-3.02665 -2.24636,-6.82538 -5.76191,-6.5389 z"
   id="B10"
   inkscape:connector-curvature="0"
   inkscape:label="" /><path
   style="fill:#969696;fill-opacity:1;stroke:#000000;stroke-width:0.65109223;stroke-opacity:1"
   d="m 142.27861,143.72884 c -6.33033,0.10405 -7.94775,9.75032 -2.2979,12.09226 3.80313,1.86451 9.26009,-1.12295 8.07253,-5.73521 -0.3038,-2.97201 -2.31731,-6.64727 -5.77463,-6.35705 z"
   id="B09"
   inkscape:connector-curvature="0"
   inkscape:label="" /><path
   style="fill:#969696;fill-opacity:1;stroke:#000000;stroke-width:0.65109223;stroke-opacity:1"
   d="m 142.25954,126.15697 c -6.38098,0.18371 -7.92837,10.09251 -2.06519,12.20417 3.75081,1.60993 9.1108,-1.29429 7.85889,-5.82295 -0.33438,-2.9705 -2.327,-6.67921 -5.7937,-6.38122 z"
   id="B08"
   inkscape:connector-curvature="0"
   inkscape:label="" /><path
   style="fill:#969696;fill-opacity:1;stroke:#000000;stroke-width:0.65109223;stroke-opacity:1"
   d="m 142.30532,108.8013 c -5.75083,0.0896 -7.92683,8.23155 -3.25674,11.28856 3.54201,2.58884 9.99403,0.15456 9.00466,-4.77638 -0.20803,-3.01748 -2.24916,-6.80362 -5.74792,-6.51218 z"
   id="B07"
   inkscape:connector-curvature="0"
   inkscape:label="" /><path
   style="fill:#969696;fill-opacity:1;stroke:#000000;stroke-width:0.65109223;stroke-opacity:1"
   d="m 142.29896,90.939492 c -6.60352,0.156072 -7.92745,10.445148 -1.91386,12.501728 3.86263,1.61903 8.86018,-1.61932 7.67704,-6.031501 -0.3074,-2.985308 -2.26082,-6.750839 -5.76318,-6.470227 z"
   id="B06"
   inkscape:connector-curvature="0"
   inkscape:label="" /><path
   style="fill:#969696;fill-opacity:1;stroke:#000000;stroke-width:0.65109223;stroke-opacity:1"
   d="m 142.26335,73.616876 c -6.15659,0.167391 -7.97432,9.600202 -2.27628,11.832838 3.70173,1.762278 9.27115,-1.009449 8.03438,-5.583879 -0.34909,-2.932188 -2.35874,-6.53625 -5.7581,-6.248959 z"
   id="B05"
   inkscape:connector-curvature="0"
   inkscape:label="" /><path
   style="fill:#969696;fill-opacity:1;stroke:#000000;stroke-width:0.65109223;stroke-opacity:1"
   d="m 142.30913,55.964895 c -6.19012,0.08169 -7.96756,9.237071 -2.66031,11.892615 3.76483,2.299784 9.43309,-0.693357 8.42222,-5.35753 -0.21963,-3.028001 -2.24427,-6.825063 -5.76191,-6.535085 z"
   id="B04"
   inkscape:connector-curvature="0"
   inkscape:label="" /><path
   style="fill:#969696;fill-opacity:1;stroke:#000000;stroke-width:0.65109223;stroke-opacity:1"
   d="m 142.25318,38.658816 c -5.70813,0.154266 -7.88319,8.23221 -3.20587,11.28602 3.53842,2.573749 10.01371,0.181314 9.0072,-4.777637 -0.20676,-3.038332 -2.28367,-6.846283 -5.80133,-6.508383 z"
   id="B03"
   inkscape:connector-curvature="0"
   inkscape:label="" /><path
   style="fill:#969696;fill-opacity:1;stroke:#000000;stroke-width:0.65109223;stroke-opacity:1"
   d="m 142.30532,20.797014 c -6.56625,0.170877 -7.96382,10.386233 -1.95329,12.483933 3.86629,1.652795 8.88525,-1.586172 7.71138,-6.009885 -0.30853,-2.981769 -2.25974,-6.751678 -5.75809,-6.474048 z"
   id="B02"
   inkscape:connector-curvature="0"
   inkscape:label="" /><path
   style="fill:#969696;fill-opacity:1;stroke:#000000;stroke-width:0.65109223;stroke-opacity:1"
   d="m 142.25827,3.4896654 c -6.19263,0.1351035 -7.89477,9.5678516 -2.22542,11.7857766 3.70498,1.789347 9.19469,-1.057287 7.96952,-5.5940526 -0.34247,-2.917761 -2.36816,-6.5002665 -5.7441,-6.191724 z"
   id="B01"
   inkscape:connector-curvature="0"
   inkscape:label="" />




<rect
   style="opacity:1;fill:none;fill-opacity:1;stroke:#ff0000;stroke-width:0.98364615;stroke-miterlimit:4;stroke-dasharray:none;stroke-opacity:1"
   id="row01"
   width="212.82748"
   height="17.046501"
   x="-61.791039"
   y="0.74196327"
   ry="8.2793255"
   inkscape:label="" /><rect
   style="opacity:1;fill:none;fill-opacity:1;stroke:#ff0000;stroke-width:0.98364615;stroke-miterlimit:4;stroke-dasharray:none;stroke-opacity:1"
   id="row02"
   width="212.82748"
   height="17.046501"
   x="-61.791039"
   y="18.741962"
   ry="8.2793255"
   inkscape:label="" /><rect
   style="opacity:1;fill:none;fill-opacity:1;stroke:#ff0000;stroke-width:0.96943629;stroke-miterlimit:4;stroke-dasharray:none;stroke-opacity:1"
   id="row03"
   width="212.84169"
   height="16.556442"
   x="-61.798145"
   y="36.734856"
   ry="8.0413084"
   inkscape:label="" /><rect
   style="opacity:1;fill:none;fill-opacity:1;stroke:#ff0000;stroke-width:0.96174997;stroke-miterlimit:4;stroke-dasharray:none;stroke-opacity:1"
   id="row04"
   width="212.86638"
   height="16.293053"
   x="-61.81049"
   y="54.128117"
   ry="7.913383"
   inkscape:label="" /><rect
   style="opacity:1;fill:none;fill-opacity:1;stroke:#ff0000;stroke-width:0.97053713;stroke-miterlimit:4;stroke-dasharray:none;stroke-opacity:1"
   id="row05"
   width="212.82748"
   height="16.595171"
   x="-61.791039"
   y="71.193291"
   ry="8.0601187"
   inkscape:label="" /><rect
   style="opacity:1;fill:none;fill-opacity:1;stroke:#ff0000;stroke-width:0.98364615;stroke-miterlimit:4;stroke-dasharray:none;stroke-opacity:1"
   id="row06"
   width="212.82748"
   height="17.046501"
   x="-61.791039"
   y="88.741959"
   ry="8.2793255"
   inkscape:label="" /><rect
   style="opacity:1;fill:none;fill-opacity:1;stroke:#ff0000;stroke-width:0.96603233;stroke-miterlimit:4;stroke-dasharray:none;stroke-opacity:1"
   id="row07"
   width="212.84509"
   height="16.440113"
   x="-61.799847"
   y="106.73315"
   ry="7.9848089"
   inkscape:label="" /><rect
   style="opacity:1;fill:none;fill-opacity:1;stroke:#ff0000;stroke-width:0.96481788;stroke-miterlimit:4;stroke-dasharray:none;stroke-opacity:1"
   id="row08"
   width="212.8649"
   height="16.397278"
   x="-61.80975"
   y="124.07275"
   ry="7.9640045"
   inkscape:label="" /><rect
   style="opacity:1;fill:none;fill-opacity:1;stroke:#ff0000;stroke-width:0.98364615;stroke-miterlimit:4;stroke-dasharray:none;stroke-opacity:1"
   id="row09"
   width="212.82748"
   height="17.046501"
   x="-61.791039"
   y="141.41826"
   ry="8.2793255"
   inkscape:label="" /><rect
   style="opacity:1;fill:none;fill-opacity:1;stroke:#ff0000;stroke-width:0.9730078;stroke-miterlimit:4;stroke-dasharray:none;stroke-opacity:1"
   id="row10"
   width="212.83812"
   height="16.678938"
   x="-61.796356"
   y="159.36697"
   ry="8.1008034"
   inkscape:label="" /><rect
   style="opacity:1;fill:none;fill-opacity:1;stroke:#ff0000;stroke-width:0.95862174;stroke-miterlimit:4;stroke-dasharray:none;stroke-opacity:1"
   id="row11"
   width="212.84541"
   height="16.188831"
   x="-61.799999"
   y="176.97826"
   ry="7.8627634"
   inkscape:label="" /></svg>