<?xml version="1.0" encoding="UTF-8" standalone="no"?>
<!-- Created with Inkscape (http://www.inkscape.org/) -->

<svg
   xmlns:dc="http://purl.org/dc/elements/1.1/"
   xmlns:cc="http://creativecommons.org/ns#"
   xmlns:rdf="http://www.w3.org/1999/02/22-rdf-syntax-ns#"
   xmlns:svg="http://www.w3.org/2000/svg"
   xmlns="http://www.w3.org/2000/svg"
   xmlns:sodipodi="http://sodipodi.sourceforge.net/DTD/sodipodi-0.dtd"
   xmlns:inkscape="http://www.inkscape.org/namespaces/inkscape"
   width="206.375mm"
   height="206.375mm"
   viewBox="0 0 206.375 206.375"
   version="1.1"
   id="svg4557"
   inkscape:version="0.92.4 (5da689c313, 2019-01-14)"
   sodipodi:docname="CircleOfTriads.svg">
  <defs
     id="defs4551" />
  <sodipodi:namedview
     id="base"
     pagecolor="#ffffff"
     bordercolor="#666666"
     borderopacity="1.0"
     inkscape:pageopacity="0.0"
     inkscape:pageshadow="2"
     inkscape:zoom="0.7"
     inkscape:cx="269.35253"
     inkscape:cy="412.396"
     inkscape:document-units="mm"
     inkscape:current-layer="layer1"
     showgrid="false"
     inkscape:window-width="1920"
     inkscape:window-height="1016"
     inkscape:window-x="0"
     inkscape:window-y="27"
     inkscape:window-maximized="1" />
  <metadata
     id="metadata4554">
    <rdf:RDF>
      <cc:Work
         rdf:about="">
        <dc:format>image/svg+xml</dc:format>
        <dc:type
           rdf:resource="http://purl.org/dc/dcmitype/StillImage" />
        <dc:title />
      </cc:Work>
    </rdf:RDF>
  </metadata>
  <g
     inkscape:label="Capa 1"
     inkscape:groupmode="layer"
     id="layer1"
     transform="translate(-6.2153411,-30.341998)">
    <path
       style="vector-effect:none;fill:#cfcfcf;fill-opacity:1;stroke:#000000;stroke-width:0.52055222;stroke-linecap:butt;stroke-linejoin:miter;stroke-miterlimit:4;stroke-dasharray:none;stroke-dashoffset:0;stroke-opacity:1"
       d="m 103.84408,110.59495 c 3.27989,-0.86881 6.7563,-1.00736 10.09041,-0.3683 0.82682,-3.13534 1.6536,-6.27066 2.48041,-9.40598 -5.03503,-1.071189 -10.23334,-0.906875 -15.10308,0.39691 0.84355,3.12592 1.68902,6.25136 2.53259,9.37728 z"
       id="uC"
       inkscape:connector-curvature="0"
       inkscape:label="" />
    <path
       style="vector-effect:none;fill:#cfcfcf;fill-opacity:1;stroke:#000000;stroke-width:0.52055222;stroke-linecap:butt;stroke-linejoin:miter;stroke-miterlimit:4;stroke-dasharray:none;stroke-dashoffset:0;stroke-opacity:1"
       d="m 100.76903,99.207196 c 5.26433,-1.410262 10.86428,-1.555666 16.19155,-0.400167 0.58449,-3.07234 2.23039,-6.78887 2.17425,-9.472375 -6.81075,-1.507217 -14.11416,-1.336523 -20.89934,0.494442 0.843674,3.126263 1.689223,6.252033 2.53345,9.378143 z"
       id="vC"
       inkscape:connector-curvature="0"
       inkscape:label="" />
    <path
       style="vector-effect:none;fill:#cfcfcf;fill-opacity:1;stroke:#000000;stroke-width:0.52055222;stroke-linecap:butt;stroke-linejoin:miter;stroke-miterlimit:4;stroke-dasharray:none;stroke-dashoffset:0;stroke-opacity:1"
       d="m 97.692725,87.818742 c 7.249125,-1.946787 14.974985,-2.112145 22.292045,-0.426614 0.82408,-3.133566 1.64825,-6.267131 2.47235,-9.400674 -9.00017,-2.118042 -18.42936,-1.936454 -27.29639,0.450875 0.843472,3.125595 1.688858,6.250697 2.532321,9.376315 z"
       id="wC"
       inkscape:connector-curvature="0"
       inkscape:label="" />
    <path
       style="vector-effect:none;fill:#cfcfcf;fill-opacity:1;stroke:#000000;stroke-width:0.52055222;stroke-linecap:butt;stroke-linejoin:miter;stroke-miterlimit:4;stroke-dasharray:none;stroke-dashoffset:0;stroke-opacity:1"
       d="m 94.616934,76.43223 c 9.232816,-2.488605 19.084146,-2.663151 28.390096,-0.450286 0.80306,-3.118964 1.68008,-6.281077 2.43758,-9.373458 -10.99503,-2.645815 -22.45421,-2.458408 -33.36061,0.447594 0.843474,3.12561 1.688853,6.250692 2.532894,9.37615 z"
       id="xC"
       inkscape:connector-curvature="0"
       inkscape:label="" />
    <path
       style="vector-effect:none;fill:#cfcfcf;fill-opacity:1;stroke:#000000;stroke-width:0.52055222;stroke-linecap:butt;stroke-linejoin:miter;stroke-miterlimit:4;stroke-dasharray:none;stroke-dashoffset:0;stroke-opacity:1"
       d="m 91.541207,65.045706 c 11.237413,-3.009305 23.229333,-3.184975 34.535993,-0.428895 0.6433,-3.094838 2.02286,-6.625977 2.22238,-9.457867 -12.80537,-3.117434 -26.51453,-2.928362 -39.290928,0.50841 0.843653,3.126261 1.689206,6.252011 2.532851,9.37827 z"
       id="yC"
       inkscape:connector-curvature="0"
       inkscape:label="" />
    <path
       style="vector-effect:none;fill:#cfcfcf;fill-opacity:1;stroke:#000000;stroke-width:0.52055222;stroke-linecap:butt;stroke-linejoin:miter;stroke-miterlimit:4;stroke-dasharray:none;stroke-dashoffset:0;stroke-opacity:1"
       d="m 88.464896,53.657239 c 13.223094,-3.54634 27.343224,-3.737174 40.637414,-0.443988 0.86837,-3.446471 1.73667,-6.892928 2.60505,-10.339398 -15.04014,-4.002184 -31.14875,-3.918671 -46.118689,0.133931 0.959135,3.549707 1.918269,7.099417 2.876264,10.649434 z"
       id="zC"
       inkscape:connector-curvature="0"
       inkscape:label="" />
    <path
       style="vector-effect:none;fill:#cfcfcf;fill-opacity:1;stroke:#000000;stroke-width:0.52055222;stroke-linecap:butt;stroke-linejoin:miter;stroke-miterlimit:4;stroke-dasharray:none;stroke-dashoffset:0;stroke-opacity:1"
       d="m 115.72685,111.06739 c 3.27596,0.88616 6.35541,2.50632 8.9241,4.72645 2.28364,-2.30185 4.56726,-4.60372 6.85085,-6.90558 -3.77547,-3.40609 -8.36918,-5.89238 -13.27917,-7.20887 -0.83192,3.12932 -1.66385,6.25864 -2.49578,9.388 z"
       id="uG"
       inkscape:connector-curvature="0"
       inkscape:label="" />
    <path
       style="vector-effect:none;fill:#cfcfcf;fill-opacity:1;stroke:#000000;stroke-width:0.52055222;stroke-linecap:butt;stroke-linejoin:miter;stroke-miterlimit:4;stroke-dasharray:none;stroke-dashoffset:0;stroke-opacity:1"
       d="m 118.75668,99.665707 c 5.26334,1.413643 10.18785,4.085363 14.22246,7.751903 2.0332,-2.37106 5.35492,-4.77 6.61018,-7.12423 -5.17131,-4.723811 -11.53269,-8.201173 -18.33781,-10.015413 -0.83165,3.129255 -1.66321,6.258484 -2.49483,9.38774 z"
       id="vG"
       inkscape:connector-curvature="0"
       inkscape:label="" />
    <path
       style="vector-effect:none;fill:#cfcfcf;fill-opacity:1;stroke:#000000;stroke-width:0.52055222;stroke-linecap:butt;stroke-linejoin:miter;stroke-miterlimit:4;stroke-dasharray:none;stroke-dashoffset:0;stroke-opacity:1"
       d="m 121.78704,88.265991 c 7.25076,1.938943 14.02445,5.659439 19.51786,10.778132 2.28014,-2.30164 4.5603,-4.603266 6.84046,-6.904891 -6.69268,-6.307042 -14.95645,-10.878628 -23.86445,-13.260705 -0.83129,3.129137 -1.66263,6.258312 -2.49387,9.387464 z"
       id="wG"
       inkscape:connector-curvature="0"
       inkscape:label="" />
    <path
       style="vector-effect:none;fill:#cfcfcf;fill-opacity:1;stroke:#000000;stroke-width:0.52055222;stroke-linecap:butt;stroke-linejoin:miter;stroke-miterlimit:4;stroke-dasharray:none;stroke-dashoffset:0;stroke-opacity:1"
       d="m 124.81516,76.865809 c 9.23932,2.463753 17.85869,7.237469 24.81108,13.80812 2.25823,-2.288502 4.60553,-4.637718 6.80893,-6.889068 -8.05503,-7.689702 -18.31062,-13.42408 -29.12493,-16.305789 -0.83167,3.128919 -1.66335,6.257838 -2.49508,9.386737 z"
       id="xG"
       inkscape:connector-curvature="0"
       inkscape:label="" />
    <path
       style="vector-effect:none;fill:#cfcfcf;fill-opacity:1;stroke:#000000;stroke-width:0.52055222;stroke-linecap:butt;stroke-linejoin:miter;stroke-miterlimit:4;stroke-dasharray:none;stroke-dashoffset:0;stroke-opacity:1"
       d="m 127.84483,65.467358 c 11.2356,3.013439 21.70942,8.857785 30.12183,16.89967 2.10417,-2.358525 5.0672,-4.728324 6.65356,-7.080041 -9.61109,-9.161092 -21.4747,-15.773297 -34.28082,-19.208352 -0.83157,3.129578 -1.66305,6.259146 -2.49457,9.388723 z"
       id="yG"
       inkscape:connector-curvature="0"
       inkscape:label="" />
    <path
       style="vector-effect:none;fill:#cfcfcf;fill-opacity:1;stroke:#000000;stroke-width:0.52055222;stroke-linecap:butt;stroke-linejoin:miter;stroke-miterlimit:4;stroke-dasharray:none;stroke-dashoffset:0;stroke-opacity:1"
       d="m 130.8737,54.065928 c 13.22426,3.541885 25.54713,10.437619 35.41491,19.93708 2.47457,-2.550247 4.94914,-5.100456 7.42371,-7.650688 -11.02877,-10.987568 -24.96378,-18.953307 -40.00596,-22.946801 -0.94423,3.553474 -1.88841,7.106938 -2.83266,10.660409 z"
       id="zG"
       inkscape:connector-curvature="0"
       inkscape:label="" />
    <path
       style="vector-effect:none;fill:#cfcfcf;fill-opacity:1;stroke:#000000;stroke-width:0.52055222;stroke-linecap:butt;stroke-linejoin:miter;stroke-miterlimit:4;stroke-dasharray:none;stroke-dashoffset:0;stroke-opacity:1"
       d="m 125.78409,117.41863 c 2.39133,2.40718 4.25057,5.34797 5.36321,8.55555 3.12847,-0.85061 6.25653,-1.70278 9.38487,-2.55397 -1.51582,-4.72453 -4.25281,-9.23737 -7.89439,-12.88468 -2.28456,2.29437 -4.56913,4.58873 -6.85367,6.88314 z"
       id="uD"
       inkscape:connector-curvature="0"
       inkscape:label="" />
    <path
       style="vector-effect:none;fill:#cfcfcf;fill-opacity:1;stroke:#000000;stroke-width:0.52055222;stroke-linecap:butt;stroke-linejoin:miter;stroke-miterlimit:4;stroke-dasharray:none;stroke-dashoffset:0;stroke-opacity:1"
       d="m 134.10636,109.05977 c 3.85188,3.85598 6.78117,8.63227 8.44117,13.82555 2.94114,-1.02729 7.06037,-1.48009 9.28953,-2.85482 -2.11455,-6.67286 -5.85945,-12.8391 -10.87777,-17.85264 -2.2843,2.29394 -4.56862,4.58794 -6.85293,6.88191 z"
       id="vD"
       inkscape:connector-curvature="0"
       inkscape:label="" />
    <path
       style="vector-effect:none;fill:#cfcfcf;fill-opacity:1;stroke:#000000;stroke-width:0.52055222;stroke-linecap:butt;stroke-linejoin:miter;stroke-miterlimit:4;stroke-dasharray:none;stroke-dashoffset:0;stroke-opacity:1"
       d="m 142.4289,100.70189 c 5.31154,5.30445 9.31538,11.91449 11.51562,19.09439 3.12572,-0.85194 6.251,-1.70539 9.37644,-2.55804 -2.63087,-8.75418 -7.48744,-16.88527 -14.03809,-23.418501 -2.28466,2.294048 -4.56931,4.588123 -6.85396,6.882191 z"
       id="wD"
       inkscape:connector-curvature="0"
       inkscape:label="" />
    <path
       style="vector-effect:none;fill:#cfcfcf;fill-opacity:1;stroke:#000000;stroke-width:0.52055222;stroke-linecap:butt;stroke-linejoin:miter;stroke-miterlimit:4;stroke-dasharray:none;stroke-dashoffset:0;stroke-opacity:1"
       d="m 150.75145,92.34398 c 6.76941,6.754366 11.84739,15.19792 14.58424,24.3648 3.10216,-0.86395 6.27857,-1.68466 9.3349,-2.57543 -3.18197,-10.77905 -9.09191,-20.685454 -17.0662,-28.671326 -2.28432,2.293973 -4.56861,4.58795 -6.85294,6.881928 z"
       id="xD"
       inkscape:connector-curvature="0"
       inkscape:label="" />
    <path
       style="vector-effect:none;fill:#cfcfcf;fill-opacity:1;stroke:#000000;stroke-width:0.52055222;stroke-linecap:butt;stroke-linejoin:miter;stroke-miterlimit:4;stroke-dasharray:none;stroke-dashoffset:0;stroke-opacity:1"
       d="m 159.07302,83.986381 c 8.22368,8.229186 14.37136,18.528089 17.6383,29.699069 3.00183,-0.98984 6.74904,-1.56054 9.30129,-2.80321 -3.73437,-12.716962 -10.70514,-24.393168 -20.08564,-33.778057 -2.28464,2.294067 -4.56931,4.588133 -6.85395,6.882198 z"
       id="yD"
       inkscape:connector-curvature="0"
       inkscape:label="" />
    <path
       style="vector-effect:none;fill:#cfcfcf;fill-opacity:1;stroke:#000000;stroke-width:0.52055222;stroke-linecap:butt;stroke-linejoin:miter;stroke-miterlimit:4;stroke-dasharray:none;stroke-dashoffset:0;stroke-opacity:1"
       d="m 167.39558,75.628484 c 9.68362,9.679536 16.90645,21.815504 20.70356,34.976676 3.41784,-0.97135 6.83571,-1.94273 10.25356,-2.91408 -4.05431,-15.032921 -12.14875,-28.895782 -23.17464,-39.878805 -2.59415,2.605448 -5.18834,5.210869 -7.78245,7.816308 z"
       id="zD"
       inkscape:connector-curvature="0"
       inkscape:label="" />
    <path
       style="vector-effect:none;fill:#cfcfcf;fill-opacity:1;stroke:#000000;stroke-width:0.52055222;stroke-linecap:butt;stroke-linejoin:miter;stroke-miterlimit:4;stroke-dasharray:none;stroke-dashoffset:0;stroke-opacity:1"
       d="m 131.31687,127.94667 c 0.86875,3.28082 1.00748,6.75851 0.36748,10.09333 3.13484,0.82691 6.26965,1.65389 9.4045,2.48082 1.07077,-5.04112 0.91004,-10.22485 -0.39613,-15.10683 -3.12544,0.8437 -6.25084,1.68741 -9.37578,2.53301 z"
       id="uA"
       inkscape:connector-curvature="0"
       inkscape:label="" />
    <path
       style="vector-effect:none;fill:#cfcfcf;fill-opacity:1;stroke:#000000;stroke-width:0.52055222;stroke-linecap:butt;stroke-linejoin:miter;stroke-miterlimit:4;stroke-dasharray:none;stroke-dashoffset:0;stroke-opacity:1"
       d="m 142.70371,124.87088 c 1.41052,5.26501 1.55501,10.86628 0.39919,16.19443 3.07179,0.58461 6.78774,2.23075 9.47078,2.17463 1.50781,-6.81202 1.33653,-14.11709 -0.49438,-20.90273 -3.12542,0.84371 -6.25033,1.6893 -9.3756,2.53361 z"
       id="vA"
       inkscape:connector-curvature="0"
       inkscape:label="" />
    <path
       style="vector-effect:none;fill:#cfcfcf;fill-opacity:1;stroke:#000000;stroke-width:0.52055222;stroke-linecap:butt;stroke-linejoin:miter;stroke-miterlimit:4;stroke-dasharray:none;stroke-dashoffset:0;stroke-opacity:1"
       d="m 154.08932,121.79433 c 1.94841,7.24985 2.11193,14.97753 0.4266,22.29565 3.13305,0.82426 6.2661,1.64853 9.39916,2.47279 2.1195,-9.02332 1.93414,-18.4494 -0.45083,-27.30084 -3.12512,0.84363 -6.24969,1.68913 -9.37483,2.53277 z"
       id="wA"
       inkscape:connector-curvature="0"
       inkscape:label="" />
    <path
       style="vector-effect:none;fill:#cfcfcf;fill-opacity:1;stroke:#000000;stroke-width:0.52055222;stroke-linecap:butt;stroke-linejoin:miter;stroke-miterlimit:4;stroke-dasharray:none;stroke-dashoffset:0;stroke-opacity:1"
       d="m 165.47403,118.71806 c 2.48819,9.23428 2.66356,19.08755 0.45019,28.39471 3.12113,0.81497 6.25636,1.65261 9.36874,2.45358 2.64753,-10.97206 2.46137,-22.50606 -0.44434,-33.38166 -3.12508,0.84361 -6.24968,1.68911 -9.37461,2.5333 z"
       id="xA"
       inkscape:connector-curvature="0"
       inkscape:label="" />
    <path
       style="vector-effect:none;fill:#cfcfcf;fill-opacity:1;stroke:#000000;stroke-width:0.52055222;stroke-linecap:butt;stroke-linejoin:miter;stroke-miterlimit:4;stroke-dasharray:none;stroke-dashoffset:0;stroke-opacity:1"
       d="m 176.85867,115.64179 c 3.01089,11.23869 3.18439,23.23313 0.42885,34.5416 3.09434,0.6434 6.62491,2.02323 9.45629,2.22275 3.11719,-12.80928 2.92814,-26.51778 -0.5083,-39.29727 -3.12577,0.84379 -6.25096,1.68948 -9.37675,2.53328 z"
       id="yA"
       inkscape:connector-curvature="0"
       inkscape:label="" />
    <path
       style="vector-effect:none;fill:#cfcfcf;fill-opacity:1;stroke:#000000;stroke-width:0.52055222;stroke-linecap:butt;stroke-linejoin:miter;stroke-miterlimit:4;stroke-dasharray:none;stroke-dashoffset:0;stroke-opacity:1"
       d="m 188.24531,112.565 c 3.54902,13.22443 3.73665,27.34758 0.44392,40.64403 3.44593,0.86848 6.89182,1.73698 10.33768,2.60549 4.0028,-15.04248 3.91909,-31.15375 -0.1339,-46.12618 -3.54911,0.95927 -7.09827,1.91857 -10.64768,2.87671 z"
       id="zA"
       inkscape:connector-curvature="0"
       inkscape:label="" />
    <path
       style="vector-effect:none;fill:#cfcfcf;fill-opacity:1;stroke:#000000;stroke-width:0.52055222;stroke-linecap:butt;stroke-linejoin:miter;stroke-miterlimit:4;stroke-dasharray:none;stroke-dashoffset:0;stroke-opacity:1"
       d="m 130.68503,140.39521 c -0.91614,3.06478 -2.47351,5.94072 -4.56622,8.36179 2.30149,2.28396 4.60295,4.56794 6.90445,6.85195 3.41087,-3.7745 5.90855,-8.41677 7.20769,-13.28134 -3.1288,-0.83207 -6.25764,-1.66414 -9.38645,-2.49619 l -0.14164,0.50094 z"
       id="uE"
       inkscape:connector-curvature="0"
       inkscape:label="" />
    <path
       style="vector-effect:none;fill:#cfcfcf;fill-opacity:1;stroke:#000000;stroke-width:0.52055222;stroke-linecap:butt;stroke-linejoin:miter;stroke-miterlimit:4;stroke-dasharray:none;stroke-dashoffset:0;stroke-opacity:1"
       d="m 142.13093,143.27529 c -1.4411,5.10824 -4.06729,9.88179 -7.63723,13.81119 2.37066,2.03357 4.76918,5.35582 7.12307,6.61129 4.74189,-5.20382 8.18939,-11.5128 10.01375,-18.34082 -3.12874,-0.83173 -6.25747,-1.66348 -9.38617,-2.49523 z"
       id="vE"
       inkscape:connector-curvature="0"
       inkscape:label="" />
    <path
       style="vector-effect:none;fill:#cfcfcf;fill-opacity:1;stroke:#000000;stroke-width:0.52055222;stroke-linecap:butt;stroke-linejoin:miter;stroke-miterlimit:4;stroke-dasharray:none;stroke-dashoffset:0;stroke-opacity:1"
       d="m 153.47631,146.49918 c -1.98243,7.02249 -5.63519,13.5737 -10.61049,18.91437 2.30124,2.28055 4.60249,4.56112 6.90375,6.84163 6.30587,-6.69353 10.87707,-14.95924 13.25854,-23.86838 -3.12863,-0.83138 -6.25726,-1.66281 -9.38593,-2.49421 l -0.13729,0.50216 z"
       id="wE"
       inkscape:connector-curvature="0"
       inkscape:label="" />
    <path
       style="vector-effect:none;fill:#cfcfcf;fill-opacity:1;stroke:#000000;stroke-width:0.52055222;stroke-linecap:butt;stroke-linejoin:miter;stroke-miterlimit:4;stroke-dasharray:none;stroke-dashoffset:0;stroke-opacity:1"
       d="m 164.82044,149.72232 c -2.52041,8.93782 -7.20702,17.26163 -13.58582,24.01399 2.28776,2.25902 4.63581,4.60196 6.88673,6.80931 7.64784,-8.00024 13.43474,-18.3182 16.30436,-29.12892 -3.12841,-0.83183 -6.2568,-1.66367 -9.38518,-2.49549 l -0.13786,0.50199 z"
       id="xE"
       inkscape:connector-curvature="0"
       inkscape:label="" />
    <path
       style="vector-effect:none;fill:#cfcfcf;fill-opacity:1;stroke:#000000;stroke-width:0.52055222;stroke-linecap:butt;stroke-linejoin:miter;stroke-miterlimit:4;stroke-dasharray:none;stroke-dashoffset:0;stroke-opacity:1"
       d="m 176.19685,152.82629 c -3.07829,10.90557 -8.82502,21.05681 -16.65665,29.25175 2.35813,2.10454 4.72751,5.06804 7.0789,6.6547 9.1597,-9.61278 15.77129,-21.47842 19.20518,-34.28645 -3.12905,-0.83162 -6.2581,-1.66329 -9.38717,-2.49494 l -0.13788,0.50199 z"
       id="yE"
       inkscape:connector-curvature="0"
       inkscape:label="" />
    <path
       style="vector-effect:none;fill:#cfcfcf;fill-opacity:1;stroke:#000000;stroke-width:0.52055222;stroke-linecap:butt;stroke-linejoin:miter;stroke-miterlimit:4;stroke-dasharray:none;stroke-dashoffset:0;stroke-opacity:1"
       d="m 187.54318,156.04989 c -3.62209,12.82072 -10.39886,24.74855 -19.64032,34.35148 2.54979,2.47498 5.09961,4.94995 7.64941,7.42495 10.98521,-11.03086 18.9514,-24.96727 22.94311,-40.01247 -3.55291,-0.9444 -7.1058,-1.8888 -10.6587,-2.83316 -0.0977,0.35639 -0.19574,0.71281 -0.2935,1.0692 z"
       id="zE"
       inkscape:connector-curvature="0"
       inkscape:label="" />
    <path
       style="vector-effect:none;fill:#cfcfcf;fill-opacity:1;stroke:#000000;stroke-width:0.52055222;stroke-linecap:butt;stroke-linejoin:miter;stroke-miterlimit:4;stroke-dasharray:none;stroke-dashoffset:0;stroke-opacity:1"
       d="m 124.07498,150.29736 c -2.32646,2.19462 -5.11161,3.9086 -8.13487,4.95701 0.85048,3.12897 1.70231,6.25761 2.55336,9.38643 4.72537,-1.51698 9.23578,-4.25342 12.88259,-7.89568 -2.29402,-2.28492 -4.58798,-4.56987 -6.88201,-6.85481 l -0.37351,0.36263 z"
       id="uB"
       inkscape:connector-curvature="0"
       inkscape:label="" />
    <path
       style="vector-effect:none;fill:#cfcfcf;fill-opacity:1;stroke:#000000;stroke-width:0.52055222;stroke-linecap:butt;stroke-linejoin:miter;stroke-miterlimit:4;stroke-dasharray:none;stroke-dashoffset:0;stroke-opacity:1"
       d="m 132.54641,158.51575 c -3.80136,3.70335 -8.46177,6.52417 -13.51796,8.14068 1.02716,2.94163 1.47988,7.06155 2.85437,9.29106 6.67174,-2.11495 12.83704,-5.86037 17.84978,-10.87951 -2.29363,-2.2847 -4.58721,-4.5694 -6.88084,-6.85409 z"
       id="vB"
       inkscape:connector-curvature="0"
       inkscape:label="" />
    <path
       style="vector-effect:none;fill:#cfcfcf;fill-opacity:1;stroke:#000000;stroke-width:0.52055222;stroke-linecap:butt;stroke-linejoin:miter;stroke-miterlimit:4;stroke-dasharray:none;stroke-dashoffset:0;stroke-opacity:1"
       d="m 140.76079,166.98088 c -5.22684,5.09072 -11.66517,8.93682 -18.64402,11.07344 0.85187,3.12652 1.70524,6.25263 2.55789,9.37893 8.75272,-2.63134 16.8825,-7.48865 23.41465,-14.0404 -2.29366,-2.28501 -4.58739,-4.57003 -6.88103,-6.85507 l -0.36997,0.36628 z"
       id="wB"
       inkscape:connector-curvature="0"
       inkscape:label="" />
    <path
       style="vector-effect:none;fill:#cfcfcf;fill-opacity:1;stroke:#000000;stroke-width:0.52055222;stroke-linecap:butt;stroke-linejoin:miter;stroke-miterlimit:4;stroke-dasharray:none;stroke-dashoffset:0;stroke-opacity:1"
       d="m 148.97295,175.44559 c -6.65036,6.48012 -14.86973,11.34414 -23.76896,14.00269 0.86362,3.10275 1.68819,6.27862 2.57501,9.33644 10.77875,-3.18328 20.68168,-9.09316 28.66668,-17.06895 -2.29365,-2.28468 -4.58723,-4.5694 -6.88082,-6.85407 l -0.37057,0.36553 z"
       id="xB"
       inkscape:connector-curvature="0"
       inkscape:label="" />
    <path
       style="vector-effect:none;fill:#cfcfcf;fill-opacity:1;stroke:#000000;stroke-width:0.52055222;stroke-linecap:butt;stroke-linejoin:miter;stroke-miterlimit:4;stroke-dasharray:none;stroke-dashoffset:0;stroke-opacity:1"
       d="m 157.27508,183.82195 c -8.11759,7.90581 -18.1697,13.82109 -29.0482,17.00387 0.97722,2.99997 1.58979,6.77273 2.78703,9.307 12.65772,-3.7083 24.41458,-10.7057 33.78825,-20.09314 -2.29366,-2.28505 -4.58738,-4.57004 -6.88105,-6.85507 l -0.37055,0.3656 z"
       id="yB"
       inkscape:connector-curvature="0"
       inkscape:label="" />
    <path
       style="vector-effect:none;fill:#cfcfcf;fill-opacity:1;stroke:#000000;stroke-width:0.52055222;stroke-linecap:butt;stroke-linejoin:miter;stroke-miterlimit:4;stroke-dasharray:none;stroke-dashoffset:0;stroke-opacity:1"
       d="m 165.48848,192.28736 c -9.5445,9.29404 -21.37821,16.23281 -34.18186,19.9281 0.9712,3.4184 1.94242,6.83681 2.91363,10.2552 15.02851,-4.0579 28.89218,-12.14897 39.8723,-23.17836 -2.60498,-2.59462 -5.20999,-5.18921 -7.81503,-7.78374 -0.26306,0.2595 -0.52608,0.51921 -0.78911,0.77884 z"
       id="zB"
       inkscape:connector-curvature="0"
       inkscape:label="" />
    <path
       style="vector-effect:none;fill:#cfcfcf;fill-opacity:1;stroke:#000000;stroke-width:0.52055222;stroke-linecap:butt;stroke-linejoin:miter;stroke-miterlimit:4;stroke-dasharray:none;stroke-dashoffset:0;stroke-opacity:1"
       d="m 101.39709,165.1982 c 5.04182,1.06905 10.22142,0.90992 15.1031,-0.39688 -0.84357,-3.12595 -1.68903,-6.25138 -2.53261,-9.37731 -3.28041,0.86692 -6.75629,1.00738 -10.09041,0.36832 -0.82678,3.13533 -1.65363,6.27066 -2.48044,9.40595 z"
       id="uGb"
       inkscape:connector-curvature="0"
       inkscape:label="" />
    <path
       style="vector-effect:none;fill:#cfcfcf;fill-opacity:1;stroke:#000000;stroke-width:0.52055222;stroke-linecap:butt;stroke-linejoin:miter;stroke-miterlimit:4;stroke-dasharray:none;stroke-dashoffset:0;stroke-opacity:1"
       d="m 98.374409,176.61483 c 6.961401,1.5918 14.307701,1.42503 21.202101,-0.42506 -0.84368,-3.12626 -1.68922,-6.252 -2.53343,-9.37811 -5.26425,1.41078 -10.86435,1.55532 -16.19156,0.4002 -0.82568,3.13432 -1.651373,6.26862 -2.477041,9.40294 z"
       id="vGb"
       inkscape:connector-curvature="0"
       inkscape:label="" />
    <path
       style="vector-effect:none;fill:#cfcfcf;fill-opacity:1;stroke:#000000;stroke-width:0.52055222;stroke-linecap:butt;stroke-linejoin:miter;stroke-miterlimit:4;stroke-dasharray:none;stroke-dashoffset:0;stroke-opacity:1"
       d="m 95.354882,188.02742 c 9.022848,2.12017 18.445778,1.93435 27.296388,-0.45086 -0.84348,-3.12561 -1.68886,-6.25071 -2.53232,-9.37631 -7.2492,1.94681 -14.97508,2.11223 -22.292046,0.42662 -0.824115,3.13355 -1.648262,6.26711 -2.472376,9.40066 z"
       id="wGb"
       inkscape:connector-curvature="0"
       inkscape:label="" />
    <path
       style="vector-effect:none;fill:#cfcfcf;fill-opacity:1;stroke:#000000;stroke-width:0.52055222;stroke-linecap:butt;stroke-linejoin:miter;stroke-miterlimit:4;stroke-dasharray:none;stroke-dashoffset:0;stroke-opacity:1"
       d="m 92.345865,199.40459 c 11.000885,2.6526 22.468705,2.4658 33.382145,-0.44177 -0.84348,-3.12561 -1.68887,-6.2507 -2.53291,-9.37616 -9.23335,2.48668 -19.08414,2.66307 -28.390075,0.45027 -0.819725,3.12254 -1.639453,6.2451 -2.45912,9.36766 z"
       id="xGb"
       inkscape:connector-curvature="0"
       inkscape:label="" />
    <path
       style="vector-effect:none;fill:#cfcfcf;fill-opacity:1;stroke:#000000;stroke-width:0.52055222;stroke-linecap:butt;stroke-linejoin:miter;stroke-miterlimit:4;stroke-dasharray:none;stroke-dashoffset:0;stroke-opacity:1"
       d="m 89.302475,210.80674 c 12.868055,3.17568 26.653725,2.99887 39.500885,-0.45522 -0.84365,-3.12623 -1.68919,-6.252 -2.53284,-9.37826 -11.23743,3.0095 -23.2293,3.18517 -34.536006,0.42887 -0.810763,3.13491 -1.621577,6.26981 -2.432337,9.40469 z"
       id="yGb"
       inkscape:connector-curvature="0"
       inkscape:label="" />
    <path
       style="vector-effect:none;fill:#cfcfcf;fill-opacity:1;stroke:#000000;stroke-width:0.52055222;stroke-linecap:butt;stroke-linejoin:miter;stroke-miterlimit:4;stroke-dasharray:none;stroke-dashoffset:0;stroke-opacity:1"
       d="m 86.104657,223.14503 c 15.040063,4.00217 31.148843,3.9188 46.118683,-0.13393 -0.95916,-3.54975 -1.91828,-7.09942 -2.87627,-10.64945 -13.22279,3.54768 -27.34318,3.73728 -40.637415,0.44399 -0.868362,3.44645 -1.736679,6.89293 -2.605046,10.33939 z"
       id="zGb"
       inkscape:connector-curvature="0"
       inkscape:label="" />
    <path
       style="vector-effect:none;fill:#cfcfcf;fill-opacity:1;stroke:#000000;stroke-width:0.52055222;stroke-linecap:butt;stroke-linejoin:miter;stroke-miterlimit:4;stroke-dasharray:none;stroke-dashoffset:0;stroke-opacity:1"
       d="m 86.310201,157.13062 c 3.775462,3.4068 8.369745,5.89144 13.279428,7.20986 0.831851,-3.12967 1.663661,-6.25932 2.495511,-9.38899 -3.275955,-0.88614 -6.355373,-2.50634 -8.924094,-4.72646 -2.283631,2.30187 -4.567262,4.60371 -6.850845,6.90559 z"
       id="uDb"
       inkscape:connector-curvature="0"
       inkscape:label="" />
    <path
       style="vector-effect:none;fill:#cfcfcf;fill-opacity:1;stroke:#000000;stroke-width:0.52055222;stroke-linecap:butt;stroke-linejoin:miter;stroke-miterlimit:4;stroke-dasharray:none;stroke-dashoffset:0;stroke-opacity:1"
       d="m 77.986199,165.50676 c 5.214767,4.83889 11.665696,8.39082 18.574306,10.23415 0.831636,-3.12923 1.663203,-6.25848 2.494811,-9.38774 -5.263322,-1.41365 -10.187838,-4.08537 -14.222449,-7.75187 -2.28219,2.30181 -4.564428,4.60366 -6.846668,6.90546 z"
       id="vDb"
       inkscape:connector-curvature="0"
       inkscape:label="" />
    <path
       style="vector-effect:none;fill:#cfcfcf;fill-opacity:1;stroke:#000000;stroke-width:0.52055222;stroke-linecap:butt;stroke-linejoin:miter;stroke-miterlimit:4;stroke-dasharray:none;stroke-dashoffset:0;stroke-opacity:1"
       d="m 69.666651,173.87965 c 6.692685,6.30706 14.956442,10.87862 23.864462,13.26072 0.831275,-3.12916 1.662589,-6.25832 2.493864,-9.38748 -7.250776,-1.93894 -14.024437,-5.65944 -19.517857,-10.77811 -2.280142,2.30163 -4.560333,4.60324 -6.840469,6.90487 z"
       id="wDb"
       inkscape:connector-curvature="0"
       inkscape:label="" />
    <path
       style="vector-effect:none;fill:#cfcfcf;fill-opacity:1;stroke:#000000;stroke-width:0.52055222;stroke-linecap:butt;stroke-linejoin:miter;stroke-miterlimit:4;stroke-dasharray:none;stroke-dashoffset:0;stroke-opacity:1"
       d="m 61.372039,182.22793 c 8.003313,7.65346 18.318779,13.44117 29.129727,16.31188 0.831662,-3.1289 1.663364,-6.25783 2.495072,-9.38676 -9.239309,-2.4637 -17.858672,-7.23745 -24.811067,-13.80809 -2.271256,2.29431 -4.54247,4.58866 -6.813732,6.88297 z"
       id="xDb"
       inkscape:connector-curvature="0"
       inkscape:label="" />
    <path
       style="vector-effect:none;fill:#cfcfcf;fill-opacity:1;stroke:#000000;stroke-width:0.52055222;stroke-linecap:butt;stroke-linejoin:miter;stroke-miterlimit:4;stroke-dasharray:none;stroke-dashoffset:0;stroke-opacity:1"
       d="m 53.035626,190.58111 c 9.636052,9.2399 21.561724,15.90521 34.437011,19.35914 0.831533,-3.12959 1.663015,-6.25914 2.494546,-9.38871 -11.235572,-3.01352 -21.7094,-8.85785 -30.121818,-16.89971 -2.269932,2.30975 -4.539858,4.61956 -6.809739,6.92928 z"
       id="yDb"
       inkscape:connector-curvature="0"
       inkscape:label="" />
    <path
       style="vector-effect:none;fill:#cfcfcf;fill-opacity:1;stroke:#000000;stroke-width:0.52055222;stroke-linecap:butt;stroke-linejoin:miter;stroke-miterlimit:4;stroke-dasharray:none;stroke-dashoffset:0;stroke-opacity:1"
       d="m 44.099689,199.66657 c 11.029041,10.987 24.963178,18.95446 40.005958,22.9468 0.944236,-3.55346 1.888427,-7.10695 2.832665,-10.66041 -13.22414,-3.54179 -25.547136,-10.43764 -35.414912,-19.93707 -2.474574,2.55023 -4.949138,5.10045 -7.423711,7.65068 z"
       id="zDb"
       inkscape:connector-curvature="0"
       inkscape:label="" />
    <path
       style="vector-effect:none;fill:#cfcfcf;fill-opacity:1;stroke:#000000;stroke-width:0.52055222;stroke-linecap:butt;stroke-linejoin:miter;stroke-miterlimit:4;stroke-dasharray:none;stroke-dashoffset:0;stroke-opacity:1"
       d="m 77.279858,142.59875 c 1.517763,4.72735 4.252809,9.23737 7.89439,12.88468 2.284559,-2.2944 4.569116,-4.5888 6.853665,-6.88318 -2.391321,-2.40718 -4.250562,-5.34798 -5.363206,-8.55555 -3.128474,0.85064 -6.256538,1.70277 -9.384858,2.554 z"
       id="uAb"
       inkscape:connector-curvature="0"
       inkscape:label="" />
    <path
       style="vector-effect:none;fill:#cfcfcf;fill-opacity:1;stroke:#000000;stroke-width:0.52055222;stroke-linecap:butt;stroke-linejoin:miter;stroke-miterlimit:4;stroke-dasharray:none;stroke-dashoffset:0;stroke-opacity:1"
       d="m 65.882647,145.69099 c 2.073581,6.73325 5.876586,13.07395 10.970067,18.15004 2.284294,-2.29395 4.568638,-4.58794 6.852926,-6.88191 -3.852016,-3.85591 -6.780879,-8.63239 -8.441163,-13.82555 -3.127308,0.85233 -6.254566,1.7049 -9.381827,2.55744 z"
       id="vAb"
       inkscape:connector-curvature="0"
       inkscape:label="" />
    <path
       style="vector-effect:none;fill:#cfcfcf;fill-opacity:1;stroke:#000000;stroke-width:0.52055222;stroke-linecap:butt;stroke-linejoin:miter;stroke-miterlimit:4;stroke-dasharray:none;stroke-dashoffset:0;stroke-opacity:1"
       d="m 54.491053,148.7807 c 2.630893,8.75418 7.487447,16.88525 14.038114,23.41849 2.284641,-2.29406 4.56929,-4.5881 6.853933,-6.88218 -5.310833,-5.30468 -9.316656,-11.91407 -11.514657,-19.09465 -3.126005,0.85202 -6.2516,1.70554 -9.377399,2.5583 z"
       id="wAb"
       inkscape:connector-curvature="0"
       inkscape:label="" />
    <path
       style="vector-effect:none;fill:#cfcfcf;fill-opacity:1;stroke:#000000;stroke-width:0.52055222;stroke-linecap:butt;stroke-linejoin:miter;stroke-miterlimit:4;stroke-dasharray:none;stroke-dashoffset:0;stroke-opacity:1"
       d="m 43.135598,151.8639 c 3.167428,10.75726 9.082203,20.69252 17.071984,28.69291 2.284342,-2.29397 4.568632,-4.58796 6.852975,-6.88195 -6.769409,-6.75434 -11.847406,-15.19785 -14.584236,-24.36477 -3.113678,0.85075 -6.227151,1.70247 -9.340728,2.55378 z"
       id="xAb"
       inkscape:connector-curvature="0"
       inkscape:label="" />
    <path
       style="vector-effect:none;fill:#cfcfcf;fill-opacity:1;stroke:#000000;stroke-width:0.52055222;stroke-linecap:butt;stroke-linejoin:miter;stroke-miterlimit:4;stroke-dasharray:none;stroke-dashoffset:0;stroke-opacity:1"
       d="m 31.741343,154.92797 c 3.688547,12.7364 10.711937,24.56343 20.143692,33.98672 2.284646,-2.29407 4.569295,-4.58811 6.853938,-6.88217 -8.223675,-8.22918 -14.371347,-18.52809 -17.638293,-29.69907 -3.119774,0.86479 -6.239548,1.72959 -9.35932,2.59459 z"
       id="yAb"
       inkscape:connector-curvature="0"
       inkscape:label="" />
    <path
       style="vector-effect:none;fill:#cfcfcf;fill-opacity:1;stroke:#000000;stroke-width:0.52055222;stroke-linecap:butt;stroke-linejoin:miter;stroke-miterlimit:4;stroke-dasharray:none;stroke-dashoffset:0;stroke-opacity:1"
       d="m 19.459334,158.32789 c 4.054346,15.03292 12.14877,28.89577 23.174633,39.87879 2.59417,-2.60541 5.188342,-5.21086 7.782462,-7.81629 -9.683367,-9.67979 -16.906694,-21.8154 -20.703566,-34.97669 -3.417833,0.97137 -6.835718,1.94276 -10.253552,2.9141 z"
       id="zAb"
       inkscape:connector-curvature="0"
       inkscape:label="" />
    <path
       style="vector-effect:none;fill:#cfcfcf;fill-opacity:1;stroke:#000000;stroke-width:0.52055222;stroke-linecap:butt;stroke-linejoin:miter;stroke-miterlimit:4;stroke-dasharray:none;stroke-dashoffset:0;stroke-opacity:1"
       d="m 76.635617,125.92153 c -0.974999,4.91023 -0.782858,9.94655 0.483673,14.68336 3.125426,-0.8437 6.250345,-1.68933 9.375767,-2.53301 -0.867534,-3.28079 -1.00721,-6.75741 -0.368246,-10.09206 -3.134797,-0.82697 -6.269637,-1.65391 -9.404428,-2.48087 z"
       id="uEb"
       inkscape:connector-curvature="0"
       inkscape:label="" />
    <path
       style="vector-effect:none;fill:#cfcfcf;fill-opacity:1;stroke:#000000;stroke-width:0.52055222;stroke-linecap:butt;stroke-linejoin:miter;stroke-miterlimit:4;stroke-dasharray:none;stroke-dashoffset:0;stroke-opacity:1"
       d="m 65.238336,122.77895 c -1.507462,6.81179 -1.336389,14.117 0.494363,20.90272 3.125426,-0.84372 6.250343,-1.68933 9.375612,-2.53359 -1.410533,-5.26504 -1.555101,-10.86619 -0.399158,-16.19441 -3.054435,-0.5924 -6.812515,-2.21961 -9.470795,-2.17464 z"
       id="vEb"
       inkscape:connector-curvature="0"
       inkscape:label="" />
    <path
       style="vector-effect:none;fill:#cfcfcf;fill-opacity:1;stroke:#000000;stroke-width:0.52055222;stroke-linecap:butt;stroke-linejoin:miter;stroke-miterlimit:4;stroke-dasharray:none;stroke-dashoffset:0;stroke-opacity:1"
       d="m 53.742588,120.12907 c -1.95256,8.80556 -1.72231,17.97701 0.605167,26.62788 3.125122,-0.84362 6.250197,-1.68721 9.374811,-2.53274 -1.947632,-7.25008 -2.111575,-14.97748 -0.426581,-22.29566 -3.133045,-0.82426 -6.266094,-1.64852 -9.39914,-2.47277 l -0.11637,0.50739 z"
       id="wEb"
       inkscape:connector-curvature="0"
       inkscape:label="" />
    <path
       style="vector-effect:none;fill:#cfcfcf;fill-opacity:1;stroke:#000000;stroke-width:0.52055222;stroke-linecap:butt;stroke-linejoin:miter;stroke-miterlimit:4;stroke-dasharray:none;stroke-dashoffset:0;stroke-opacity:1"
       d="m 42.519063,116.45254 c -2.647107,10.97189 -2.461373,22.50652 0.444325,33.38167 3.125071,-0.84362 6.249686,-1.68915 9.374605,-2.5333 -2.487967,-9.2343 -2.663139,-19.08755 -0.450189,-28.39472 -3.121136,-0.81501 -6.256353,-1.6526 -9.368719,-2.45358 z"
       id="xEb"
       inkscape:connector-curvature="0"
       inkscape:label="" />
    <path
       style="vector-effect:none;fill:#cfcfcf;fill-opacity:1;stroke:#000000;stroke-width:0.52055222;stroke-linecap:butt;stroke-linejoin:miter;stroke-miterlimit:4;stroke-dasharray:none;stroke-dashoffset:0;stroke-opacity:1"
       d="m 31.072079,113.59592 c -3.120789,12.81446 -2.933314,26.52917 0.504397,39.31407 3.125779,-0.84377 6.251505,-1.68754 9.376772,-2.53325 -3.010906,-11.23868 -3.184288,-23.23311 -0.428848,-34.54163 -3.090594,-0.66358 -6.606224,-1.98158 -9.452413,-2.23954 z"
       id="yEb"
       inkscape:connector-curvature="0"
       inkscape:label="" />
    <path
       style="vector-effect:none;fill:#cfcfcf;fill-opacity:1;stroke:#000000;stroke-width:0.52055222;stroke-linecap:butt;stroke-linejoin:miter;stroke-miterlimit:4;stroke-dasharray:none;stroke-dashoffset:0;stroke-opacity:1"
       d="m 18.6457,110.7449 c -3.865888,14.88605 -3.726406,30.79308 0.273311,45.58567 3.549105,-0.95931 7.098261,-1.91859 10.647674,-2.87675 -3.548249,-13.2246 -3.736581,-27.34765 -0.443924,-40.64401 -3.445913,-0.8685 -6.891821,-1.73698 -10.337683,-2.6055 l -0.130014,0.50413 z"
       id="zEb"
       inkscape:connector-curvature="0"
       inkscape:label="" />
    <path
       style="vector-effect:none;fill:#cfcfcf;fill-opacity:1;stroke:#000000;stroke-width:0.52055222;stroke-linecap:butt;stroke-linejoin:miter;stroke-miterlimit:4;stroke-dasharray:none;stroke-dashoffset:0;stroke-opacity:1"
       d="m 84.502455,110.73192 c -3.258959,3.71401 -5.642194,8.18734 -6.921387,12.95936 3.128786,0.83209 6.257613,1.66415 9.386442,2.49618 0.886055,-3.27646 2.505953,-6.35637 4.72567,-8.92555 -2.301459,-2.28401 -4.602941,-4.56797 -6.90441,-6.85195 z"
       id="uBb"
       inkscape:connector-curvature="0"
       inkscape:label="" />
    <path
       style="vector-effect:none;fill:#cfcfcf;fill-opacity:1;stroke:#000000;stroke-width:0.52055222;stroke-linecap:butt;stroke-linejoin:miter;stroke-miterlimit:4;stroke-dasharray:none;stroke-dashoffset:0;stroke-opacity:1"
       d="m 76.202528,102.31288 c -4.72677,5.17437 -8.205789,11.53867 -10.021053,18.34908 3.128743,0.83171 6.257491,1.66346 9.386183,2.4952 1.413442,-5.26416 4.084742,-10.18952 7.750649,-14.22475 -2.349488,-2.04004 -4.790407,-5.33148 -7.115779,-6.61953 z"
       id="vBb"
       inkscape:connector-curvature="0"
       inkscape:label="" />
    <path
       style="vector-effect:none;fill:#cfcfcf;fill-opacity:1;stroke:#000000;stroke-width:0.52055222;stroke-linecap:butt;stroke-linejoin:miter;stroke-miterlimit:4;stroke-dasharray:none;stroke-dashoffset:0;stroke-opacity:1"
       d="m 67.572239,94.267608 c -6.060253,6.601692 -10.467593,14.678502 -12.788344,23.364472 3.128653,0.83138 6.257264,1.66282 9.385915,2.49419 1.93861,-7.25189 5.65852,-14.02668 10.776372,-19.52096 -2.301248,-2.280543 -4.60249,-4.561071 -6.903739,-6.841627 l -0.355157,0.380622 z"
       id="wBb"
       inkscape:connector-curvature="0"
       inkscape:label="" />
    <path
       style="vector-effect:none;fill:#cfcfcf;fill-opacity:1;stroke:#000000;stroke-width:0.52055222;stroke-linecap:butt;stroke-linejoin:miter;stroke-miterlimit:4;stroke-dasharray:none;stroke-dashoffset:0;stroke-opacity:1"
       d="m 59.67972,85.483569 c -7.603182,7.952429 -13.436679,18.317121 -16.293407,29.118631 3.128392,0.83181 6.256783,1.66364 9.385175,2.49546 2.46336,-9.24081 7.236309,-17.861545 13.805903,-24.815056 -2.298899,-2.255887 -4.599595,-4.594292 -6.897671,-6.799035 z"
       id="xBb"
       inkscape:connector-curvature="0"
       inkscape:label="" />
    <path
       style="vector-effect:none;fill:#cfcfcf;fill-opacity:1;stroke:#000000;stroke-width:0.52055222;stroke-linecap:butt;stroke-linejoin:miter;stroke-miterlimit:4;stroke-dasharray:none;stroke-dashoffset:0;stroke-opacity:1"
       d="m 51.204583,77.2746 c -9.166164,9.613956 -15.780782,21.484671 -19.216857,34.298 3.129045,0.83163 6.258089,1.66328 9.387189,2.49494 3.012938,-11.23743 8.856339,-21.712961 16.896902,-30.126707 -2.344511,-2.119206 -4.733503,-5.025354 -7.067234,-6.666233 z"
       id="yBb"
       inkscape:connector-curvature="0"
       inkscape:label="" />
    <path
       style="vector-effect:none;fill:#cfcfcf;fill-opacity:1;stroke:#000000;stroke-width:0.52055222;stroke-linecap:butt;stroke-linejoin:miter;stroke-miterlimit:4;stroke-dasharray:none;stroke-dashoffset:0;stroke-opacity:1"
       d="M 41.868628,68.591081 C 31.079561,79.55434 23.263216,93.341598 19.316642,108.20506 c 3.552894,0.94439 7.105785,1.88874 10.658679,2.83315 3.541322,-13.226457 10.43594,-25.551335 19.933846,-35.420706 -2.549813,-2.474966 -5.099626,-4.949954 -7.649434,-7.424939 l -0.364647,0.371539 z"
       id="zBb"
       inkscape:connector-curvature="0"
       inkscape:label="" />
    <path
       style="vector-effect:none;fill:#cfcfcf;fill-opacity:1;stroke:#000000;stroke-width:0.52055222;stroke-linecap:butt;stroke-linejoin:miter;stroke-miterlimit:4;stroke-dasharray:none;stroke-dashoffset:0;stroke-opacity:1"
       d="m 98.908241,101.51328 c -4.544908,1.5272 -8.940625,4.22543 -12.472537,7.76054 2.294021,2.28496 4.587978,4.56989 6.882018,6.85481 2.406949,-2.3916 5.347027,-4.25136 8.554168,-5.36411 -0.85048,-3.12899 -1.7023,-6.2576 -2.553566,-9.3864 z"
       id="uF"
       inkscape:connector-curvature="0"
       inkscape:label="" />
    <path
       style="vector-effect:none;fill:#cfcfcf;fill-opacity:1;stroke:#000000;stroke-width:0.52055222;stroke-linecap:butt;stroke-linejoin:miter;stroke-miterlimit:4;stroke-dasharray:none;stroke-dashoffset:0;stroke-opacity:1"
       d="m 95.914436,90.075336 c -6.605695,2.092544 -12.839197,5.858908 -17.835025,10.875584 2.29363,2.28469 4.587207,4.56939 6.880836,6.85406 3.85526,-3.85262 8.630966,-6.78198 13.823285,-8.442514 -0.852224,-3.127846 -1.704448,-6.255676 -2.557027,-9.383379 z"
       id="vF"
       inkscape:connector-curvature="0"
       inkscape:label="" />
    <path
       style="vector-effect:none;fill:#cfcfcf;fill-opacity:1;stroke:#000000;stroke-width:0.52055222;stroke-linecap:butt;stroke-linejoin:miter;stroke-miterlimit:4;stroke-dasharray:none;stroke-dashoffset:0;stroke-opacity:1"
       d="m 92.461405,78.793096 c -8.485703,2.672002 -16.374454,7.448353 -22.738762,13.832928 2.293669,2.285029 4.587384,4.570043 6.881048,6.85506 5.303872,-5.31163 11.91211,-9.318221 19.091531,-11.516514 -0.851853,-3.126511 -1.70524,-6.252637 -2.55788,-9.37894 l -0.497328,0.15367 z"
       id="wF"
       inkscape:connector-curvature="0"
       inkscape:label="" />
    <path
       style="vector-effect:none;fill:#cfcfcf;fill-opacity:1;stroke:#000000;stroke-width:0.52055222;stroke-linecap:butt;stroke-linejoin:miter;stroke-miterlimit:4;stroke-dasharray:none;stroke-dashoffset:0;stroke-opacity:1"
       d="m 89.0168,67.542266 c -10.38384,3.25007 -19.914232,9.034424 -27.650448,16.76086 2.293628,2.284686 4.587204,4.569377 6.880833,6.854068 C 75.000416,84.386672 83.442587,79.307838 92.608006,76.570591 91.744389,73.46786 90.91983,70.291994 90.033,67.234144 c -0.338789,0.102615 -0.677457,0.205428 -1.01622,0.308131 z"
       id="xF"
       inkscape:connector-curvature="0"
       inkscape:label="" />
    <path
       style="vector-effect:none;fill:#cfcfcf;fill-opacity:1;stroke:#000000;stroke-width:0.52055222;stroke-linecap:butt;stroke-linejoin:miter;stroke-miterlimit:4;stroke-dasharray:none;stroke-dashoffset:0;stroke-opacity:1"
       d="m 86.782424,55.890275 c -12.71497,3.734904 -24.389106,10.707043 -33.772578,20.088934 2.293666,2.285033 4.587386,4.570048 6.88105,6.855064 8.227824,-8.225047 18.525086,-14.373664 29.69423,-17.641203 -0.979238,-2.99833 -1.574862,-6.755796 -2.802702,-9.302795 z"
       id="yF"
       inkscape:connector-curvature="0"
       inkscape:label="" />
    <path
       style="vector-effect:none;fill:#cfcfcf;fill-opacity:1;stroke:#000000;stroke-width:0.52055222;stroke-linecap:butt;stroke-linejoin:miter;stroke-miterlimit:4;stroke-dasharray:none;stroke-dashoffset:0;stroke-opacity:1"
       d="M 83.054871,43.697358 C 68.229599,47.79505 54.570025,55.831944 43.71937,66.726638 c 2.604971,2.594581 5.209996,5.189158 7.815019,7.783737 9.678159,-9.684902 21.811993,-16.909317 34.970993,-20.706958 -0.971206,-3.418399 -1.942412,-6.836801 -2.91362,-10.255201 l -0.501544,0.139307 z"
       id="zF"
       inkscape:connector-curvature="0"
       inkscape:label="" />
    <path
       style="vector-effect:none;fill:#cfcfcf;fill-opacity:1;stroke:#000000;stroke-width:0.6045537;stroke-linecap:butt;stroke-linejoin:miter;stroke-miterlimit:4;stroke-dasharray:none;stroke-dashoffset:0;stroke-opacity:1"
       d="m 107.53189,30.66187 c -6.28728,0.157347 -12.647704,0.790645 -18.676648,2.173113 -0.450281,2.594433 0.902614,2.781498 2.983568,1.870799 12.21433,-2.470134 24.89438,-2.300812 37.12213,-0.01245 2.47191,-3.353501 -3.68579,-2.166202 -5.54688,-3.056736 -5.25588,-0.753694 -10.57366,-1.074002 -15.88217,-0.974727 z"
       id="C"
       inkscape:connector-curvature="0"
       inkscape:label="" />
    <path
       style="vector-effect:none;fill:#cfcfcf;fill-opacity:1;stroke:#000000;stroke-width:0.6045537;stroke-linecap:butt;stroke-linejoin:miter;stroke-miterlimit:4;stroke-dasharray:none;stroke-dashoffset:0;stroke-opacity:1"
       d="m 141.25793,38.303333 c 12.69124,4.019702 24.53769,10.966556 34.6382,19.371294 3.86646,-1.876227 -2.20066,-3.858535 -3.68973,-5.648769 -9.2434,-6.878517 -19.29298,-12.608826 -30.32793,-16.053909 -0.20685,0.777128 -0.41369,1.554256 -0.62054,2.331384 z"
       id="G"
       inkscape:connector-curvature="0"
       inkscape:label="" />
    <path
       style="vector-effect:none;fill:#cfcfcf;fill-opacity:1;stroke:#000000;stroke-width:0.6045537;stroke-linecap:butt;stroke-linejoin:miter;stroke-miterlimit:4;stroke-dasharray:none;stroke-dashoffset:0;stroke-opacity:1"
       d="m 184.6139,66.980601 c 9.0681,9.87545 15.6532,21.867177 20.45292,34.278989 4.23225,0.0549 0.0158,-3.303389 -0.0337,-5.582158 -4.34058,-11.145612 -10.68484,-21.42445 -18.74242,-30.380905 -0.5589,0.561358 -1.11781,1.122717 -1.67671,1.684074 z"
       id="D"
       inkscape:connector-curvature="0"
       inkscape:label="" />
    <path
       style="vector-effect:none;fill:#cfcfcf;fill-opacity:1;stroke:#000000;stroke-width:0.6045537;stroke-linecap:butt;stroke-linejoin:miter;stroke-miterlimit:4;stroke-dasharray:none;stroke-dashoffset:0;stroke-opacity:1"
       d="m 207.79613,113.51048 c 3.03618,12.96821 2.46193,27.02258 0.75211,39.71534 3.06748,1.97877 1.88341,-4.12337 2.78265,-5.9325 1.60162,-11.44445 1.1945,-23.06667 -1.23042,-34.40526 -0.76811,0.20747 -1.53623,0.41494 -2.30434,0.62242 z"
       id="A"
       inkscape:connector-curvature="0"
       inkscape:label="" />
    <path
       style="vector-effect:none;fill:#cfcfcf;fill-opacity:1;stroke:#000000;stroke-width:0.6045537;stroke-linecap:butt;stroke-linejoin:miter;stroke-miterlimit:4;stroke-dasharray:none;stroke-dashoffset:0;stroke-opacity:1"
       d="m 204.50673,165.77723 c -4.0317,12.55107 -10.93494,24.26195 -19.24561,34.2701 1.9588,4.3126 4.03143,-2.7643 5.90311,-4.03857 6.65165,-9.08096 12.5985,-19.20272 15.65219,-29.96122 -0.64736,0.0332 -2.29072,-1.74629 -2.30969,-0.27031 z"
       id="E"
       inkscape:connector-curvature="0"
       inkscape:label="" />
    <path
       style="vector-effect:none;fill:#cfcfcf;fill-opacity:1;stroke:#000000;stroke-width:0.6045537;stroke-linecap:butt;stroke-linejoin:miter;stroke-miterlimit:4;stroke-dasharray:none;stroke-dashoffset:0;stroke-opacity:1"
       d="m 175.67031,209.01542 c -9.80317,8.94077 -21.69633,15.45045 -33.96431,20.18755 -0.10423,4.33074 3.24777,0.0119 5.53329,-0.0142 11.06784,-4.35041 21.72263,-10.72482 30.26775,-18.76845 -0.57486,-0.2996 -1.08786,-2.65968 -1.83673,-1.40488 z"
       id="B"
       inkscape:connector-curvature="0"
       inkscape:label="" />
    <path
       style="vector-effect:none;fill:#cfcfcf;fill-opacity:1;stroke:#000000;stroke-width:0.6045537;stroke-linecap:butt;stroke-linejoin:miter;stroke-miterlimit:4;stroke-dasharray:none;stroke-dashoffset:0;stroke-opacity:1"
       d="m 128.80446,232.08208 c -12.80874,2.72903 -26.30176,2.60827 -39.047746,0.40723 -2.497205,3.71892 4.218006,2.2218 6.443653,3.09962 11.167433,1.17335 23.006843,1.44188 33.734943,-1.54891 -0.36581,-0.56543 0.49302,-3.08629 -1.13085,-1.95794 z"
       id="Gb"
       inkscape:connector-curvature="0"
       inkscape:label="" />
    <path
       style="vector-effect:none;fill:#cfcfcf;fill-opacity:1;stroke:#000000;stroke-width:0.6045537;stroke-linecap:butt;stroke-linejoin:miter;stroke-miterlimit:4;stroke-dasharray:none;stroke-dashoffset:0;stroke-opacity:1"
       d="m 41.566223,210.78664 c 10.195063,9.09816 22.403452,16.20759 35.294293,20.20355 2.782393,-3.18086 -2.482718,-2.82807 -4.438012,-4.05636 -10.761504,-4.0458 -20.72015,-10.12734 -29.428507,-17.6161 -0.475924,0.48964 -0.951849,0.97927 -1.427774,1.46891 z"
       id="Db"
       inkscape:connector-curvature="0"
       inkscape:label="" />
    <path
       style="vector-effect:none;fill:#cfcfcf;fill-opacity:1;stroke:#000000;stroke-width:0.6045537;stroke-linecap:butt;stroke-linejoin:miter;stroke-miterlimit:4;stroke-dasharray:none;stroke-dashoffset:0;stroke-opacity:1"
       d="m 12.03459,166.51346 c 4.340914,13.05758 11.216477,25.11174 20.468912,35.14325 4.017946,-1.3608 -0.749821,-3.69525 -1.818945,-5.73331 -7.296039,-8.885 -12.876034,-19.13156 -16.676332,-29.97012 -0.657878,0.18673 -1.315757,0.37346 -1.973635,0.56018 z"
       id="Ab"
       inkscape:connector-curvature="0"
       inkscape:label="" />
    <path
       style="vector-effect:none;fill:#cfcfcf;fill-opacity:1;stroke:#000000;stroke-width:0.6045537;stroke-linecap:butt;stroke-linejoin:miter;stroke-miterlimit:4;stroke-dasharray:none;stroke-dashoffset:0;stroke-opacity:1"
       d="m 8.6189555,113.28642 c -2.7610968,13.21472 -2.8850921,27.43716 0.1297976,40.78232 4.1529469,0.8157 1.1893224,-3.54698 1.2819739,-5.84536 -1.875635,-11.34352 -1.4845484,-22.98703 0.472961,-34.29143 -0.6020259,-0.17202 -1.3173765,-0.59396 -1.8847325,-0.64553 z"
       id="Eb"
       inkscape:connector-curvature="0"
       inkscape:label="" />
    <path
       style="vector-effect:none;fill:#cfcfcf;fill-opacity:1;stroke:#000000;stroke-width:0.6045537;stroke-linecap:butt;stroke-linejoin:miter;stroke-miterlimit:4;stroke-dasharray:none;stroke-dashoffset:0;stroke-opacity:1"
       d="m 32.243907,65.600622 c -9.071425,10.170641 -16.220166,22.32708 -20.271549,35.388668 3.181204,2.78466 2.806557,-2.491622 4.034395,-4.438701 4.052724,-10.755419 10.20415,-20.64357 17.551133,-29.45084 -0.432719,-0.452158 -0.850922,-1.189457 -1.313979,-1.499127 z"
       id="Bb"
       inkscape:connector-curvature="0"
       inkscape:label="" />
    <path
       style="vector-effect:none;fill:#cfcfcf;fill-opacity:1;stroke:#000000;stroke-width:0.6045537;stroke-linecap:butt;stroke-linejoin:miter;stroke-miterlimit:4;stroke-dasharray:none;stroke-dashoffset:0;stroke-opacity:1"
       d="m 76.526243,36.123106 c -13.016604,4.295766 -25.206329,11.25537 -35.224949,20.498751 1.353188,4.038952 3.675868,-0.768618 5.714652,-1.82456 8.880991,-7.28266 19.144543,-12.76644 29.901468,-16.719812 -0.214243,-0.482509 -0.04818,-1.660405 -0.391171,-1.954379 z"
       id="F"
       inkscape:connector-curvature="0"
       inkscape:label="" />
  </g>
</svg>
