<?xml version="1.0" encoding="UTF-8" standalone="no"?>
<svg
   xmlns:dc="http://purl.org/dc/elements/1.1/"
   xmlns:cc="http://creativecommons.org/ns#"
   xmlns:rdf="http://www.w3.org/1999/02/22-rdf-syntax-ns#"
   xmlns:svg="http://www.w3.org/2000/svg"
   xmlns="http://www.w3.org/2000/svg"
   xmlns:sodipodi="http://sodipodi.sourceforge.net/DTD/sodipodi-0.dtd"
   xmlns:inkscape="http://www.inkscape.org/namespaces/inkscape"
   width="120.01564"
   height="120"
   enable-background="new 0 0 566.9 566.9"
   version="1.1"
   viewBox="0 0 120.01482 119.99925"
   xml:space="preserve"
   id="svg190"
   sodipodi:docname="CircleOfFifths.svg"
   inkscape:version="0.92.4 (5da689c313, 2019-01-14)"><defs
   id="defs194" /><sodipodi:namedview
   pagecolor="#ffffff"
   bordercolor="#666666"
   borderopacity="1"
   objecttolerance="10"
   gridtolerance="10"
   guidetolerance="10"
   inkscape:pageopacity="0"
   inkscape:pageshadow="2"
   inkscape:window-width="1703"
   inkscape:window-height="806"
   id="namedview192"
   showgrid="false"
   inkscape:zoom="3.6203867"
   inkscape:cx="-5.4184336"
   inkscape:cy="59.393286"
   inkscape:window-x="155"
   inkscape:window-y="140"
   inkscape:window-maximized="0"
   inkscape:current-layer="svg190"
   showguides="false" /><metadata
   id="metadata2"><rdf:RDF><cc:Work
       rdf:about=""><dc:format>image/svg+xml</dc:format><dc:type
         rdf:resource="http://purl.org/dc/dcmitype/StillImage" /></cc:Work></rdf:RDF></metadata>
<path
   d="m 91.164566,31.222422 c 4.36955,4.73067 7.58352,10.36414 9.461344,16.64763 l 17.00874,-4.44178 c -2.70839,-9.353 -7.58351,-17.69487 -14.01144,-24.52003 z"
   id="outer_D"
   inkscape:label=""
   inkscape:connector-curvature="0"
   style="fill:#c8c8c8;stroke-width:0.36111981;fill-opacity:1;stroke:#000000;stroke-opacity:1" />
<path
   d="m 46.241266,1.6107417 4.44177,17.0448603 c 3.39453,-0.75835 6.89739,-1.11947 10.36414,-1.04725 2.96118,0.0722 5.92236,0.46946 8.77521,1.15558 l 4.65845,-16.9726303 c -4.18899,-1.04724997 -8.55854,-1.66114997 -13.00032,-1.76948997 -5.1279,-0.14444 -10.21969,0.43335 -15.23925,1.58892997 z"
   id="outer_C"
   inkscape:label=""
   inkscape:connector-curvature="0"
   style="fill:#c8c8c8;stroke-width:0.36111981;fill-opacity:1;stroke:#000000;stroke-opacity:1" />
<path
   d="m 72.603006,19.522142 c 4.87512,1.5167 9.46134,3.90009 13.50588,7.04184 1.04725,0.83057 2.05839,1.69726 3.03341,2.60006 L 101.60093,16.849852 C 94.775766,10.277472 86.433896,5.3301317 77.261456,2.5495117 Z"
   id="outer_G"
   inkscape:label=""
   inkscape:connector-curvature="0"
   style="fill:#c8c8c8;stroke-width:0.36111981;fill-opacity:1;stroke:#000000;stroke-opacity:1" />
<path
   d="m 118.24856,74.484572 c 2.27505,-9.17244 2.38339,-18.81434 0.14445,-28.23956 l -17.00875,4.44177 c 1.48059,6.50016 1.33615,13.03642 -0.10833,19.13935 z"
   id="outer_A"
   inkscape:label=""
   inkscape:connector-curvature="0"
   style="fill:#c8c8c8;stroke-width:0.36111981;fill-opacity:1;stroke:#000000;stroke-opacity:1" />
<path
   d="m 117.49021,77.265202 -17.00875,-4.65845 c -1.913934,6.17515 -5.236234,11.80862 -9.678014,16.50318 l 12.386414,12.530848 c 3.25008,-3.394518 6.13904,-7.186278 8.59465,-11.339158 2.41951,-4.15288 4.33344,-8.55854 5.7057,-13.03642 z"
   id="outer_E"
   inkscape:label=""
   inkscape:connector-curvature="0"
   style="fill:#c8c8c8;stroke-width:0.36111981;fill-opacity:1;stroke:#000000;stroke-opacity:1" />
<path
   d="M 101.16759,103.77139 88.745066,91.204422 c -4.62233,4.26122 -10.2558,7.58352 -16.61151,9.461338 l 4.44177,17.00874 c 9.31689,-2.63617 17.69487,-7.43906 24.592264,-13.90311 z"
   id="outer_B"
   inkscape:label=""
   inkscape:connector-curvature="0"
   style="fill:#c8c8c8;stroke-width:0.36111981;fill-opacity:1;stroke:#000000;stroke-opacity:1" />
<path
   d="m 58.555446,119.98567 c 5.09179,0.10834 10.21969,-0.43334 15.23926,-1.62504 l -4.44177,-17.00874 c -3.39453,0.75835 -6.89739,1.11947 -10.36414,1.04725 -2.96119,-0.0722 -5.92237,-0.46946 -8.77521,-1.15559 l -4.65845,16.97263 c 4.18899,1.04725 8.55854,1.66116 13.00031,1.76949 z"
   id="outer_Gb"
   inkscape:label=""
   inkscape:connector-curvature="0"
   style="fill:#c8c8c8;stroke-width:0.36111981;fill-opacity:1;stroke:#000000;stroke-opacity:1" />
<path
   d="m 47.396846,100.44909 c -4.87512,-1.516698 -9.46134,-3.900088 -13.50588,-7.041838 -1.04725,-0.83057 -2.05838,-1.69726 -3.03341,-2.60006 l -12.45863,12.314188 c 6.82517,6.57238 15.16703,11.51972 24.33948,14.30034 z"
   id="outer_Db"
   inkscape:label=""
   inkscape:connector-curvature="0"
   style="fill:#c8c8c8;stroke-width:0.36111981;fill-opacity:1;stroke:#000000;stroke-opacity:1" />
<path
   d="m 28.834206,88.748812 c -4.36955,-4.73067 -7.58352,-10.36414 -9.42523,-16.64763 l -17.0087401,4.44178 c 2.7084,9.353 7.58352,17.69487 14.0114501,24.520028 z"
   id="outer_Ab"
   inkscape:label=""
   inkscape:connector-curvature="0"
   style="fill:#c8c8c8;stroke-width:0.36111981;fill-opacity:1;stroke:#000000;stroke-opacity:1" />
<path
   d="m 18.650626,69.320562 c -1.44448,-6.39182 -1.40837,-12.92809 0.0722,-19.13935 L 1.7863059,45.522772 c -2.23895001,8.99188 -2.45562001,18.63378 -0.18056,28.23957 z"
   id="outer_Eb"
   inkscape:label=""
   inkscape:connector-curvature="0"
   style="fill:#c8c8c8;stroke-width:0.36111981;fill-opacity:1;stroke:#000000;stroke-opacity:1" />
<path
   d="m 19.517316,47.400592 c 0.93891,-3.03341 2.23894,-5.99459 3.90009,-8.81132 1.66115,-2.81674 3.57509,-5.38069 5.77792,-7.72797 l -12.3503,-12.49474 c -6.60849,6.86127 -11.5197201,15.23925 -14.2642301,24.37558 z"
   id="outer_Bb"
   inkscape:label=""
   inkscape:connector-curvature="0"
   style="fill:#c8c8c8;stroke-width:0.36111981;fill-opacity:1;stroke:#000000;stroke-opacity:1" />
<path
   d="m 18.903416,16.344292 12.35029,12.49474 c 4.69456,-4.33344 10.36414,-7.58351 16.64763,-9.46134 L 43.459556,2.3689517 c -9.49745,2.7084 -17.8032,7.58352 -24.55614,13.9753403 z"
   id="outer_F"
   inkscape:label=""
   inkscape:connector-curvature="0"
   style="fill:#c8c8c8;stroke-width:0.36111981;fill-opacity:1;stroke:#000000;stroke-opacity:1" />
<path
   d="m 51.405276,21.436082 4.44177,17.04485 c 1.55282,-0.2889 3.10564,-0.43334 4.65845,-0.39723 1.30003,0.0361 2.60006,0.18056 3.86398,0.43334 l 4.65845,-16.97263 c -2.63618,-0.6139 -5.34458,-0.97502 -8.08909,-1.04725 -3.17785,-0.0722 -6.3557,0.21668 -9.53356,0.93892 z"
   id="inner_C"
   inkscape:label=""
   inkscape:connector-curvature="0"
   style="fill:#ffffff;stroke-width:0.36111981;fill-opacity:1;stroke:#000000;stroke-opacity:1" />
<path
   d="m 71.844656,22.302762 -4.65844,16.97263 c 2.7084,0.93892 5.20012,2.41951 7.33073,4.33344 l 12.53086,-12.3503 c -4.29733,-4.08065 -9.49745,-7.15017 -15.20315,-8.95577 z"
   id="inner_G"
   inkscape:label=""
   inkscape:connector-curvature="0"
   style="fill:#ffffff;stroke-width:0.36111981;fill-opacity:1;stroke:#000000;stroke-opacity:1" />
<path
   d="m 76.575326,45.667212 c 1.84171,2.13061 3.3223,4.62234 4.2251,7.40296 l 17.04486,-4.44177 c -1.73338,-5.81403 -4.80289,-11.01416 -8.7391,-15.31148 z"
   id="inner_D"
   inkscape:label=""
   inkscape:connector-curvature="0"
   style="fill:#ffffff;stroke-width:0.36111981;fill-opacity:1;stroke:#000000;stroke-opacity:1" />
<path
   d="m 81.522666,55.850792 c 0.54168,2.85285 0.54168,5.74181 -0.0361,8.52243 l 16.97263,4.65845 c 1.33615,-5.63347 1.44448,-11.66417 0.10834,-17.62265 z"
   id="inner_A"
   inkscape:label=""
   inkscape:connector-curvature="0"
   style="fill:#ffffff;stroke-width:0.36111981;fill-opacity:1;stroke:#000000;stroke-opacity:1" />
<path
   d="m 97.700836,71.812292 -16.97263,-4.65845 c -0.46946,1.33615 -1.08336,2.63618 -1.8056,3.9001 -0.72224,1.26392 -1.58893,2.4195 -2.52784,3.46675 l 12.3503,12.49474 c 4.11677,-4.29732 7.15017,-9.53356 8.95577,-15.20314 z"
   id="inner_E"
   inkscape:label=""
   inkscape:connector-curvature="0"
   style="fill:#ffffff;stroke-width:0.36111981;fill-opacity:1;stroke:#000000;stroke-opacity:1" />
<path
   d="m 86.722796,89.073822 -12.3503,-12.49475 c -2.16672,1.87782 -4.65844,3.28619 -7.40296,4.2251 l 4.44178,17.04486 c 5.85014,-1.8056 11.05026,-4.83901 15.31148,-8.77521 z"
   id="inner_B"
   inkscape:label=""
   inkscape:connector-curvature="0"
   style="fill:#ffffff;stroke-width:0.36111981;fill-opacity:1;stroke:#000000;stroke-opacity:1" />
<path
   d="m 68.594576,98.535152 -4.44177,-17.04485 c -1.55281,0.2889 -3.10563,0.43334 -4.65845,0.39723 -1.30003,-0.0361 -2.60006,-0.18056 -3.86398,-0.43334 l -4.65844,16.97263 c 2.63617,0.6139 5.34457,0.97502 8.08908,1.04725 3.17786,0.10833 6.39182,-0.21668 9.53356,-0.93892 z"
   id="inner_Gb"
   inkscape:label=""
   inkscape:connector-curvature="0"
   style="fill:#ffffff;stroke-width:0.36111981;fill-opacity:1;stroke:#000000;stroke-opacity:1" />
<path
   d="m 48.191306,97.668472 4.65845,-16.97263 c -2.7084,-0.93892 -5.20012,-2.41951 -7.33073,-4.33344 l -12.53086,12.3503 c 4.29733,4.08065 9.49745,7.15017 15.20314,8.95577 z"
   id="inner_Db"
   inkscape:label=""
   inkscape:connector-curvature="0"
   style="fill:#ffffff;stroke-width:0.36111981;fill-opacity:1;stroke:#000000;stroke-opacity:1" />
<path
   d="m 43.460646,74.340132 c -1.84172,-2.13061 -3.32231,-4.62234 -4.22511,-7.40296 l -17.04485,4.44177 c 1.73337,5.81403 4.80289,11.01416 8.7391,15.31148 z"
   id="inner_Ab"
   inkscape:label=""
   inkscape:connector-curvature="0"
   style="fill:#ffffff;stroke-width:0.36111981;fill-opacity:1;stroke:#000000;stroke-opacity:1" />
<path
   d="m 38.477186,64.120442 c -0.54168,-2.88896 -0.50557,-5.77792 0.0361,-8.52243 l -17.00874,-4.65845 c -1.37225,5.74181 -1.40837,11.7364 -0.0722,17.65876 z"
   id="inner_Eb"
   inkscape:label=""
   inkscape:connector-curvature="0"
   style="fill:#ffffff;stroke-width:0.36111981;fill-opacity:1;stroke:#000000;stroke-opacity:1" />
<path
   d="m 31.217596,32.919682 c -2.02227,2.13061 -3.79176,4.514 -5.30846,7.11407 -1.5167,2.60006 -2.7084,5.30846 -3.6112,8.12519 l 17.00874,4.65845 c 0.93892,-2.7084 2.41951,-5.20013 4.29733,-7.36685 z"
   id="inner_Bb"
   inkscape:label=""
   inkscape:connector-curvature="0"
   style="fill:#ffffff;stroke-width:0.36111981;fill-opacity:1;stroke:#000000;stroke-opacity:1" />
<path
   d="m 33.275976,30.861302 12.38641,12.53086 c 2.13061,-1.84171 4.62234,-3.28619 7.40296,-4.2251 l -4.44177,-17.04486 c -5.77792,1.76949 -11.01416,4.76678 -15.3476,8.7391 z"
   id="inner_F"
   inkscape:label=""
   inkscape:connector-curvature="0"
   style="fill:#ffffff;stroke-width:0.36111981;fill-opacity:1;stroke:#000000;stroke-opacity:1" />
























</svg>