<?xml version="1.0" encoding="UTF-8" standalone="no"?>
<!-- Created with Inkscape (http://www.inkscape.org/) -->

<svg
   xmlns:dc="http://purl.org/dc/elements/1.1/"
   xmlns:cc="http://creativecommons.org/ns#"
   xmlns:rdf="http://www.w3.org/1999/02/22-rdf-syntax-ns#"
   xmlns:svg="http://www.w3.org/2000/svg"
   xmlns="http://www.w3.org/2000/svg"
   xmlns:sodipodi="http://sodipodi.sourceforge.net/DTD/sodipodi-0.dtd"
   xmlns:inkscape="http://www.inkscape.org/namespaces/inkscape"
   width="205.05208mm"
   height="205.05208mm"
   viewBox="0 0 205.05208 205.05208"
   version="1.1"
   id="svg4557"
   inkscape:version="0.92.4 (5da689c313, 2019-01-14)"
   sodipodi:docname="CircleOfTriads.svg">
  <defs
     id="defs4551" />
  <sodipodi:namedview
     id="base"
     pagecolor="#ffffff"
     bordercolor="#666666"
     borderopacity="1.0"
     inkscape:pageopacity="0.0"
     inkscape:pageshadow="2"
     inkscape:zoom="1.4"
     inkscape:cx="433.20064"
     inkscape:cy="409.16584"
     inkscape:document-units="mm"
     inkscape:current-layer="layer1"
     showgrid="false"
     inkscape:window-width="1920"
     inkscape:window-height="1016"
     inkscape:window-x="0"
     inkscape:window-y="27"
     inkscape:window-maximized="1" />
  <metadata
     id="metadata4554">
    <rdf:RDF>
      <cc:Work
         rdf:about="">
        <dc:format>image/svg+xml</dc:format>
        <dc:type
           rdf:resource="http://purl.org/dc/dcmitype/StillImage" />
        <dc:title></dc:title>
      </cc:Work>
    </rdf:RDF>
  </metadata>
  <g
     inkscape:label="Capa 1"
     inkscape:groupmode="layer"
     id="layer1"
     transform="translate(-6.3311251,-30.432307)">
    <path
       style="vector-effect:none;fill:#cfcfcf;fill-opacity:1;stroke:#000000;stroke-width:0.57176399;stroke-linecap:butt;stroke-linejoin:miter;stroke-miterlimit:4;stroke-dasharray:none;stroke-dashoffset:0;stroke-opacity:1"
       d="m 103.29673,108.34061 c 3.60286,-0.95421 7.42156,-1.10639 11.08396,-0.40451 0.90824,-3.44352 1.81642,-6.88704 2.72465,-10.330537 -5.53079,-1.176481 -11.24096,-0.996015 -16.5902,0.435922 0.92661,3.433185 1.85533,6.865835 2.78196,10.299025 z"
       id="uC"
       inkscape:connector-curvature="0"
       inkscape:label="" />
    <path
       style="vector-effect:none;fill:#cfcfcf;fill-opacity:1;stroke:#000000;stroke-width:0.57176399;stroke-linecap:butt;stroke-linejoin:miter;stroke-miterlimit:4;stroke-dasharray:none;stroke-dashoffset:0;stroke-opacity:1"
       d="m 99.918909,95.833494 c 5.782671,-1.548884 11.934021,-1.70858 17.785841,-0.439502 0.64205,-3.374335 2.45001,-7.456181 2.38834,-10.40346 -7.48137,-1.655369 -15.50391,-1.467896 -22.957188,0.543043 0.926745,3.433559 1.855551,6.866576 2.782904,10.299966 z"
       id="vC"
       inkscape:connector-curvature="0"
       inkscape:label="" />
    <path
       style="vector-effect:none;fill:#cfcfcf;fill-opacity:1;stroke:#000000;stroke-width:0.57176399;stroke-linecap:butt;stroke-linejoin:miter;stroke-miterlimit:4;stroke-dasharray:none;stroke-dashoffset:0;stroke-opacity:1"
       d="m 96.539694,83.325615 c 7.962906,-2.138147 16.449486,-2.319758 24.487016,-0.468549 0.90523,-3.44158 1.81055,-6.883157 2.7158,-10.324711 -9.88638,-2.326235 -20.244,-2.126797 -29.984123,0.495194 0.926524,3.432825 1.855151,6.865107 2.781664,10.297958 z"
       id="wC"
       inkscape:connector-curvature="0"
       inkscape:label="" />
    <path
       style="vector-effect:none;fill:#cfcfcf;fill-opacity:1;stroke:#000000;stroke-width:0.57176399;stroke-linecap:butt;stroke-linejoin:miter;stroke-miterlimit:4;stroke-dasharray:none;stroke-dashoffset:0;stroke-opacity:1"
       d="m 93.161046,70.819867 c 10.141924,-2.733221 20.963254,-2.924924 31.185504,-0.494547 0.88215,-3.425541 1.84551,-6.898472 2.67761,-10.294818 -12.07766,-2.905886 -24.66516,-2.700057 -36.645452,0.49159 0.926525,3.432841 1.855145,6.865101 2.782294,10.297775 z"
       id="xC"
       inkscape:connector-curvature="0"
       inkscape:label="" />
    <path
       style="vector-effect:none;fill:#cfcfcf;fill-opacity:1;stroke:#000000;stroke-width:0.57176399;stroke-linecap:butt;stroke-linejoin:miter;stroke-miterlimit:4;stroke-dasharray:none;stroke-dashoffset:0;stroke-opacity:1"
       d="m 89.782469,58.314109 c 12.343901,-3.305104 25.516591,-3.498043 37.936561,-0.471054 0.70664,-3.399043 2.22205,-7.277276 2.44121,-10.387526 -14.06624,-3.42386 -29.12527,-3.216204 -43.159693,0.558383 0.926722,3.433557 1.855533,6.866551 2.782247,10.300106 z"
       id="yC"
       inkscape:connector-curvature="0"
       inkscape:label="" />
    <path
       style="vector-effect:none;fill:#cfcfcf;fill-opacity:1;stroke:#000000;stroke-width:0.57176399;stroke-linecap:butt;stroke-linejoin:miter;stroke-miterlimit:4;stroke-dasharray:none;stroke-dashoffset:0;stroke-opacity:1"
       d="m 86.403251,45.806215 c 14.525099,-3.894928 30.035559,-4.104519 44.638759,-0.48763 0.95387,-3.785242 1.90768,-7.570467 2.86155,-11.355707 -16.52106,-4.395578 -34.2158,-4.303856 -50.659741,0.147095 1.053576,3.898626 2.10715,7.797253 3.159473,11.696219 z"
       id="zC"
       inkscape:connector-curvature="0"
       inkscape:label="" />
    <path
       style="vector-effect:none;fill:#cfcfcf;fill-opacity:1;stroke:#000000;stroke-width:0.57176399;stroke-linecap:butt;stroke-linejoin:miter;stroke-miterlimit:4;stroke-dasharray:none;stroke-dashoffset:0;stroke-opacity:1"
       d="m 116.34954,108.85948 c 3.59852,0.97327 6.98119,2.75268 9.80281,5.19104 2.50849,-2.52811 5.01698,-5.05625 7.52541,-7.58436 -4.14722,-3.74089 -9.19324,-6.471567 -14.58669,-7.917469 -0.91383,3.436919 -1.82768,6.873829 -2.74153,10.310789 z"
       id="uG"
       inkscape:connector-curvature="0"
       inkscape:label="" />
    <path
       style="vector-effect:none;fill:#cfcfcf;fill-opacity:1;stroke:#000000;stroke-width:0.57176399;stroke-linecap:butt;stroke-linejoin:miter;stroke-miterlimit:4;stroke-dasharray:none;stroke-dashoffset:0;stroke-opacity:1"
       d="m 119.6777,96.337074 c 5.78159,1.552588 11.19099,4.486936 15.62287,8.513866 2.2334,-2.60411 5.88218,-5.238856 7.26106,-7.824504 -5.68051,-5.188129 -12.66826,-9.007297 -20.14345,-10.999868 -0.91353,3.436845 -1.82697,6.87366 -2.74048,10.310506 z"
       id="vG"
       inkscape:connector-curvature="0"
       inkscape:label="" />
    <path
       style="vector-effect:none;fill:#cfcfcf;fill-opacity:1;stroke:#000000;stroke-width:0.57176399;stroke-linecap:butt;stroke-linejoin:miter;stroke-miterlimit:4;stroke-dasharray:none;stroke-dashoffset:0;stroke-opacity:1"
       d="m 123.00644,83.816826 c 7.96471,2.129529 15.40536,6.215731 21.43968,11.837566 2.50465,-2.52788 5.00934,-5.055744 7.51401,-7.583607 -7.35168,-6.926991 -16.42913,-11.947939 -26.21426,-14.564162 -0.91313,3.436714 -1.82633,6.873471 -2.73943,10.310203 z"
       id="wG"
       inkscape:connector-curvature="0"
       inkscape:label="" />
    <path
       style="vector-effect:none;fill:#cfcfcf;fill-opacity:1;stroke:#000000;stroke-width:0.57176399;stroke-linecap:butt;stroke-linejoin:miter;stroke-miterlimit:4;stroke-dasharray:none;stroke-dashoffset:0;stroke-opacity:1"
       d="m 126.33272,71.296065 c 10.14908,2.705927 19.61714,7.948874 27.2541,15.165386 2.48058,-2.513449 5.05901,-5.093582 7.47937,-7.566227 -8.84816,-8.445559 -20.11356,-14.743596 -31.99271,-17.908563 -0.91356,3.436476 -1.82713,6.872951 -2.74076,10.309404 z"
       id="xG"
       inkscape:connector-curvature="0"
       inkscape:label="" />
    <path
       style="vector-effect:none;fill:#cfcfcf;fill-opacity:1;stroke:#000000;stroke-width:0.57176399;stroke-linecap:butt;stroke-linejoin:miter;stroke-miterlimit:4;stroke-dasharray:none;stroke-dashoffset:0;stroke-opacity:1"
       d="m 129.66071,58.777206 c 12.34191,3.309645 23.84703,9.72846 33.08776,18.560818 2.31136,-2.590355 5.56614,-5.193093 7.30871,-7.775971 -10.55745,-10.06158 -23.5892,-17.32373 -37.65628,-21.096431 -0.91344,3.437198 -1.8268,6.874386 -2.74019,10.311584 z"
       id="yG"
       inkscape:connector-curvature="0"
       inkscape:label="" />
    <path
       style="vector-effect:none;fill:#cfcfcf;fill-opacity:1;stroke:#000000;stroke-width:0.57176399;stroke-linecap:butt;stroke-linejoin:miter;stroke-miterlimit:4;stroke-dasharray:none;stroke-dashoffset:0;stroke-opacity:1"
       d="m 132.98782,46.255076 c 14.52638,3.890033 28.06262,11.463582 38.90202,21.89679 2.71823,-2.800923 5.43646,-5.601804 8.15468,-8.402711 -12.1147,-12.067588 -27.42183,-20.816317 -43.94512,-25.20235 -1.03721,3.902761 -2.07436,7.805511 -3.11158,11.708271 z"
       id="zG"
       inkscape:connector-curvature="0"
       inkscape:label="" />
    <path
       style="vector-effect:none;fill:#cfcfcf;fill-opacity:1;stroke:#000000;stroke-width:0.57176399;stroke-linecap:butt;stroke-linejoin:miter;stroke-miterlimit:4;stroke-dasharray:none;stroke-dashoffset:0;stroke-opacity:1"
       d="m 127.39706,115.83501 c 2.62678,2.6438 4.6691,5.87366 5.8913,9.39652 3.43652,-0.93422 6.87258,-1.87015 10.30894,-2.80502 -1.66507,-5.18891 -4.67156,-10.14534 -8.6717,-14.15117 -2.50951,2.5199 -5.01903,5.03978 -7.52852,7.55972 z"
       id="uD"
       inkscape:connector-curvature="0"
       inkscape:label="" />
    <path
       style="vector-effect:none;fill:#cfcfcf;fill-opacity:1;stroke:#000000;stroke-width:0.57176399;stroke-linecap:butt;stroke-linejoin:miter;stroke-miterlimit:4;stroke-dasharray:none;stroke-dashoffset:0;stroke-opacity:1"
       d="m 136.53878,106.65452 c 4.23116,4.235 7.44888,9.48078 9.27232,15.18453 3.23075,-1.12827 7.75557,-1.62557 10.20423,-3.13543 -2.32276,-7.32876 -6.4364,-14.10112 -11.94885,-19.607459 -2.50922,2.519419 -5.01847,5.038909 -7.5277,7.558359 z"
       id="vD"
       inkscape:connector-curvature="0"
       inkscape:label="" />
    <path
       style="vector-effect:none;fill:#cfcfcf;fill-opacity:1;stroke:#000000;stroke-width:0.57176399;stroke-linecap:butt;stroke-linejoin:miter;stroke-miterlimit:4;stroke-dasharray:none;stroke-dashoffset:0;stroke-opacity:1"
       d="m 145.6808,97.475099 c 5.83454,5.825861 10.23261,13.085631 12.6495,20.971271 3.43349,-0.93568 6.8665,-1.87301 10.29968,-2.80948 -2.88991,-9.61466 -8.22468,-18.544997 -15.42033,-25.720412 -2.50963,2.51954 -5.01924,5.039112 -7.52884,7.558668 z"
       id="wD"
       inkscape:connector-curvature="0"
       inkscape:label="" />
    <path
       style="vector-effect:none;fill:#cfcfcf;fill-opacity:1;stroke:#000000;stroke-width:0.57176399;stroke-linecap:butt;stroke-linejoin:miter;stroke-miterlimit:4;stroke-dasharray:none;stroke-dashoffset:0;stroke-opacity:1"
       d="m 154.82282,88.295659 c 7.43595,7.418284 13.01394,16.691791 16.02028,26.759731 3.40761,-0.94888 6.89679,-1.85026 10.25406,-2.82858 -3.49529,-11.83857 -9.98715,-22.718726 -18.74662,-31.489566 -2.50924,2.519458 -5.01846,5.038921 -7.52772,7.558384 z"
       id="xD"
       inkscape:connector-curvature="0"
       inkscape:label="" />
    <path
       style="vector-effect:none;fill:#cfcfcf;fill-opacity:1;stroke:#000000;stroke-width:0.57176399;stroke-linecap:butt;stroke-linejoin:miter;stroke-miterlimit:4;stroke-dasharray:none;stroke-dashoffset:0;stroke-opacity:1"
       d="m 163.96377,79.116553 c 9.03343,9.038072 15.78643,20.349304 19.37505,32.618337 3.29741,-1.08714 7.41358,-1.71393 10.21714,-3.07876 -4.10207,-13.96697 -11.75922,-26.790886 -22.06336,-37.09826 -2.50961,2.519562 -5.01922,5.039123 -7.52883,7.558683 z"
       id="yD"
       inkscape:connector-curvature="0"
       inkscape:label="" />
    <path
       style="vector-effect:none;fill:#cfcfcf;fill-opacity:1;stroke:#000000;stroke-width:0.57176399;stroke-linecap:butt;stroke-linejoin:miter;stroke-miterlimit:4;stroke-dasharray:none;stroke-dashoffset:0;stroke-opacity:1"
       d="m 173.10581,69.937117 c 10.63711,10.630984 18.57115,23.959854 22.74213,38.414703 3.75437,-1.06683 7.50878,-2.1337 11.26317,-3.20052 -4.45351,-16.51058 -13.34497,-31.736087 -25.45652,-43.798684 -2.84959,2.861551 -5.69921,5.72307 -8.54875,8.58461 z"
       id="zD"
       inkscape:connector-curvature="0"
       inkscape:label="" />
    <path
       style="vector-effect:none;fill:#cfcfcf;fill-opacity:1;stroke:#000000;stroke-width:0.57176399;stroke-linecap:butt;stroke-linejoin:miter;stroke-miterlimit:4;stroke-dasharray:none;stroke-dashoffset:0;stroke-opacity:1"
       d="m 133.47463,127.39791 c 0.95429,3.60331 1.10668,7.42283 0.40366,11.08545 3.44351,0.90819 6.88699,1.81646 10.33051,2.72466 1.1762,-5.53662 0.99965,-11.22989 -0.43514,-16.59174 -3.43317,0.92663 -6.86633,1.85328 -10.29896,2.78199 z"
       id="uA"
       inkscape:connector-curvature="0"
       inkscape:label="" />
    <path
       style="vector-effect:none;fill:#cfcfcf;fill-opacity:1;stroke:#000000;stroke-width:0.57176399;stroke-linecap:butt;stroke-linejoin:miter;stroke-miterlimit:4;stroke-dasharray:none;stroke-dashoffset:0;stroke-opacity:1"
       d="m 145.98267,124.01978 c 1.5494,5.78253 1.70812,11.93438 0.43849,17.78625 3.37425,0.64209 7.4561,2.45003 10.40331,2.38839 1.65629,-7.4816 1.46814,-15.50472 -0.54306,-22.95735 -3.43315,0.92665 -6.86576,1.85535 -10.29876,2.78264 z"
       id="vA"
       inkscape:connector-curvature="0"
       inkscape:label="" />
    <path
       style="vector-effect:none;fill:#cfcfcf;fill-opacity:1;stroke:#000000;stroke-width:0.57176399;stroke-linecap:butt;stroke-linejoin:miter;stroke-miterlimit:4;stroke-dasharray:none;stroke-dashoffset:0;stroke-opacity:1"
       d="m 158.48936,120.64083 c 2.14026,7.96246 2.31988,16.44974 0.46859,24.48719 3.44155,0.90528 6.88311,1.81057 10.32465,2.71584 2.32821,-9.91025 2.12459,-20.26286 -0.49522,-29.98435 -3.43283,0.92655 -6.86506,1.85515 -10.29791,2.78171 z"
       id="wA"
       inkscape:connector-curvature="0"
       inkscape:label="" />
    <path
       style="vector-effect:none;fill:#cfcfcf;fill-opacity:1;stroke:#000000;stroke-width:0.57176399;stroke-linecap:butt;stroke-linejoin:miter;stroke-miterlimit:4;stroke-dasharray:none;stroke-dashoffset:0;stroke-opacity:1"
       d="m 170.99505,117.26217 c 2.73319,10.14197 2.92583,20.96375 0.49452,31.18576 3.42846,0.89508 6.8724,1.81505 10.29123,2.69476 2.90823,-12.05056 2.70373,-24.71829 -0.48809,-36.66291 -3.43278,0.92655 -6.86505,1.85516 -10.29768,2.78232 z"
       id="xA"
       inkscape:connector-curvature="0"
       inkscape:label="" />
    <path
       style="vector-effect:none;fill:#cfcfcf;fill-opacity:1;stroke:#000000;stroke-width:0.57176399;stroke-linecap:butt;stroke-linejoin:miter;stroke-miterlimit:4;stroke-dasharray:none;stroke-dashoffset:0;stroke-opacity:1"
       d="m 183.50068,113.88352 c 3.30736,12.34339 3.49794,25.51682 0.47107,37.93686 3.39903,0.70664 7.27723,2.2221 10.3874,2.44124 3.42413,-14.06836 3.21646,-29.12435 -0.55834,-43.16 -3.43355,0.92674 -6.86647,1.85555 -10.30003,2.7823 z"
       id="yA"
       inkscape:connector-curvature="0"
       inkscape:label="" />
    <path
       style="vector-effect:none;fill:#cfcfcf;fill-opacity:1;stroke:#000000;stroke-width:0.57176399;stroke-linecap:butt;stroke-linejoin:miter;stroke-miterlimit:4;stroke-dasharray:none;stroke-dashoffset:0;stroke-opacity:1"
       d="m 196.0085,110.5043 c 3.89847,14.52432 4.10459,30.0357 0.48763,44.63912 3.78523,0.95385 7.57042,1.90772 11.35558,2.8616 4.39693,-16.52108 4.30497,-34.216 -0.14709,-50.66014 -3.89857,1.05357 -7.79719,2.10715 -11.6961,3.15947 z"
       id="zA"
       inkscape:connector-curvature="0"
       inkscape:label="" />
    <path
       style="vector-effect:none;fill:#cfcfcf;fill-opacity:1;stroke:#000000;stroke-width:0.57176399;stroke-linecap:butt;stroke-linejoin:miter;stroke-miterlimit:4;stroke-dasharray:none;stroke-dashoffset:0;stroke-opacity:1"
       d="m 132.78058,141.07007 c -1.00635,3.36603 -2.71708,6.52467 -5.01583,9.18371 2.52809,2.50847 5.05617,5.01695 7.58428,7.52546 3.74672,-4.14551 6.49033,-9.24409 7.91739,-14.58683 -3.43687,-0.91385 -6.87378,-1.82771 -10.31068,-2.74155 l -0.15559,0.55018 z"
       id="uE"
       inkscape:connector-curvature="0"
       inkscape:label="" />
    <path
       style="vector-effect:none;fill:#cfcfcf;fill-opacity:1;stroke:#000000;stroke-width:0.57176399;stroke-linecap:butt;stroke-linejoin:miter;stroke-miterlimit:4;stroke-dasharray:none;stroke-dashoffset:0;stroke-opacity:1"
       d="m 145.35349,144.23326 c -1.583,5.61034 -4.46777,10.85311 -8.38924,15.16874 2.6041,2.23347 5.23878,5.88227 7.82445,7.26115 5.20879,-5.71533 8.99575,-12.64445 10.99975,-20.14363 -3.43681,-0.91348 -6.87361,-1.82698 -10.31038,-2.74049 z"
       id="vE"
       inkscape:connector-curvature="0"
       inkscape:label="" />
    <path
       style="vector-effect:none;fill:#cfcfcf;fill-opacity:1;stroke:#000000;stroke-width:0.57176399;stroke-linecap:butt;stroke-linejoin:miter;stroke-miterlimit:4;stroke-dasharray:none;stroke-dashoffset:0;stroke-opacity:1"
       d="m 157.81599,147.77403 c -2.17763,7.71277 -6.19006,14.90793 -11.65526,20.77357 2.52784,2.50471 5.05568,5.00944 7.58354,7.51412 6.92677,-7.35147 11.94807,-16.42967 14.56403,-26.21452 -3.4367,-0.9131 -6.87337,-1.82626 -10.31011,-2.73939 l -0.15081,0.55153 z"
       id="wE"
       inkscape:connector-curvature="0"
       inkscape:label="" />
    <path
       style="vector-effect:none;fill:#cfcfcf;fill-opacity:1;stroke:#000000;stroke-width:0.57176399;stroke-linecap:butt;stroke-linejoin:miter;stroke-miterlimit:4;stroke-dasharray:none;stroke-dashoffset:0;stroke-opacity:1"
       d="m 170.27711,151.31399 c -2.76858,9.81636 -7.91665,18.95836 -14.92354,26.37443 2.51302,2.48107 5.09227,5.05431 7.56482,7.47864 8.40089,-8.78662 14.75759,-20.11878 17.90978,-31.99214 -3.43646,-0.91359 -6.87289,-1.8272 -10.3093,-2.74078 l -0.15144,0.55133 z"
       id="xE"
       inkscape:connector-curvature="0"
       inkscape:label="" />
    <path
       style="vector-effect:none;fill:#cfcfcf;fill-opacity:1;stroke:#000000;stroke-width:0.57176399;stroke-linecap:butt;stroke-linejoin:miter;stroke-miterlimit:4;stroke-dasharray:none;stroke-dashoffset:0;stroke-opacity:1"
       d="m 182.77369,154.72306 c -3.38138,11.97753 -9.69397,23.12658 -18.29673,32.12704 2.59032,2.31141 5.19299,5.5662 7.77591,7.30882 10.0616,-10.55766 17.3242,-23.58963 21.09621,-37.65662 -3.43714,-0.91336 -6.87429,-1.82678 -10.31148,-2.74018 l -0.15144,0.55133 z"
       id="yE"
       inkscape:connector-curvature="0"
       inkscape:label="" />
    <path
       style="vector-effect:none;fill:#cfcfcf;fill-opacity:1;stroke:#000000;stroke-width:0.57176399;stroke-linecap:butt;stroke-linejoin:miter;stroke-miterlimit:4;stroke-dasharray:none;stroke-dashoffset:0;stroke-opacity:1"
       d="m 195.23724,158.26353 c -3.97874,14.08092 -11.42278,27.18119 -21.5742,37.72805 2.80085,2.71825 5.60174,5.43651 8.40261,8.15478 12.06686,-12.11514 20.81743,-27.42142 25.20219,-43.94549 -3.90275,-1.03723 -7.80547,-2.07445 -11.7082,-3.11164 -0.10741,0.39142 -0.21502,0.78287 -0.3224,1.1743 z"
       id="zE"
       inkscape:connector-curvature="0"
       inkscape:label="" />
    <path
       style="vector-effect:none;fill:#cfcfcf;fill-opacity:1;stroke:#000000;stroke-width:0.57176399;stroke-linecap:butt;stroke-linejoin:miter;stroke-miterlimit:4;stroke-dasharray:none;stroke-dashoffset:0;stroke-opacity:1"
       d="m 125.51967,151.94555 c -2.55554,2.41034 -5.61493,4.2928 -8.93587,5.44426 0.93422,3.43653 1.86992,6.8727 2.80478,10.30907 5.19065,-1.66609 10.14516,-4.67151 14.15107,-8.67179 -2.51991,-2.50951 -5.03974,-5.01906 -7.55965,-7.5286 l -0.41029,0.39828 z"
       id="uB"
       inkscape:connector-curvature="0"
       inkscape:label="" />
    <path
       style="vector-effect:none;fill:#cfcfcf;fill-opacity:1;stroke:#000000;stroke-width:0.57176399;stroke-linecap:butt;stroke-linejoin:miter;stroke-miterlimit:4;stroke-dasharray:none;stroke-dashoffset:0;stroke-opacity:1"
       d="m 134.82523,160.97176 c -4.17566,4.06738 -9.29495,7.16547 -14.849,8.94087 1.12829,3.23078 1.6256,7.75566 3.13543,10.20433 7.32867,-2.32284 14.10103,-6.43641 19.60735,-11.94891 -2.51948,-2.50927 -5.0389,-5.01856 -7.55836,-7.52781 z"
       id="vB"
       inkscape:connector-curvature="0"
       inkscape:label="" />
    <path
       style="vector-effect:none;fill:#cfcfcf;fill-opacity:1;stroke:#000000;stroke-width:0.57176399;stroke-linecap:butt;stroke-linejoin:miter;stroke-miterlimit:4;stroke-dasharray:none;stroke-dashoffset:0;stroke-opacity:1"
       d="m 143.84844,170.26898 c -5.7415,5.59111 -12.81378,9.81526 -20.4798,12.16189 0.93575,3.43385 1.87315,6.86723 2.80975,10.30083 9.61456,-2.88998 18.54483,-8.22474 25.72017,-15.42049 -2.51951,-2.50962 -5.03908,-5.01924 -7.55858,-7.52888 l -0.40639,0.40228 z"
       id="wB"
       inkscape:connector-curvature="0"
       inkscape:label="" />
    <path
       style="vector-effect:none;fill:#cfcfcf;fill-opacity:1;stroke:#000000;stroke-width:0.57176399;stroke-linecap:butt;stroke-linejoin:miter;stroke-miterlimit:4;stroke-dasharray:none;stroke-dashoffset:0;stroke-opacity:1"
       d="m 152.86921,179.56572 c -7.30519,7.11709 -16.33388,12.45921 -26.10936,15.37909 0.94865,3.40774 1.85442,6.89577 2.82855,10.25416 11.84007,-3.49618 22.71809,-9.98697 31.48933,-18.74675 -2.51948,-2.50924 -5.0389,-5.01854 -7.55834,-7.52778 l -0.40705,0.40147 z"
       id="xB"
       inkscape:connector-curvature="0"
       inkscape:label="" />
    <path
       style="vector-effect:none;fill:#cfcfcf;fill-opacity:1;stroke:#000000;stroke-width:0.57176399;stroke-linecap:butt;stroke-linejoin:miter;stroke-miterlimit:4;stroke-dasharray:none;stroke-dashoffset:0;stroke-opacity:1"
       d="m 161.98881,188.76543 c -8.9169,8.68291 -19.95879,15.17964 -31.90844,18.67526 1.07346,3.29486 1.74634,7.43846 3.06146,10.22183 13.90406,-4.0728 26.81855,-11.75801 37.11521,-22.06819 -2.51952,-2.50966 -5.03908,-5.01925 -7.5586,-7.52888 l -0.40703,0.40153 z"
       id="yB"
       inkscape:connector-curvature="0"
       inkscape:label="" />
    <path
       style="vector-effect:none;fill:#cfcfcf;fill-opacity:1;stroke:#000000;stroke-width:0.57176399;stroke-linecap:butt;stroke-linejoin:miter;stroke-miterlimit:4;stroke-dasharray:none;stroke-dashoffset:0;stroke-opacity:1"
       d="m 171.01094,198.06295 c -10.48431,10.20759 -23.48321,17.82841 -37.54758,21.88693 1.06684,3.75441 2.13369,7.50883 3.20052,11.26323 16.50829,-4.45676 31.73704,-13.34315 43.79831,-25.45668 -2.86147,-2.84965 -5.72299,-5.69927 -8.58452,-8.54884 -0.28897,0.28502 -0.5779,0.57025 -0.86682,0.85541 z"
       id="zB"
       inkscape:connector-curvature="0"
       inkscape:label="" />
    <path
       style="vector-effect:none;fill:#cfcfcf;fill-opacity:1;stroke:#000000;stroke-width:0.57176399;stroke-linecap:butt;stroke-linejoin:miter;stroke-miterlimit:4;stroke-dasharray:none;stroke-dashoffset:0;stroke-opacity:1"
       d="m 100.60881,168.31107 c 5.53826,1.17413 11.22786,0.99936 16.59021,-0.4359 -0.92663,-3.43321 -1.85534,-6.86585 -2.78197,-10.29904 -3.60342,0.95212 -7.42155,1.1064 -11.08396,0.40452 -0.90819,3.44351 -1.81646,6.88703 -2.72468,10.33052 z"
       id="uGb"
       inkscape:connector-curvature="0"
       inkscape:label="" />
    <path
       style="vector-effect:none;fill:#cfcfcf;fill-opacity:1;stroke:#000000;stroke-width:0.57176399;stroke-linecap:butt;stroke-linejoin:miter;stroke-miterlimit:4;stroke-dasharray:none;stroke-dashoffset:0;stroke-opacity:1"
       d="m 97.288499,180.84989 c 7.646851,1.74827 15.716501,1.5651 23.289751,-0.46683 -0.92675,-3.43356 -1.85554,-6.86655 -2.78288,-10.29994 -5.78259,1.54945 -11.9341,1.7082 -17.78585,0.43954 -0.906978,3.44241 -1.813976,6.88479 -2.720943,10.3272 z"
       id="vGb"
       inkscape:connector-curvature="0"
       inkscape:label="" />
    <path
       style="vector-effect:none;fill:#cfcfcf;fill-opacity:1;stroke:#000000;stroke-width:0.57176399;stroke-linecap:butt;stroke-linejoin:miter;stroke-miterlimit:4;stroke-dasharray:none;stroke-dashoffset:0;stroke-opacity:1"
       d="m 93.971656,193.38428 c 9.911274,2.32857 20.262034,2.12448 29.984114,-0.49518 -0.92654,-3.43284 -1.85515,-6.86513 -2.78166,-10.29794 -7.96299,2.13816 -16.4496,2.31984 -24.487026,0.46854 -0.905262,3.44157 -1.810558,6.88314 -2.715817,10.3247 z"
       id="wGb"
       inkscape:connector-curvature="0"
       inkscape:label="" />
    <path
       style="vector-effect:none;fill:#cfcfcf;fill-opacity:1;stroke:#000000;stroke-width:0.57176399;stroke-linecap:butt;stroke-linejoin:miter;stroke-miterlimit:4;stroke-dasharray:none;stroke-dashoffset:0;stroke-opacity:1"
       d="m 90.666357,205.87976 c 12.084073,2.91334 24.681073,2.70818 36.669103,-0.48519 -0.92653,-3.43284 -1.85516,-6.86511 -2.78231,-10.29779 -10.1425,2.73112 -20.96325,2.92484 -31.185493,0.49454 -0.900439,3.42947 -1.800881,6.85896 -2.701257,10.28844 z"
       id="xGb"
       inkscape:connector-curvature="0"
       inkscape:label="" />
    <path
       style="vector-effect:none;fill:#cfcfcf;fill-opacity:1;stroke:#000000;stroke-width:0.57176399;stroke-linecap:butt;stroke-linejoin:miter;stroke-miterlimit:4;stroke-dasharray:none;stroke-dashoffset:0;stroke-opacity:1"
       d="m 87.323301,218.40268 c 14.135099,3.48784 29.278169,3.29365 43.390329,-0.49996 -0.92672,-3.43353 -1.85552,-6.86653 -2.78225,-10.30009 -12.3439,3.30532 -25.51656,3.49826 -37.936571,0.47102 -0.890594,3.44305 -1.781244,6.8861 -2.671836,10.32913 z"
       id="yGb"
       inkscape:connector-curvature="0"
       inkscape:label="" />
    <path
       style="vector-effect:none;fill:#cfcfcf;fill-opacity:1;stroke:#000000;stroke-width:0.57176399;stroke-linecap:butt;stroke-linejoin:miter;stroke-miterlimit:4;stroke-dasharray:none;stroke-dashoffset:0;stroke-opacity:1"
       d="m 83.81061,231.95376 c 16.52099,4.39558 34.2159,4.30401 50.65974,-0.14709 -1.05361,-3.89867 -2.10717,-7.79726 -3.15948,-11.69623 -14.52477,3.89639 -30.03552,4.10464 -44.63876,0.48763 -0.953866,3.78523 -1.907681,7.57046 -2.861551,11.35569 z"
       id="zGb"
       inkscape:connector-curvature="0"
       inkscape:label="" />
    <path
       style="vector-effect:none;fill:#cfcfcf;fill-opacity:1;stroke:#000000;stroke-width:0.57176399;stroke-linecap:butt;stroke-linejoin:miter;stroke-miterlimit:4;stroke-dasharray:none;stroke-dashoffset:0;stroke-opacity:1"
       d="m 84.036394,159.45049 c 4.147211,3.74167 9.193869,6.47053 14.586981,7.91854 0.913756,-3.43729 1.827475,-6.87457 2.741235,-10.31187 -3.598525,-0.97324 -6.981157,-2.7527 -9.802805,-5.19105 -2.508488,2.52813 -5.016977,5.05624 -7.525411,7.58438 z"
       id="uDb"
       inkscape:connector-curvature="0"
       inkscape:label="" />
    <path
       style="vector-effect:none;fill:#cfcfcf;fill-opacity:1;stroke:#000000;stroke-width:0.57176399;stroke-linecap:butt;stroke-linejoin:miter;stroke-miterlimit:4;stroke-dasharray:none;stroke-dashoffset:0;stroke-opacity:1"
       d="m 74.892773,168.64996 c 5.728236,5.31452 12.814354,9.21559 20.403217,11.24011 0.913523,-3.43682 1.826969,-6.87366 2.740462,-10.31051 -5.781573,-1.55261 -11.19098,-4.48694 -15.622857,-8.51384 -2.506905,2.52808 -5.013863,5.05618 -7.520822,7.58424 z"
       id="vDb"
       inkscape:connector-curvature="0"
       inkscape:label="" />
    <path
       style="vector-effect:none;fill:#cfcfcf;fill-opacity:1;stroke:#000000;stroke-width:0.57176399;stroke-linecap:butt;stroke-linejoin:miter;stroke-miterlimit:4;stroke-dasharray:none;stroke-dashoffset:0;stroke-opacity:1"
       d="m 65.754044,177.84586 c 7.351677,6.92701 16.429121,11.94793 26.214266,14.56418 0.913126,-3.43675 1.826295,-6.87348 2.739421,-10.31022 -7.96472,-2.12953 -15.405347,-6.21573 -21.439674,-11.83755 -2.504655,2.52787 -5.009365,5.05572 -7.514013,7.58359 z"
       id="wDb"
       inkscape:connector-curvature="0"
       inkscape:label="" />
    <path
       style="vector-effect:none;fill:#cfcfcf;fill-opacity:1;stroke:#000000;stroke-width:0.57176399;stroke-linecap:butt;stroke-linejoin:miter;stroke-miterlimit:4;stroke-dasharray:none;stroke-dashoffset:0;stroke-opacity:1"
       d="m 56.642706,187.01473 c 8.791356,8.40575 20.122531,14.76236 31.997974,17.91525 0.913551,-3.43645 1.827146,-6.87294 2.740749,-10.30942 -10.149055,-2.70588 -19.61712,-7.94886 -27.254079,-15.16536 -2.494895,2.51984 -4.989743,5.0397 -7.484644,7.55953 z"
       id="xDb"
       inkscape:connector-curvature="0"
       inkscape:label="" />
    <path
       style="vector-effect:none;fill:#cfcfcf;fill-opacity:1;stroke:#000000;stroke-width:0.57176399;stroke-linecap:butt;stroke-linejoin:miter;stroke-miterlimit:4;stroke-dasharray:none;stroke-dashoffset:0;stroke-opacity:1"
       d="m 47.485451,196.18898 c 10.584863,10.14814 23.68479,17.46861 37.827838,21.26205 0.91341,-3.43721 1.826763,-6.87438 2.74017,-10.31158 -12.341878,-3.30972 -23.847007,-9.72853 -33.087751,-18.56086 -2.493439,2.5368 -4.986872,5.07364 -7.480257,7.61039 z"
       id="yDb"
       inkscape:connector-curvature="0"
       inkscape:label="" />
    <path
       style="vector-effect:none;fill:#cfcfcf;fill-opacity:1;stroke:#000000;stroke-width:0.57176399;stroke-linecap:butt;stroke-linejoin:miter;stroke-miterlimit:4;stroke-dasharray:none;stroke-dashoffset:0;stroke-opacity:1"
       d="m 37.669641,206.16749 c 12.115011,12.06698 27.421168,20.81759 43.945128,25.20235 1.037211,-3.90274 2.07437,-7.80551 3.111582,-11.70826 -14.52625,-3.88994 -28.062623,-11.46362 -38.902026,-21.89679 -2.718232,2.80091 -5.436453,5.6018 -8.154684,8.4027 z"
       id="zDb"
       inkscape:connector-curvature="0"
       inkscape:label="" />
    <path
       style="vector-effect:none;fill:#cfcfcf;fill-opacity:1;stroke:#000000;stroke-width:0.57176399;stroke-linecap:butt;stroke-linejoin:miter;stroke-miterlimit:4;stroke-dasharray:none;stroke-dashoffset:0;stroke-opacity:1"
       d="m 74.116882,143.4902 c 1.667208,5.19203 4.67156,10.14536 8.671708,14.15118 2.509508,-2.51992 5.019012,-5.03985 7.528508,-7.55975 -2.626781,-2.6438 -4.669092,-5.87366 -5.891292,-9.39652 -3.436517,0.93425 -6.872585,1.87015 -10.308933,2.80504 z"
       id="uAb"
       inkscape:connector-curvature="0"
       inkscape:label="" />
    <path
       style="vector-effect:none;fill:#cfcfcf;fill-opacity:1;stroke:#000000;stroke-width:0.57176399;stroke-linecap:butt;stroke-linejoin:miter;stroke-miterlimit:4;stroke-dasharray:none;stroke-dashoffset:0;stroke-opacity:1"
       d="m 61.59745,146.8864 c 2.277754,7.39509 6.455221,14.35905 12.05023,19.9341 2.509216,-2.51944 5.018485,-5.03892 7.527697,-7.55837 -4.231304,-4.23493 -7.448556,-9.48091 -9.272319,-15.18453 -3.435239,0.93611 -6.87042,1.87249 -10.305605,2.80882 z"
       id="vAb"
       inkscape:connector-curvature="0"
       inkscape:label="" />
    <path
       style="vector-effect:none;fill:#cfcfcf;fill-opacity:1;stroke:#000000;stroke-width:0.57176399;stroke-linecap:butt;stroke-linejoin:miter;stroke-miterlimit:4;stroke-dasharray:none;stroke-dashoffset:0;stroke-opacity:1"
       d="m 49.084188,150.27982 c 2.889942,9.61466 8.224694,18.54497 15.42037,25.7204 2.509598,-2.51956 5.019203,-5.03909 7.528803,-7.55867 C 66.199599,162.61546 61.799344,155.3564 59.384917,147.47 c -3.433804,0.93577 -6.867161,1.87319 -10.300739,2.80977 z"
       id="wAb"
       inkscape:connector-curvature="0"
       inkscape:label="" />
    <path
       style="vector-effect:none;fill:#cfcfcf;fill-opacity:1;stroke:#000000;stroke-width:0.57176399;stroke-linecap:butt;stroke-linejoin:miter;stroke-miterlimit:4;stroke-dasharray:none;stroke-dashoffset:0;stroke-opacity:1"
       d="m 36.610622,153.66607 c 3.479307,11.81466 9.976478,22.72649 18.752969,31.51328 2.509269,-2.51946 5.018481,-5.03893 7.527751,-7.55841 -7.435957,-7.41825 -13.013956,-16.69172 -16.020267,-26.7597 -3.420265,0.93438 -6.840305,1.86981 -10.260458,2.8048 z"
       id="xAb"
       inkscape:connector-curvature="0"
       inkscape:label="" />
    <path
       style="vector-effect:none;fill:#cfcfcf;fill-opacity:1;stroke:#000000;stroke-width:0.57176399;stroke-linecap:butt;stroke-linejoin:miter;stroke-miterlimit:4;stroke-dasharray:none;stroke-dashoffset:0;stroke-opacity:1"
       d="m 24.094436,157.03133 c 4.051738,13.98833 11.766684,26.97788 22.127133,37.32744 2.509602,-2.51957 5.019207,-5.0391 7.528807,-7.55866 -9.033415,-9.03807 -15.786415,-20.34931 -19.37504,-32.61833 -3.426961,0.9498 -6.853922,1.8996 -10.280881,2.84962 z"
       id="yAb"
       inkscape:connector-curvature="0"
       inkscape:label="" />
    <path
       style="vector-effect:none;fill:#cfcfcf;fill-opacity:1;stroke:#000000;stroke-width:0.57176399;stroke-linecap:butt;stroke-linejoin:miter;stroke-miterlimit:4;stroke-dasharray:none;stroke-dashoffset:0;stroke-opacity:1"
       d="m 10.603084,160.76545 c 4.453555,16.51056 13.344994,31.73607 25.456513,43.79866 2.849604,-2.86152 5.699211,-5.72306 8.54876,-8.58459 -10.636835,-10.63126 -18.571405,-23.95974 -22.742134,-38.41471 -3.754369,1.06684 -7.508795,2.13371 -11.263163,3.20054 z"
       id="zAb"
       inkscape:connector-curvature="0"
       inkscape:label="" />
    <path
       style="vector-effect:none;fill:#cfcfcf;fill-opacity:1;stroke:#000000;stroke-width:0.57176399;stroke-linecap:butt;stroke-linejoin:miter;stroke-miterlimit:4;stroke-dasharray:none;stroke-dashoffset:0;stroke-opacity:1"
       d="m 73.409205,125.17371 c -1.071002,5.39287 -0.85994,10.92424 0.531299,16.12665 3.43317,-0.92664 6.865781,-1.85538 10.298948,-2.78199 -0.952955,-3.60327 -1.106385,-7.42162 -0.404506,-11.08406 -3.443463,-0.90825 -6.886975,-1.81647 -10.330431,-2.72472 z"
       id="uEb"
       inkscape:connector-curvature="0"
       inkscape:label="" />
    <path
       style="vector-effect:none;fill:#cfcfcf;fill-opacity:1;stroke:#000000;stroke-width:0.57176399;stroke-linecap:butt;stroke-linejoin:miter;stroke-miterlimit:4;stroke-dasharray:none;stroke-dashoffset:0;stroke-opacity:1"
       d="m 60.889697,121.72222 c -1.655894,7.48136 -1.467977,15.50464 0.54304,22.95735 3.43317,-0.92665 6.865779,-1.85537 10.298777,-2.78262 -1.54942,-5.78258 -1.708224,-11.93428 -0.438461,-17.78625 -3.355188,-0.65062 -7.483306,-2.43778 -10.403331,-2.38839 z"
       id="vEb"
       inkscape:connector-curvature="0"
       inkscape:label="" />
    <path
       style="vector-effect:none;fill:#cfcfcf;fill-opacity:1;stroke:#000000;stroke-width:0.57176399;stroke-linecap:butt;stroke-linejoin:miter;stroke-miterlimit:4;stroke-dasharray:none;stroke-dashoffset:0;stroke-opacity:1"
       d="m 48.262025,118.81188 c -2.144819,9.6711 -1.891897,19.74406 0.664754,29.24526 3.432836,-0.92654 6.865621,-1.85306 10.297898,-2.7817 -2.139405,-7.96273 -2.31949,-16.44969 -0.468584,-24.4872 -3.441539,-0.90528 -6.883082,-1.81056 -10.324622,-2.71583 l -0.127828,0.55725 z"
       id="wEb"
       inkscape:connector-curvature="0"
       inkscape:label="" />
    <path
       style="vector-effect:none;fill:#cfcfcf;fill-opacity:1;stroke:#000000;stroke-width:0.57176399;stroke-linecap:butt;stroke-linejoin:miter;stroke-miterlimit:4;stroke-dasharray:none;stroke-dashoffset:0;stroke-opacity:1"
       d="m 35.93338,114.77397 c -2.907753,12.05036 -2.703731,24.71879 0.488075,36.66291 3.43278,-0.92654 6.865059,-1.85518 10.297671,-2.78232 -2.732943,-10.14197 -2.925363,-20.96375 -0.494516,-31.18577 -3.428458,-0.89512 -6.872382,-1.81504 -10.291206,-2.69475 z"
       id="xEb"
       inkscape:connector-curvature="0"
       inkscape:label="" />
    <path
       style="vector-effect:none;fill:#cfcfcf;fill-opacity:1;stroke:#000000;stroke-width:0.57176399;stroke-linecap:butt;stroke-linejoin:miter;stroke-miterlimit:4;stroke-dasharray:none;stroke-dashoffset:0;stroke-opacity:1"
       d="m 23.359274,111.63655 c -3.428077,14.07406 -3.222143,29.13685 0.554062,43.17845 3.433557,-0.92672 6.867056,-1.85343 10.300051,-2.78227 -3.307373,-12.34338 -3.497828,-25.51679 -0.471074,-37.93688 -3.394908,-0.72882 -7.256702,-2.17636 -10.38314,-2.45969 z"
       id="yEb"
       inkscape:connector-curvature="0"
       inkscape:label="" />
    <path
       style="vector-effect:none;fill:#cfcfcf;fill-opacity:1;stroke:#000000;stroke-width:0.57176399;stroke-linecap:butt;stroke-linejoin:miter;stroke-miterlimit:4;stroke-dasharray:none;stroke-dashoffset:0;stroke-opacity:1"
       d="m 9.7093359,108.50529 c -4.2465399,16.34927 -4.0933239,33.81988 0.3002221,50.0665 3.898568,-1.05359 7.79719,-2.10717 11.696093,-3.15951 -3.897626,-14.52452 -4.1045,-30.03578 -0.487634,-44.6391 -3.785213,-0.95387 -7.570421,-1.90772 -11.3555783,-2.86161 l -0.142817,0.55368 z"
       id="zEb"
       inkscape:connector-curvature="0"
       inkscape:label="" />
    <path
       style="vector-effect:none;fill:#cfcfcf;fill-opacity:1;stroke:#000000;stroke-width:0.57176399;stroke-linecap:butt;stroke-linejoin:miter;stroke-miterlimit:4;stroke-dasharray:none;stroke-dashoffset:0;stroke-opacity:1"
       d="m 82.05065,108.49104 c -3.579852,4.07908 -6.197751,8.99211 -7.6029,14.2332 3.436861,0.91387 6.873767,1.82772 10.310675,2.74153 0.973299,-3.59851 2.7527,-6.98116 5.190981,-9.80288 -2.528072,-2.50851 -5.056168,-5.01698 -7.584251,-7.52546 z"
       id="uBb"
       inkscape:connector-curvature="0"
       inkscape:label="" />
    <path
       style="vector-effect:none;fill:#cfcfcf;fill-opacity:1;stroke:#000000;stroke-width:0.57176399;stroke-linecap:butt;stroke-linejoin:miter;stroke-miterlimit:4;stroke-dasharray:none;stroke-dashoffset:0;stroke-opacity:1"
       d="m 72.933472,99.244455 c -5.192189,5.682975 -9.013767,12.672855 -11.00777,20.152685 3.436813,0.91347 6.873631,1.82697 10.310389,2.74047 1.552617,-5.7816 4.486944,-11.19109 8.513814,-15.62297 -2.58083,-2.24056 -5.262093,-5.85553 -7.816433,-7.270185 z"
       id="vBb"
       inkscape:connector-curvature="0"
       inkscape:label="" />
    <path
       style="vector-effect:none;fill:#cfcfcf;fill-opacity:1;stroke:#000000;stroke-width:0.57176399;stroke-linecap:butt;stroke-linejoin:miter;stroke-miterlimit:4;stroke-dasharray:none;stroke-dashoffset:0;stroke-opacity:1"
       d="m 63.453407,90.40837 c -6.656973,7.250606 -11.49828,16.12133 -14.047544,25.66108 3.436715,0.9131 6.873384,1.82626 10.310095,2.73936 2.129494,-7.96472 6.215685,-15.40543 11.837464,-21.439777 -2.527839,-2.504707 -5.055673,-5.009399 -7.583513,-7.514121 l -0.390128,0.418035 z"
       id="wBb"
       inkscape:connector-curvature="0"
       inkscape:label="" />
    <path
       style="vector-effect:none;fill:#cfcfcf;fill-opacity:1;stroke:#000000;stroke-width:0.57176399;stroke-linecap:butt;stroke-linejoin:miter;stroke-miterlimit:4;stroke-dasharray:none;stroke-dashoffset:0;stroke-opacity:1"
       d="m 54.783754,80.760906 c -8.351827,8.734111 -14.759717,20.117594 -17.89773,31.980844 3.436428,0.91358 6.872854,1.82716 10.309281,2.74075 2.705914,-10.14913 7.948831,-19.617246 15.165296,-27.25425 -2.525258,-2.477629 -5.052492,-5.045886 -7.576847,-7.467344 z"
       id="xBb"
       inkscape:connector-curvature="0"
       inkscape:label="" />
    <path
       style="vector-effect:none;fill:#cfcfcf;fill-opacity:1;stroke:#000000;stroke-width:0.57176399;stroke-linecap:butt;stroke-linejoin:miter;stroke-miterlimit:4;stroke-dasharray:none;stroke-dashoffset:0;stroke-opacity:1"
       d="M 45.474116,71.745037 C 35.405409,82.303995 28.139485,95.34154 24.365079,109.41435 c 3.437146,0.91338 6.87429,1.82677 10.311495,2.74019 3.309606,-12.34201 9.728375,-23.84724 18.560648,-33.088013 -2.575361,-2.327513 -5.199585,-5.519319 -7.763106,-7.32149 z"
       id="yBb"
       inkscape:connector-curvature="0"
       inkscape:label="" />
    <path
       style="vector-effect:none;fill:#cfcfcf;fill-opacity:1;stroke:#000000;stroke-width:0.57176399;stroke-linecap:butt;stroke-linejoin:miter;stroke-miterlimit:4;stroke-dasharray:none;stroke-dashoffset:0;stroke-opacity:1"
       d="M 35.218901,62.207975 C 23.367492,74.248865 14.781515,89.391338 10.446342,105.7158 c 3.902729,1.03722 7.805454,2.0744 11.708182,3.11163 C 26.04454,94.300885 33.618034,80.764536 44.051147,69.925058 41.250269,67.206816 38.449389,64.48855 35.648514,61.770286 l -0.400551,0.408061 z"
       id="zBb"
       inkscape:connector-curvature="0"
       inkscape:label="" />
    <path
       style="vector-effect:none;fill:#cfcfcf;fill-opacity:1;stroke:#000000;stroke-width:0.57176399;stroke-linecap:butt;stroke-linejoin:miter;stroke-miterlimit:4;stroke-dasharray:none;stroke-dashoffset:0;stroke-opacity:1"
       d="m 97.874895,98.366256 c -4.992421,1.677314 -9.82096,4.640774 -13.70064,8.523354 2.5199,2.50957 5.03973,5.01909 7.559652,7.5286 2.643949,-2.62668 5.87352,-4.66923 9.396453,-5.89137 -0.93423,-3.43654 -1.86992,-6.87269 -2.805004,-10.309027 z"
       id="uF"
       inkscape:connector-curvature="0"
       inkscape:label="" />
    <path
       style="vector-effect:none;fill:#cfcfcf;fill-opacity:1;stroke:#000000;stroke-width:0.57176399;stroke-linecap:butt;stroke-linejoin:miter;stroke-miterlimit:4;stroke-dasharray:none;stroke-dashoffset:0;stroke-opacity:1"
       d="m 94.586305,85.804019 c -7.256122,2.298231 -14.103401,6.434808 -19.591142,11.944609 2.519471,2.509252 5.038884,5.018532 7.558354,7.527772 4.234867,-4.23131 9.480811,-7.448614 15.184389,-9.272375 -0.936138,-3.435296 -1.872276,-6.870576 -2.808803,-10.305716 z"
       id="vF"
       inkscape:connector-curvature="0"
       inkscape:label="" />
    <path
       style="vector-effect:none;fill:#cfcfcf;fill-opacity:1;stroke:#000000;stroke-width:0.57176399;stroke-linecap:butt;stroke-linejoin:miter;stroke-miterlimit:4;stroke-dasharray:none;stroke-dashoffset:0;stroke-opacity:1"
       d="m 90.793273,73.412794 c -9.321244,2.934646 -17.986757,8.180487 -24.977724,15.192633 2.519514,2.509635 5.039079,5.019255 7.558587,7.528876 5.826116,-5.833735 13.085032,-10.234153 20.97137,-12.648526 -0.93573,-3.433831 -1.873145,-6.867239 -2.809739,-10.300841 l -0.546298,0.168775 z"
       id="wF"
       inkscape:connector-curvature="0"
       inkscape:label="" />
    <path
       style="vector-effect:none;fill:#cfcfcf;fill-opacity:1;stroke:#000000;stroke-width:0.57176399;stroke-linecap:butt;stroke-linejoin:miter;stroke-miterlimit:4;stroke-dasharray:none;stroke-dashoffset:0;stroke-opacity:1"
       d="m 87.009497,61.056067 c -11.40628,3.569534 -21.875078,9.92246 -30.373038,18.408365 2.519469,2.509258 5.038882,5.018522 7.558351,7.527786 7.418185,-7.436029 16.691612,-13.014085 26.759499,-16.020389 -0.948652,-3.407714 -1.854401,-6.89575 -2.828552,-10.254171 -0.372148,0.112701 -0.744163,0.22562 -1.116281,0.338419 z"
       id="xF"
       inkscape:connector-curvature="0"
       inkscape:label="" />
    <path
       style="vector-effect:none;fill:#cfcfcf;fill-opacity:1;stroke:#000000;stroke-width:0.57176399;stroke-linecap:butt;stroke-linejoin:miter;stroke-miterlimit:4;stroke-dasharray:none;stroke-dashoffset:0;stroke-opacity:1"
       d="m 84.555115,48.258745 c -13.966944,4.102027 -26.790571,11.75949 -37.097982,22.063572 2.519511,2.50964 5.039081,5.01926 7.55859,7.528881 9.037974,-9.033526 20.349151,-15.78652 32.618061,-19.375241 -1.075659,-3.293049 -1.72993,-7.419856 -3.078669,-10.217212 z"
       id="yF"
       inkscape:connector-curvature="0"
       inkscape:label="" />
    <path
       style="vector-effect:none;fill:#cfcfcf;fill-opacity:1;stroke:#000000;stroke-width:0.57176399;stroke-linecap:butt;stroke-linejoin:miter;stroke-miterlimit:4;stroke-dasharray:none;stroke-dashoffset:0;stroke-opacity:1"
       d="m 80.460529,34.86733 c -16.285036,4.500473 -31.289594,13.327352 -43.208654,25.292937 2.861468,2.849614 5.722996,5.699225 8.584522,8.548837 C 56.467511,58.072227 69.796098,50.13769 84.250794,45.966761 83.183958,42.212351 82.117122,38.457939 81.050286,34.703528 l -0.550929,0.153 z"
       id="zF"
       inkscape:connector-curvature="0"
       inkscape:label="" />
  </g>
</svg>
